<svg id="Layer_2" data-name="Layer 2" xmlns="http://www.w3.org/2000/svg" viewBox="0 0 652 321">
  <defs>
    <style>
      .cls-1 {
        fill: #f5bc61;
      }

      .cls-2 {
        fill: #e45480;
      }

      .cls-3 {
        fill: #f5bd63;
      }

      .cls-4 {
        fill: #8cce10;
      }

      .cls-5 {
        fill: #f3dddf;
      }

      .cls-6 {
        fill: #f4dddf;
      }

      .cls-7 {
        fill: #f3ddde;
      }

      .cls-8 {
        fill: #526d66;
      }

      .cls-9 {
        fill: #0a1033;
      }

      .cls-10 {
        fill: #393e40;
      }

      .cls-11 {
        fill: #e45380;
      }

      .cls-12 {
        fill: #fefefe;
      }

      .cls-13 {
        fill: #e35380;
      }

      .cls-14 {
        fill: #f2ddde;
      }

      .cls-15 {
        fill: #c4b0b0;
      }

      .cls-16 {
        fill: #c3b1b2;
      }

      .cls-17 {
        fill: #c4afaf;
      }

      .cls-18 {
        fill: #c3b0b1;
      }

      .cls-19 {
        fill: #f3dedf;
      }

      .cls-20 {
        fill: #f5bc60;
      }

      .cls-21 {
        fill: #c3b0b2;
      }

      .cls-22 {
        fill: #c4b0b1;
      }

      .cls-23 {
        fill: #fb967b;
      }

      .cls-24 {
        fill: #433652;
      }

      .cls-25 {
        fill: #3a3e41;
      }

      .cls-26 {
        fill: #fcf9f7;
      }

      .cls-27 {
        fill: #c4b1b3;
      }

      .cls-28 {
        fill: #3b3f41;
      }

      .cls-29 {
        fill: #3c4143;
      }

      .cls-30 {
        fill: #3b4142;
      }

      .cls-31 {
        fill: #c5afaf;
      }

      .cls-32 {
        fill: #e57765;
      }

      .cls-33 {
        fill: #c5b0b0;
      }

      .cls-34 {
        fill: #f2dedf;
      }

      .cls-35 {
        fill: #2f2c3d;
      }

      .cls-36 {
        fill: #2b2a3b;
      }

      .cls-37 {
        fill: #fa967c;
      }

      .cls-38 {
        fill: #c8b6b6;
      }

      .cls-39 {
        fill: #55566b;
      }

      .cls-40 {
        fill: #f2e3e3;
      }

      .cls-41 {
        fill: #b6a78d;
      }

      .cls-42 {
        fill: #434057;
      }

      .cls-43 {
        fill: #c1acae;
      }

      .cls-44 {
        fill: #8d6d3f;
      }

      .cls-45 {
        fill: #f8cc88;
      }

      .cls-46 {
        fill: #3a3f41;
      }

      .cls-47 {
        fill: #f7cd8a;
      }

      .cls-48 {
        fill: #f7d89a;
      }

      .cls-49 {
        fill: #f8967b;
      }

      .cls-50 {
        fill: #f8d798;
      }

      .cls-51 {
        fill: #2b3240;
      }

      .cls-52 {
        fill: #2a343a;
      }

      .cls-53 {
        fill: #f6d897;
      }

      .cls-54 {
        fill: #f7d898;
      }

      .cls-55 {
        fill: #f1c57c;
      }

      .cls-56 {
        fill: #e08573;
      }

      .cls-57 {
        fill: #fefefd;
      }

      .cls-58 {
        fill: #fcfcfb;
      }

      .cls-59 {
        fill: #f9cb84;
      }

      .cls-60 {
        fill: #fad595;
      }

      .cls-61 {
        fill: #f2b756;
      }

      .cls-62 {
        fill: #fbd194;
      }

      .cls-63 {
        fill: #baa48f;
      }

      .cls-64 {
        fill: #fc967b;
      }

      .cls-65 {
        fill: #fe967c;
      }

      .cls-66 {
        fill: #fe967b;
      }

      .cls-67 {
        fill: #fbfaf6;
      }

      .cls-68 {
        fill: #fdf8f8;
      }

      .cls-69 {
        fill: #cab8b8;
      }

      .cls-70 {
        fill: #c2b3af;
      }

      .cls-71 {
        fill: #2d2a39;
      }

      .cls-72 {
        fill: #e38e77;
      }

      .cls-73 {
        fill: #2c3234;
      }

      .cls-74 {
        fill: #202628;
      }

      .cls-75 {
        fill: #f3bc60;
      }

      .cls-76 {
        fill: #65857e;
      }

      .cls-77 {
        fill: #f5bb5c;
      }

      .cls-78 {
        fill: #f5ca85;
      }

      .cls-79 {
        fill: #fd967c;
      }

      .cls-80 {
        fill: #463852;
      }

      .cls-81 {
        fill: #787e81;
      }

      .cls-82 {
        fill: #787f82;
      }

      .cls-83 {
        fill: #fcfbfc;
      }

      .cls-84 {
        fill: #393e41;
      }

      .cls-85 {
        fill: #e3907a;
      }

      .cls-86 {
        fill: #2a2839;
      }

      .cls-87 {
        fill: #f4bc60;
      }

      .cls-88 {
        fill: #fdfdfd;
      }

      .cls-89 {
        fill: #faf9f9;
      }

      .cls-90 {
        fill: #cbb8ba;
      }

      .cls-91 {
        fill: #2f3537;
      }

      .cls-92 {
        fill: #2a3032;
      }

      .cls-93 {
        fill: #c3aeaf;
      }

      .cls-94 {
        fill: #443652;
      }

      .cls-95 {
        fill: #e57764;
      }

      .cls-96 {
        fill: #f3dcde;
      }

      .cls-97 {
        fill: #c8b2b1;
      }

      .cls-98 {
        fill: #f9967a;
      }

      .cls-99 {
        fill: #8ba9a2;
      }

      .cls-100 {
        fill: #c6b0b0;
      }

      .cls-101 {
        fill: #fccd89;
      }

      .cls-102 {
        fill: #fbcd83;
      }

      .cls-103 {
        fill: #faca7f;
      }
    </style>
  </defs>
  <g>
    <path class="cls-1" d="M-1489.46,618.44l25-.08c3.79-1.5,7.73-.68,11.61-.81,29.81.14,59.62,0,89.44.06a41.7,41.7,0,0,1,5.7.15c1.44.28,1.83,1.44,2.19,2.64.89,3,2.24,5.81,3.33,8.72.55,1.5,1.45,2.47,3.16,2.44a2,2,0,0,1,1,.52c.6.8.56,1.45-.4,1.91a13.47,13.47,0,0,1-5,.46c-14.5,0-29,0-43.51,0-6.29,0-7.73,1.44-7.75,7.77q-.06,15.84,0,31.69c0,6.34,1.37,7.64,7.81,7.64q24.8,0,49.58,0c6.62,0,7.91-1.28,7.94-7.86,0-8.32,0-16.64,0-25a12.91,12.91,0,0,1,.46-4.67,1.68,1.68,0,0,1,2.26-.86c2.72.93,5.61,1.57,7.6,3.93,1.21,4-.18,8.06.8,12-.73,8.61-2.44,17.09-3.33,25.68-1.34,12.93-2.77,25.85-3.74,38.82-.42,5.7-1.1,11.38-1.4,17.09-.06,1.17-.09,2.58-1.8,2.79a35.33,35.33,0,0,0-7-.48h-98.71a24.74,24.74,0,0,1-5.7-.3c-2.26-.73-2.36-2.78-2.75-4.61-1.29-6.11-3.94-11.49-8.76-15.53-10.77-9-33-9-39.77,13.56-.69,2.27-.43,5-3,6.45-4.3.44-8.6,1-12.85-.39-1.13-1.31-.95-2.91-1-4.45-.06-3.56,0-7.13,0-10.69,0-2.48-1.18-3.61-3.68-3.66-2.08-.05-4.26.4-6.19-.84-1.37-2.55-1.06-5.17-.37-7.81.91-1.3,2-.32,3.05-.22,2.11.22,3.19-.59,3.23-2.76,0-2.58-.06-5.16,0-7.73s-.81-3.85-3.51-3.56a2.66,2.66,0,0,1-2.23-.53,4.09,4.09,0,0,1-1.06-3.1c.19-4.76-.85-9.58.69-14.28,1.41-1.23,3.15-1,4.81-1,7.28,0,14.56,0,21.84,0,2.46,0,4.47-.59,5-3.42.25-13.17.07-26.33.07-39.49-.74-3.65-1.34-4.22-5.14-4.26-8.18-.08-16.37,0-24.55,0h-.58a1.17,1.17,0,0,1-1-.54c0-2.79-.36-5.59.29-8.37,1.07-4.53,3.9-6.93,8.55-7,7.52-.07,15,0,22.55-.07C-1494,617.57-1491.75,616.89-1489.46,618.44Z" transform="translate(1734.29 -440.44)"/>
    <path class="cls-2" d="M-1277.81,601.35l-19.12-31q-6.88-11.18-13.78-22.37c-15.29-24.71-.9-55.7,27.9-60.06,20.36-3.08,40.7,12.17,43.77,32.59a39.19,39.19,0,0,1-5.5,27.12c-10.66,17.44-21.43,34.81-32.16,52.2C-1276.93,600.17-1277.21,600.51-1277.81,601.35Z" transform="translate(1734.29 -440.44)"/>
    <path class="cls-3" d="M-1239.72,618.4c2,0,4,.07,6.06.08,6.08,0,8.67,2.07,10.1,8.11a5.62,5.62,0,0,1,.63,1.09c.36,2.09.74,4.19-.76,6.05-1.54.91-3.26.72-4.93.72-10.11,0-20.22,0-30.33,0-5.93,0-6.76.87-6.77,6.89q0,16.85,0,33.69c0,5.55,1,6.47,6.46,6.52,11.57.11,23.14-.19,34.7.15a9.11,9.11,0,0,1,3.77,1.54c.91.64,1.88,1.22,2.82,1.83,2,1.31,4,2.44,6.06,3.63a11.66,11.66,0,0,1,6,9.95c.41,8.51,0,17,.19,25.56a1.6,1.6,0,0,1-.51,1.19c-2.54,1.26-5.27.68-7.9.68s-3.73,1.11-3.78,3.79c-.07,4.11.56,8.25-.46,12.32-.94,1.28-2,.63-3.12.27-1.66-1-1.58-2.86-2-4.45-1.58-5.95-3.94-11.34-8.87-15.48-12.32-10.34-32-5.59-38,9.38a43.69,43.69,0,0,0-2.44,7.35c-.27,1.3-.53,2.68-2,3.33a132.67,132.67,0,0,1-20.33.21c-1.28-3.34-1.95-6.73-.93-10.27,1.07-1,2.45-.91,3.77-.92,3.78,0,7.57,0,11.35,0,1.34,0,2.7,0,3.68-1.14.19-.35.4-.68.61-1a6.74,6.74,0,0,0,.61-1,12.16,12.16,0,0,0,.23-3.35V637a11.63,11.63,0,0,0-.3-3.67,9.87,9.87,0,0,1-.4-1.79c-.54-2.57-2.33-3.28-4.71-3.27-6.15,0-12.3,0-18.45,0a12.05,12.05,0,0,1-4.31-.36,1.25,1.25,0,0,1-.7-1.67c1.17-2.73,1.85-5.72,4.2-7.82,10.52,0,21,.06,31.56.05,3.12,0,3-.06,2.57-3.32-.62-5.08-1.07-10.2,1.05-15.11,1.13,1.41.67,3,.42,4.52a32.42,32.42,0,0,0-.09,9.07c.26,2,.48,4.09,3.4,4.07,2.57,0,4.83.13,5.75-3.18a111.73,111.73,0,0,1,5.24-14.22,123.62,123.62,0,0,1,20.4-33.15c1.13-1.29,2.61-2.07,3.91-3.3-1.12.82-2,1.87-3.49,1,1.94-2.05,4.67-2.37,7.29-3.52.75,5.57-.16,10.68-1.61,15.75-3.46,12.09-10.13,22.39-18,32-2.47,3-5.14,5.85-8.23,9.36h8.51C-1241.14,618.17-1240.43,617.84-1239.72,618.4Z" transform="translate(1734.29 -440.44)"/>
    <path class="cls-4" d="M-1525.86,504.56c6.5,7.12,13,14.22,19.49,21.38q17.37,19.26,34.66,38.57c.45.5.9,1,1.38,1.48,1.45,1.38,1.6,2.37-.17,3.92q-26.57,23.34-53,46.87-9.83,8.72-19.67,17.41a17,17,0,0,1-1.62,1.16c-2-1.4-1.56-3.54-1.61-5.52,0-1.34,0-2.69,0-4a6.74,6.74,0,0,1,4.63-6.23c3.37.47,5.12-1.29,6-4.31a23,23,0,0,1,1.58-3.69c.95-1.88,1.88-3.59-1-4.87s-3.82.29-4.7,2.46a21.72,21.72,0,0,1-1.2,2.76c-.43.76-.84,1.64-2,1.31a2,2,0,0,1-.88-1.31c1-9.62,2.87-19.1,4.36-28.64,3.94-25.3,8-50.58,12-75.87C-1527.33,506.3-1527.65,504.78-1525.86,504.56Z" transform="translate(1734.29 -440.44)"/>
    <path class="cls-5" d="M-1517,742.08l13.46-.06a7.39,7.39,0,0,1,6.62-.34c.91.83.91,2,1.16,3.09,1.2,5.25,3.74,9.57,8.43,12.49.78.48,2.38.63,1.72,2.3a4.38,4.38,0,0,1-2.89.65l-59.71-.07c-1.33-2.51-1.51-5.35-2.24-8a157.51,157.51,0,0,0-12.38-31.51c-1.29-2.48-2.8-4.9-1.91-7.94.21-.72-.33-1.25-1.16-1.31a85.38,85.38,0,0,0-10.61.13c-3.67-.54-7.45.33-11.09-.77a.75.75,0,0,1-.37-1c1.12-1.26,2.65-1.08,4.08-1.1,4.61,0,9.22-.16,13.82,0,2.87.12,4.79-.65,5.47-3.59.28-.17.61-.43.87-.1.52.65.65,1.36.39,1.65-1.18-5.15-.08-10.75-.88-16.29a7.53,7.53,0,0,1-.11-3c0-.06.81-.82-.23-.52-1.61-.74-1.27-2.21-1.27-3.51a196.21,196.21,0,0,0-2.11-29.16,5.62,5.62,0,0,0-.3-1.52c-.1-1.2-1.55-1.64-1.63-2.86,1.27-1.84,1.27-3.92,1.27-6,0-3.75.95-7.18,3.75-9.89a2.24,2.24,0,0,1,2.41.74,44.43,44.43,0,0,0,8.87,6.87c1.48,2.48,2.26,5.44,4.42,7.44,2.92,2.72,6.32,4.56,10.5,4.52,2.45,0,4.91,0,7.37,0,1.73,0,3.38.3,4.09,2.25.5,8.32.18,16.63.18,24.94a3.16,3.16,0,0,1-.63,1.89c-.13,5.86-.66,11.72.29,17.56.64,4.82,1.12,9.65-.32,14.43-.06,2.61-.13,5.22-.19,7.83-1.1,1.29-2.65,1-4.06,1.07-2.55,0-3.66,1.33-3.71,3.74-.1,4-.07,8.06,0,12.09,0,2.41,1.12,3.8,3.66,3.76C-1527,742.91-1521.92,743.55-1517,742.08Z" transform="translate(1734.29 -440.44)"/>
    <path class="cls-4" d="M-1452.29,460.75a.94.94,0,0,1,0-.64c1.28-1.2,2.89-1.13,4.45-1.13q44.32,0,88.65,0a20,20,0,0,1,7,1.14c1.26.46,2.6.94,2.6,2.67q-18.61,16.57-37.23,33.14-18.9,16.76-37.85,33.48c-2.75,2.43-2.74,2.5-5.12-.15q-17.69-19.65-35.38-39.3c-1.33-1.47-1.67-2.63-.52-4.4,3.19-4.88,6.2-9.86,9.29-14.8,8.27,9.15,16.86,18,25,27.3,5.52,6.3,5.52,6.54,11.69,1.16q19.95-17.39,40.09-34.53a38.71,38.71,0,0,0,3.15-3c-6.07-.06-11.67,0-17.27,0q-26.82,0-53.62,0C-1449.09,461.61-1450.85,462-1452.29,460.75Z" transform="translate(1734.29 -440.44)"/>
    <path class="cls-5" d="M-1644.64,710.9c1.88-1.35,4.12-.14,6.24-.88-5.14-5.06-10.5-9.82-14.17-16.07-3.56-6.09-7.16-12.15-8.29-19.28,1.09-.8,2.16-.23,3.2.09,18.62,5.77,37.59,10.36,56,16.89a79.5,79.5,0,0,1,9.88,4.22c1.18,1.21,1.23,2.78,1.43,4.33.44,3.41.86,6.84,2.38,10l.15.18a3.46,3.46,0,0,1,.65,2.86c-1,10,.41,19.92,1.29,29.85.28,3.23.87,6.44,1,9.7-.1,2.5.68,5.12-1,7.41l-11.51-.05c-2.13-3.13-2.12-7-3.74-10.35-4.28-8.84-7.41-18.33-13.74-26-6-7.37-13.5-12.34-23.61-12C-1640.56,711.86-1642.8,712.51-1644.64,710.9Z" transform="translate(1734.29 -440.44)"/>
    <path class="cls-5" d="M-1206.12,724.82c-1-1-.62-2.32-.63-3.51,0-6.83,0-13.65,0-20.47,0-5.2-1.68-9.31-6.57-11.86a20.34,20.34,0,0,1-5.56-3.65c1-1.09,2.46-1,3.72-1.26,2.7-.61,4.7-1.93,5.71-4.57.64-1.3,1.06-2.74,2.42-3.54,3.11-.78,4.17-2.82,4-5.92-.16-3.88-.07-7.78,0-11.66,0-1.42-.19-2.93,1-4.07,8.77,2.49,15.32,7.88,20.18,15.48,1,1.4.28,2.83,0,4.2-2.53,11.22-2.27,22.5-.54,33.76.7,4.53-.71,8.67-1.55,12.93-2.32,11.66-4.29,23.36-4.33,35.3,0,1.44.21,2.95-.88,4.18q-24.06,0-48.13.06a5.92,5.92,0,0,1-3.23-.71c-.14-1.32,1-1.69,1.78-2.17,4.85-2.9,7.44-7.31,8.65-12.68.26-1.17.23-2.52,1.53-3.22,2.32-.56,4.63-.87,6.79.54l2.69.55c1.74,2.79,4.32,3.48,7.43,3.22,2.56-.21,5.14,0,7.71-.1a2.68,2.68,0,0,0,2.9-2.94q.09-6.87,0-13.73a2.59,2.59,0,0,0-2.57-2.89C-1204.55,726-1205.66,726-1206.12,724.82Z" transform="translate(1734.29 -440.44)"/>
    <path class="cls-6" d="M-1451,742q26.76,0,53.52.08c18.62,0,37.25,0,55.87,0,1.23,0,2.78-.66,3.58,1,1.22,2,.7,4.1.55,6.2-1.73,3.18,1,3.86,2.83,5-.12,2.38-1.79,3.66-3.5,4.92a5.61,5.61,0,0,1-2.16.88h-128.94c-.67,0-1.35,0-2-.05,0-1,.78-1.26,1.45-1.61a19.08,19.08,0,0,0,10.57-14.1,4.1,4.1,0,0,1,1-2.41A6.7,6.7,0,0,1-1451,742Z" transform="translate(1734.29 -440.44)"/>
    <path class="cls-7" d="M-1349.65,462.79c-2.21-2.34-5.22-2.59-8.06-2.6q-47.3-.13-94.59-.08c0-1.57.09-3.16,0-4.72-.2-2.3.76-3.26,2.93-2.54a15.43,15.43,0,0,0,5,.44c31.59,0,63.18.19,94.77-.12,8.31-.08,16.26,6.63,16.54,15.6.16,5.05-1.27,10.15-2,15.22-1.27,8.37-2.53,16.75-3.87,25.11-1.43,8.91-3,17.8-4.42,26.71-1.47,9.13-2.87,18.28-4.32,27.41q-2.55,16-5.18,32c-.33,2-.32,4-.7,6-.54,2.79,2,1.46,3.26,1.87a.87.87,0,0,1-.41,1.06,22.67,22.67,0,0,1-11.65-.08c-1-1.7-.52-3.49-.23-5.22,1-5.76,1.75-11.55,2.73-17.31,2.1-11.93,3.76-23.93,5.67-35.89.25-1.55.69-3.06.84-4.62.93-6.88,2.22-13.71,3.16-20.58a33.13,33.13,0,0,1,1.14-4.54c2.14-2.42,1.37-5.58,1.89-8.35,1.84-9.83,3.37-19.72,4.77-29.62C-1341.53,471.41-1343.32,466.32-1349.65,462.79Z" transform="translate(1734.29 -440.44)"/>
    <path class="cls-8" d="M-1452.29,460.75h78.4c-7.28,6.31-14,12.15-20.73,18-5.92,5.12-11.89,10.21-17.82,15.33-3.81,3.29-7.59,6.62-11.38,9.94-1.19,1-2.12,1.22-3.37-.16-7.37-8.14-14.82-16.2-22.27-24.27-1.6-1.73-3.27-3.39-4.92-5.08a5.91,5.91,0,0,1-2.08-3.72A29,29,0,0,0-1452.29,460.75Z" transform="translate(1734.29 -440.44)"/>
    <path class="cls-4" d="M-1359.13,581.57c-.81,7.37-2,14.69-3.43,22-.22.29-.43.3-.65,0-4-5.53-9-10.3-13.48-15.42-7.06-8-14.29-15.84-21.43-23.76-2.5-2.77-2.5-2.81.36-5.35l48.64-43.12c.95,3.12-.5,6-.82,9-.59,5.4-1.73,10.74-2.63,16.1-6.09,6.62-13.11,12.22-19.8,18.17-3.43,3.06-3.56,2.89-.69,6.51,3.75,4.76,8.65,8.48,12.28,13.37C-1360.19,579.89-1359.32,580.49-1359.13,581.57Z" transform="translate(1734.29 -440.44)"/>
    <path class="cls-9" d="M-1527.63,682.52q-.13-13.77-.26-27.54a6,6,0,0,1-.92-2.28c.08-2.64-.78-5.39.93-7.83l.15-11a3.53,3.53,0,0,0,.46.15c.52.56.38,1.26.38,1.92v42.67c0,.55,0,1.09,0,1.13,0-13.72,0-27.94,0-42.17,0-1.19.39-2.46-.37-3.59.55-.84,1.41-.52,2.13-.53,8.25,0,16.49,0,24.74,0,3.67,0,4.7,1.07,5,4.66-.58.54-.42,1.25-.42,1.9v36.74c0,.65-.15,1.36.41,1.9,0,2.86-1.75,4-4.32,4C-1509,682.61-1518.34,682.55-1527.63,682.52Z" transform="translate(1734.29 -440.44)"/>
    <path class="cls-4" d="M-1350.41,603.74a1.64,1.64,0,0,0,0-.66c.72-1.69.09-4.17,2.76-4.73,1.81-1.2,3.53-1.39,5,.49,2.4.95,1.2,3.13,1.62,4.76,1.46,2.42.76,5,.54,7.53-.19,2.19-1.4,5.07.55,6.33,2.18,1.4,4.34-1,6.22-2.27a26.58,26.58,0,0,1,11.71-4.73c.42.16,0-.21.31.06,3.33,2.74,6.54,2.1,9.7-.29a44.56,44.56,0,0,1,5.84,1.35c3.71.86,5.52,3.08,5.57,6.83-.88,3.17-2.75,5.9-4,8.92a2.44,2.44,0,0,1-.11,1.8c-.64,1.77.31,3.31.71,4.93.38,2.9,1.28,5.68,1.7,8.57.33,2.21-.18,4-2.45,4.92-2.2.5-4.42.24-6.63.29a7.5,7.5,0,0,0-4.17.9c-3.6,2.42-7.29,2.25-11.06.47a6.06,6.06,0,0,1-3.07-2.12c-2.93-1.17-5.67-2.83-8.78-3.59-2.79-.07-4.94-1.68-7-3.24-1.72-1.31-1-3.15-.11-4.77,4.35-2.37,4.38-2.66,1.06-6.79-.77-1-1.62-1.83-2.44-2.75-1.47-3.43-2.48-7.09-5-10C-1351.66,611.82-1352.1,607.66-1350.41,603.74Z" transform="translate(1734.29 -440.44)"/>
    <path class="cls-5" d="M-1598.65,760.13c-21.42,0-42.83,0-64.24.11-2.1,0-2.77-.75-2.65-2.75.48-7.38,1.49-14.62,4.66-21.42.32-.7.52-1.46.77-2.19,1.79-1.46,3.85-.94,5.8-.64,9.51,1.45,18.89,3.59,28.34,5.35a56.62,56.62,0,0,0,15,1.07c3.88-.32,6.18,1,7.74,4.67a83.58,83.58,0,0,1,4.72,13.25C-1598.28,758.47-1598,759.32-1598.65,760.13Z" transform="translate(1734.29 -440.44)"/>
    <path class="cls-1" d="M-1350.41,603.74c.26,4.29-.51,8.52-.67,12.79-1.38,2.06-3.14,3-5.56,1.76-31.43-.17-62.85,0-94.27-.07-1.3.09-2.17-.43-1.19-1.67,3.73-4.7,7.3-9.61,13-12.24a5.37,5.37,0,0,1,2.93-.35c2.13-.11,4.25-.3,6.38-.31q33.3-.07,66.59-.1a1.3,1.3,0,0,0,.65,0Z" transform="translate(1734.29 -440.44)"/>
    <path class="cls-5" d="M-1178.37,760.18l-10.21,0c-.59-6.61.37-13.16,1-19.71,1-9.83,3.15-19.46,5.27-29.07.87-3.92,3.6-6.94,6.08-10A102.41,102.41,0,0,1-1168,693a2.27,2.27,0,0,1,2.38-.88,1.37,1.37,0,0,0,1.22,1.35,29.44,29.44,0,0,1,14.34,7.45c.51,1.4-.39,2.37-1.08,3.36A89.44,89.44,0,0,0-1163.84,732c-1.52,5.54-4.54,10.23-7.1,15.2-1.8,3.48-3.92,6.81-5.3,10.51A4,4,0,0,1-1178.37,760.18Z" transform="translate(1734.29 -440.44)"/>
    <path class="cls-5" d="M-1525.86,504.56c-.88,4.92-1.82,9.84-2.62,14.79q-3.72,23-7.34,46.06-3.69,23.52-7.33,47.06c-1.84,4.5-4.77,8.4-6.9,12.74-.37.76-1.2,1.51-2,.17.06-6.62,1.59-13,2.61-19.52,2-12.34,4-24.67,5.75-37a42.66,42.66,0,0,1,.93-4.21c2.22-13.52,4.62-27,6.6-40.56,1.87-12.79,4-25.53,6.09-38.28,1-6.36,1.81-12.79,2.9-19.15a16,16,0,0,1,16.7-13.44c4.64.36,9.39.63,14.08-.43,1.76-.4,2.89.06,2.41,2.58-.89,4.7-.68,4.69-5.48,4.76-3.46.05-7-.47-10.35.66-5.41,1.8-9.53,4.87-10.81,10.82-1.74,8.07-2.79,16.25-3.91,24.41C-1524.91,498.85-1526,501.6-1525.86,504.56Z" transform="translate(1734.29 -440.44)"/>
    <path class="cls-5" d="M-1135.85,725.25c-1.68,2.76.1,5.4.36,8.08.81,8.44,1.48,16.87.26,25.33-.32,2.16-1.92,1.51-3.11,1.52-11.09,0-22.18,0-33.27,0-1.8,0-3.59,0-5.38,0,.13-3.37,2-6,3.53-8.86,2.24-4.27,4.56-8.49,6.89-12.71,2.94-5.35,7.47-8.57,13.11-10.41a109.08,109.08,0,0,1,15.77-3.49A1.7,1.7,0,0,1-1135.85,725.25Z" transform="translate(1734.29 -440.44)"/>
    <path class="cls-5" d="M-1645.31,617.25a6.76,6.76,0,0,0,4-1.55c10.17-6.94,21.55-10.18,33.67-9,5.07.48,6.71-1.33,8.12-5.24.89-2.47,3.3-4.25,3.48-7.1a17,17,0,0,1,10.84,5.35,100.86,100.86,0,0,1,0,16.76c-1,2.65-3.68,2.75-5.69,3.89-3.74,1.72-6.38,4.81-9.33,7.52-1.12,1-1.85,2.64-3.72,2.59-8.14-3.66-16.25-7.36-25-9.22-4.57-1-9.09-2.24-13.8-2.5C-1643.78,618.68-1645.13,618.88-1645.31,617.25Z" transform="translate(1734.29 -440.44)"/>
    <path class="cls-10" d="M-1458.34,742.6c-.52,8.66-5.32,14.15-13,17.54a24.27,24.27,0,0,1-14.29-.58c-6.66-3.92-10.81-9.47-11.37-17.37a5.28,5.28,0,0,1-.48-4.2A20.52,20.52,0,0,1-1478,721.52a20.15,20.15,0,0,1,20.2,15.89A6.46,6.46,0,0,1-1458.34,742.6Z" transform="translate(1734.29 -440.44)"/>
    <path class="cls-10" d="M-1228.89,742.15c-.66,7.93-4.6,13.68-11.62,17.36a22.25,22.25,0,0,1-16.1-.16c-2.92,0-4.58-2.13-6.34-3.93a18.64,18.64,0,0,1-5.41-13c-.12-8.25,3.21-14.5,10.62-18.44,7.7-4.09,15-3,21.87,1.85,4.64,3.3,6.85,8.17,7.6,13.75A3.64,3.64,0,0,1-1228.89,742.15Z" transform="translate(1734.29 -440.44)"/>
    <path class="cls-11" d="M-1473.14,490.61c-5.44-9.16-11.17-17.48-15.92-26.39a13.25,13.25,0,0,1-1.23-6.56c.12-7.22,3.54-12.45,10-15.55a16.65,16.65,0,0,1,18.79,2.95c5.24,5,7,11.06,4.74,18.12a30.18,30.18,0,0,1-3.46,6.52Z" transform="translate(1734.29 -440.44)"/>
    <path class="cls-1" d="M-1451.62,547.86c-1.34,1.19-2.65,2.41-4,3.55-2.92,2.4-6,2.28-9-.28a2.81,2.81,0,0,1,0-1.6c.67-4.34-.84-5.79-5.27-5a1.72,1.72,0,0,1-1.26-.14q-4.95-5.51-9.92-11a1.5,1.5,0,0,1,0-1.26c1.31-4.45.23-5.82-4.47-5.69a4.07,4.07,0,0,1-1.63-.12c-2.5-4.22-2.18-6.86,1.28-10.07,1.06-1,2.21-1.87,3.31-2.8a5.08,5.08,0,0,1,2.89,2.13c1.56,1.86,2.91,1.63,4.33-.11a8.55,8.55,0,0,1,1.68-1.61c1.77-1.19,2-2.44.43-4a3.52,3.52,0,0,1-1.2-2.66c2.68-1.21,4.92-.15,6.63,1.72,7.4,8.12,14.67,16.35,22,24.52,2,2.26,2.21,4.75,1.16,7.46A4.28,4.28,0,0,1-1447,539c-1.7-2.16-3.15-2.06-5.2-.21-3.73,3.37-3.85,3.24-.63,7a5.7,5.7,0,0,1,1.16,1.63Z" transform="translate(1734.29 -440.44)"/>
    <path class="cls-12" d="M-1229.79,564.85l4.49-1.4c-10.14,10-17.21,21.22-22.81,33.39a141.57,141.57,0,0,0-7.16,18.85c-.59,2-1.44,2.88-3.7,2.86-6.8-.09-6.9-.17-7.2-7.13-.17-3.85.59-7.59.84-11.39,2.22-7,5.48-13.44,10.73-18.73a76.28,76.28,0,0,1,10.57-8.65A86.35,86.35,0,0,1-1229.79,564.85Z" transform="translate(1734.29 -440.44)"/>
    <path class="cls-5" d="M-1267.54,742.6c.37,7.72,4.53,13,10.93,16.75-.85,1.35-2.22.82-3.38.83-9.43,0-18.86,0-28.29,0a9,9,0,0,0-4.28.64,5.07,5.07,0,0,1-1.92-1.2c-1.46-1.58-4-2.32-3.79-5.16a3.09,3.09,0,0,1,1.23-1.59c1.69-.95,1.52-2.44,1.34-4-.24-2.12-1-4.35.69-6.28,3.64-1,7.35-.31,11-.45,3.25-.12,6.5-.07,9.75-.09C-1271.88,740.69-1269.59,740.28-1267.54,742.6Z" transform="translate(1734.29 -440.44)"/>
    <path class="cls-1" d="M-1202,654.31l-.06,16.36c0,5.05-.27,5.33-5.36,6-5.32,2.26-9,.11-9.11-5.5-.12-6.25-.14-12.49,0-18.74-.13-3.32-.08-6.65,0-10,0-5.66,1.55-7,7.35-6.49a16.15,16.15,0,0,1,1.78.72c5,.07,5.31.35,5.33,5.3C-1202.07,646.08-1202,650.19-1202,654.31Z" transform="translate(1734.29 -440.44)"/>
    <path class="cls-6" d="M-1675,578.76c-7,0-13.91.08-20.87-.07-1.35,0-3.69,1.35-4-1.5-.21-1.88,2.21-4.33,4.27-4.47a10.62,10.62,0,0,1,4.33.15c2,.77,2.79,0,3.57-1.69,1.45-3,4-5.09,6.75-6.85a7,7,0,0,1,9.79,2.84c1.5,3.12,3.15,3.2,6,2.25,5-1.64,9.76-1.27,13.38,3.25a10.6,10.6,0,0,1,.84,1c.85,1.36,1.56,3.08,1.09,4.4s-2.38.61-3.64.62C-1660.62,578.79-1667.8,578.76-1675,578.76Z" transform="translate(1734.29 -440.44)"/>
    <path class="cls-13" d="M-1489.46,618.44h-6.88c7.9-7.12,15.78-14.27,23.71-21.37,9.53-8.51,19.13-16.94,28.63-25.48,5-4.5,5.31-9.8.83-14.73-2.76-3-5-6.58-8.45-9v-.2a4.18,4.18,0,0,1,3.89-3.23c2.16,3.31,5,6,7.59,9,6.52,7.44,6,15.59-1.41,22.14q-22.59,20-45.1,40A10.62,10.62,0,0,0-1489.46,618.44Z" transform="translate(1734.29 -440.44)"/>
    <path class="cls-14" d="M-1155.66,570.69c-6.5,0-13-.07-19.51,0-2.15,0-2.79-.82-2.55-2.8.72-6.08,7.23-11.41,13.27-10.72a10.82,10.82,0,0,1,6.64,3.62c1.62,1.76,2.77,1.88,4.82.59,9.42-5.94,15.73.34,19.23,7.58,1,2-.71,1.66-1.72,1.67C-1142.2,570.7-1148.93,570.69-1155.66,570.69Z" transform="translate(1734.29 -440.44)"/>
    <path class="cls-5" d="M-1548.73,760.13h-13c-3.68-1.51-5.75-4.1-5.54-8.23-.41-11.39.58-22.73,1-34.08,1.64-2.26,2.23-.15,2.75.82a155.13,155.13,0,0,1,6.84,14.24,157.26,157.26,0,0,1,7.9,24.29C-1548.61,758.13-1548.17,759.12-1548.73,760.13Z" transform="translate(1734.29 -440.44)"/>
    <path class="cls-5" d="M-1304.67,760.22c-7.39.12-14.78-.34-22.17.28a6.09,6.09,0,0,0-1.27.37,1.87,1.87,0,0,1-1.29-1.45,4,4,0,0,1,.05-1.54c.39-1.51.19-3.08.48-4.61.8-3.22,2.24-6.21,3.3-9.34a3.77,3.77,0,0,1,2-2.55,59.15,59.15,0,0,1,15,0c1.76.79,2,2.52,2.41,4.07.72,2.42,1.65,4.77,2.3,7.2a15.48,15.48,0,0,1,.17,5.43C-1303.82,758.85-1303.87,759.7-1304.67,760.22Z" transform="translate(1734.29 -440.44)"/>
    <path class="cls-5" d="M-1562,528.19c-13.58,0-26.83,0-40.07,0-2.07,0-2.22-.84-1.49-2.52a15.83,15.83,0,0,1,5.2-6.06,3.79,3.79,0,0,1,4.44-.44c2.26,1.41,3.69.67,5.48-1.07,3.75-3.66,7.1-4.45,10.23-2.47a13.68,13.68,0,0,1,5.43,5.84c.85,1.94,1.7,2.72,4,1.92C-1566,522.41-1563.64,524.14-1562,528.19Z" transform="translate(1734.29 -440.44)"/>
    <path class="cls-15" d="M-1135.85,725.25c-5,1-10.07,1.88-15.05,3.15-6.46,1.66-11.79,4.86-15.2,10.7-4,6.85-8,13.71-10.89,21.14-.49.61-.93.12-1.38-.06a194.7,194.7,0,0,1,11.49-21.94c1.15-2,1.38-4.23,2-6.35a109.26,109.26,0,0,1,14.81-31c3-3.12,5.73-6.52,9.31-9.06,5.52-3.9,11.32-7.11,18.19-7.89.69-.33,1.31-.41,1.63.49a2.56,2.56,0,0,1-2.17,1.4c-10.48,2-18.21,8.27-25,16-6.44,8.37-10.69,17.84-14,27.78,5.25-7.82,11.8-14.6,18.32-21.4,11.75-10.52,24.81-18.51,40.63-21.26a38,38,0,0,1,6.37-.51c2.49,0,5,.33,7.46-.52,2.23-.23,4,1.27,6.11,1.62,1.4.23.73,1.38.37,2.14-3.84,8.21-8.91,15.5-16,21.28-9.48,7.74-20.72,11.21-32.47,13.48C-1132.77,724.74-1134.31,725-1135.85,725.25Z" transform="translate(1734.29 -440.44)"/>
    <path class="cls-16" d="M-1165.6,692.07c-5.26,4.7-10.28,9.57-14.05,15.65-3.06,4.92-3.56,10.55-4.68,15.95a158.62,158.62,0,0,0-3.62,29.16c0,2.43-.61,4.86-.63,7.32l-.28,0-.29,0c-.54-11.14,1.08-22.09,3-33,.79-4.5,1.92-8.95,2.87-13.42.77-3.62-.37-7.14-.7-10.68-1-10.77-1-21.44,1.89-32,.12-.43.18-.87.27-1.31,2.13-5.3,3.93-10.77,8-15a1.28,1.28,0,0,1,.52.85c-.42,2.86-2.47,4.94-3.57,7.49a72.1,72.1,0,0,0-3.05,7.78c-3.3,11.36-3.24,22.89-1.8,34.25a118.3,118.3,0,0,1,5-14.36,127,127,0,0,1,16.23-27.85A83.75,83.75,0,0,1-1124,635.68c1.35-.52,2.7-1.17,4.23-.76a1.25,1.25,0,0,1,.88,1.11c-.53,1.34-1.84,1.56-3,2-20,7.22-34.19,21-44.76,39a97.79,97.79,0,0,0-7.16,14.47c-1.4,3.3-2.7,6.64-4.06,10.27,3-3.34,5.69-6.69,8.93-9.47,10-9.2,20.9-17.27,30.87-26.46a3.34,3.34,0,0,1,2.68-1.17,1.64,1.64,0,0,1,.82.51c-5,5.13-10.69,9.46-16.13,14.07C-1155.66,683.45-1160.81,687.54-1165.6,692.07Z" transform="translate(1734.29 -440.44)"/>
    <path class="cls-17" d="M-1598.65,760.13c-.86-6.43-3.37-12.28-6.37-18a2.5,2.5,0,0,0-2.67-1.53c-13.16.91-25.72-2.76-38.46-5.08-4.61-.83-9.2-2-14-1.68-6.15-.63-12.12-.14-17.81,2.86,7.69-13.17,17.91-22.83,33.28-25.84,4,.24,8.11-.53,12.09.39a32.25,32.25,0,0,1,21,15.66c5.87,9.93,11.19,20.19,14,31.53a11.52,11.52,0,0,1,.15,1.67Z" transform="translate(1734.29 -440.44)"/>
    <path class="cls-18" d="M-1592,696.14c-4.87-1-9.2-3.44-13.86-5-15.3-5.15-31-9.09-46.37-13.82-2.88-.89-5.77-1.76-8.66-2.64-13.24-4.27-26.26-9.08-38.66-15.45A122.26,122.26,0,0,1-1729.23,638c-1.52-1.48-2.81-3.2-4.26-4.76s-1-2.3.75-3a215.5,215.5,0,0,1,38.68-11.08,162.58,162.58,0,0,1,19.62-2.47c7.55-.42,15.13-.11,22.69-.09a4,4,0,0,1,1.23.49c-1,1.19-2.49.91-3.7,1.44a68.1,68.1,0,0,1-10.78.27c-17.13-.14-33.76,2.92-50.14,7.71-4.42,1.29-8.77,2.83-13.13,4.27a3.87,3.87,0,0,0-2.32,1.52c-.58,1.48.78,2,1.48,2.7,10.83,11.59,24,19.72,38.36,26.2A264.49,264.49,0,0,0-1662.46,672c21.93,7,44.41,12.22,66,20.42,1.66.64,3.44,1.13,4.57,2.69A1,1,0,0,1-1592,696.14Z" transform="translate(1734.29 -440.44)"/>
    <path class="cls-19" d="M-1302.65,459.09a7.8,7.8,0,0,1,.94.24c4.86,2.29,9.71,2.16,14.91.86,4.66-1.16,8.19,4.27,9,8.57.27,1.32-.73,1.46-1.71,1.32-8.93-1.27-17.91-.21-26.85-.56a5,5,0,0,1-.67,0c-1.38-.2-3,1.62-4,0s.39-3.23,1-4.72C-1308.49,461.54-1306.16,459.33-1302.65,459.09Z" transform="translate(1734.29 -440.44)"/>
    <path class="cls-5" d="M-1527.88,644.87a38.38,38.38,0,0,1,0,8.09c-.12.19-.23.45-.41.52-8,3.25-19.68-.84-23.68-8.3a5.35,5.35,0,0,1-.81-3.52c3.12-3.81,4.08-8.49,5.31-13.08.34-1.27.16-3,2.06-3.38,0,3.4-.58,6.84.68,10.15C-1541.45,642.65-1535.5,645.24-1527.88,644.87Z" transform="translate(1734.29 -440.44)"/>
    <path class="cls-20" d="M-1321.48,611a34.39,34.39,0,0,0-12.71,5.62c-1.87,1.35-4.14,3.7-6.49,2.22-2.2-1.37-1-4.39-.78-6.57.33-2.89.17-5.78.51-8.65,4,0,8,0,11.92.1a9.72,9.72,0,0,1,4.73,1.25c1.88-.28,2.92.93,3.94,2.19C-1319.85,608.67-1320,610-1321.48,611Z" transform="translate(1734.29 -440.44)"/>
    <path class="cls-21" d="M-1239.72,618.4h-2.13c3.72-3.35,6.25-7.48,8.53-11.92,3.34-6.53,8.1-12,15.08-14.8,6.57-2.68,13.2-2,19.71.49a44.14,44.14,0,0,1,9.26,4.78c2.64,1.8,2.7,2.33.12,4.39-3.8,3-8.4,4.13-13,5.08-8.33,1.72-16.86,2.24-25.2,4A19,19,0,0,0-1239.72,618.4Z" transform="translate(1734.29 -440.44)"/>
    <path class="cls-7" d="M-1572.4,760.19l-3-.12c-3.8-1.33-5.69-4-5.45-8-.11-10.24,1.39-20.36,2.38-30.51.14-1.42-.06-3.28,1.9-3.94,1.9,3,1.54,6.44,2,9.7,1.11,8.3,2.47,16.57,3.11,24.93C-1571.57,754.9-1570.7,757.7-1572.4,760.19Z" transform="translate(1734.29 -440.44)"/>
    <path class="cls-4" d="M-1436.18,604a24.36,24.36,0,0,0-10.73,7.63c-1.81,2.11-3.66,4.18-5.49,6.27a1,1,0,0,1-.67.6l-11.37-.1c7.09-6.33,14.2-12.64,21.25-19,1.16-1.05,2-1.18,3,.09C-1438.9,601-1437.51,602.46-1436.18,604Z" transform="translate(1734.29 -440.44)"/>
    <path class="cls-22" d="M-1627.68,562.56a46.33,46.33,0,0,1-4.23-13c-.32-1.7,0-2.49,1.87-2.52a175.14,175.14,0,0,1,28.4,1.62c2.31.34,4.61.8,6.91,1.21,0,1-.74,1.1-1.42,1.32-5.17.07-10.23-1.1-15.35-1.61-4-.39-8.07.33-11.94-1.1,18.18,4.69,34.61,13,49.7,24.07a131.68,131.68,0,0,1,23.8,23.08c.14.17.3.34.43.51.78,1,1.93,2.21.81,3.21-1.3,1.16-2.18-.48-2.84-1.36-3.38-4.5-7.45-8.37-11.41-12.32a102.35,102.35,0,0,0-13.34-11.25,148,148,0,0,0-50-23.92c-3.54-.93-3.47-.9-2.77,2.58.59,3,2.34,5.59,2.5,8.67C-1626.78,562.27-1627,562.68-1627.68,562.56Z" transform="translate(1734.29 -440.44)"/>
    <path class="cls-23" d="M-1320.79,607.1l-3.51-2.15c0-3.18.07-6.37.1-9.55a6.68,6.68,0,0,1,.77-3.82c2.74-.66,5.5-.15,8.26-.15,3.24,0,2.93,3,4.08,4.83,1.55.17,1.95,1.18,1.86,2.54a1.86,1.86,0,0,1-2.18,1.88c-.64,0-.91.49-1.18,1-.84,1.75-1.06,3.85-3,5C-1317.26,607.62-1318.91,608.5-1320.79,607.1Z" transform="translate(1734.29 -440.44)"/>
    <path class="cls-5" d="M-1197.16,535.59c-3.47,0-6.95,0-10.43,0-.83,0-2,.39-2.33-.76s.69-1.8,1.41-2.45c.39-.36,1-.83,1.44-.73,3.34.87,5.59-1.43,8.2-2.69a6.54,6.54,0,0,1,7,.36,3.22,3.22,0,0,0,2.77.58,4.45,4.45,0,0,1,5.18,4.32c0,1.63-1.17,1.37-2.12,1.37C-1189.75,535.61-1193.45,535.59-1197.16,535.59Z" transform="translate(1734.29 -440.44)"/>
    <path class="cls-5" d="M-1557.61,567.33a83.7,83.7,0,0,1,13.52-.69,1.29,1.29,0,0,1,.76,1.34c-.54,5.5-1.1,11-2.8,16.29-1.47.56-2.14-.51-2.54-1.52a46.87,46.87,0,0,0-8.62-13.86A1.48,1.48,0,0,1-1557.61,567.33Z" transform="translate(1734.29 -440.44)"/>
    <path class="cls-16" d="M-1119,636.05l-.78-.66c-19.38.16-37.67,3.28-51.38,18.89-.65.74-1.24,1.64-2.45,1.49l-.14-1a42.16,42.16,0,0,1,17.39-14.42c12.79-6.06,26.43-7.48,40.38-6.93,2.49.1,3,.89,2.24,3.85a39.72,39.72,0,0,1-7.74,14.44c-1.12,1.37-1.92,3.08-3.57,4a1.16,1.16,0,0,1-.92-1c2.17-3.9,5.46-7,7.53-11a23.3,23.3,0,0,0,2.58-7.24C-1116.94,635.84-1118.13,637.14-1119,636.05Z" transform="translate(1734.29 -440.44)"/>
    <path class="cls-24" d="M-1311.09,596.26c-1.39,1-1.89.26-1.67-1,.45-2.68-1.11-2.83-3.11-2.91-2.53-.1-5.12.32-7.56-.73-1.47-3.17-.84-5.63,1.85-7.15,2.54-1.44,4.55-.94,6.52,1.89.61.87.92,1.14,2,.82,2.33-.66,3.08.9,2.93,2.83C-1310.26,592.08-1310.74,594.16-1311.09,596.26Z" transform="translate(1734.29 -440.44)"/>
    <path class="cls-19" d="M-1551.87,487.52c-8.22.8-16.08-.54-24.08-.53C-1568.85,480.19-1558.31,479.49-1551.87,487.52Z" transform="translate(1734.29 -440.44)"/>
    <path class="cls-25" d="M-1447.74,544.43l-3.89,3.23c-.11,0-.25,0-.32-.06-1.8-1.66-4.84-3.78-4.48-5.42.6-2.72,4.06-4.11,6.19-6.2.84-.83,1.39-.08,1.89.51,1.21,1.45,2.72,2.64,3.64,4.34C-1445.25,542.42-1446.67,543.28-1447.74,544.43Z" transform="translate(1734.29 -440.44)"/>
    <path class="cls-26" d="M-1546.83,584.17c1.66-5.73,3-11.5,2.74-17.53l1.35-2c.23,6.52-1.27,12.85-2.24,19.24q-2.2,14.53-4.53,29c-.7,4.4-1.62,8.76-1.9,13.21.55,1.89.26,3.4-1.87,4-1-.68-.92-1.72-.75-2.7,1.18-6.54,1.77-13.18,3.2-19.68,1.9-6.43,1.71-13.18,3-19.71C-1547.57,586.75-1547.93,585.27-1546.83,584.17Z" transform="translate(1734.29 -440.44)"/>
    <path class="cls-27" d="M-1546.83,584.17c0,1.32,0,2.65,0,4-1.83-.15-1.77-1.81-2.14-2.94-2.21-6.8-6.31-12.35-11.21-17.4-9.28-8.35-20.51-12.56-32.4-15.45-1.3-.31-3,0-3.61-1.83a1.81,1.81,0,0,0,1.45-.64c13.86,2.65,26.59,7.71,37.12,17.45C-1552.76,572.14-1549.8,578.16-1546.83,584.17Z" transform="translate(1734.29 -440.44)"/>
    <path class="cls-28" d="M-1474.51,507.13c4.21,4.78,4.21,4.78-.47,9-2.86,2.58-2.86,2.58-5.44-.25-.75-.82-1.48-1.66-2.22-2.49C-1480,511.2-1478.06,508.14-1474.51,507.13Z" transform="translate(1734.29 -440.44)"/>
    <path class="cls-29" d="M-1471.19,544.35c2.15-1.35,4.34-1.88,6.36.13s1.61,4.39.19,6.65c-2.31,1.35-4.6,1.81-6.64-.42S-1472.64,546.45-1471.19,544.35Z" transform="translate(1734.29 -440.44)"/>
    <path class="cls-30" d="M-1487.23,526.28c4-1.8,6.84-.83,7.65,2.56.45,1.87-.57,3.16-1.53,4.51-2.26,1.22-4.46,1.41-6.3-.7S-1488.63,528.36-1487.23,526.28Z" transform="translate(1734.29 -440.44)"/>
    <path class="cls-16" d="M-1627.68,562.56l.66-.75c1.14-.07,1.51.85,1.9,1.61,6.84,13.38,17.83,22.47,30.68,29.62,3,1.4,6.12,2.41,8.71,4.5a1.33,1.33,0,0,1-.12,1.43c-3.6-1.12-6.79-3.12-10.21-4.63C-1609.67,586.8-1621,577-1627.68,562.56Z" transform="translate(1734.29 -440.44)"/>
    <path class="cls-31" d="M-1654,617.83c1-1.09,2.37-.39,3.53-.69l5.21.11c4.51,1.11,9.16,1.46,13.71,2.45A107.43,107.43,0,0,1-1603.41,630c.08.69-.35,1-.91,1.16-1.43.2-2.59-.54-3.78-1.12-12.06-6-24.89-9.1-38.19-10.56C-1648.93,619.16-1651.69,619.44-1654,617.83Z" transform="translate(1734.29 -440.44)"/>
    <path class="cls-32" d="M-1320.79,607.1c4.39.67,6.23-2.49,8.2-5.45.29,2.85-.87,5.83.67,8.58-3.82,4.39-5.31,4.51-9.56.75A9,9,0,0,0-1320.79,607.1Z" transform="translate(1734.29 -440.44)"/>
    <path class="cls-33" d="M-1548.73,760.13a150.14,150.14,0,0,0-12.34-35.29c-1.33-2.67-2-5.7-4.42-7.78a7.44,7.44,0,0,1,.45-6.7c2.16.12,1.51,1.82,1.17,2.71-.74,1.95-.06,3.45.8,5.07a161.69,161.69,0,0,1,14.52,37.7,12,12,0,0,1,.35,4.3h-.26Z" transform="translate(1734.29 -440.44)"/>
    <path class="cls-34" d="M-1224.47,489.05c5-6.37,10.36-6.3,15.51-1.7.35.3.66.63.53,1.11s-.66.54-1.09.57-.89,0-1.34,0Z" transform="translate(1734.29 -440.44)"/>
    <path class="cls-35" d="M-1572.4,760.19a40.48,40.48,0,0,1,.06-7.86c2.09-1.88,4-1.3,5.9.36a5.92,5.92,0,0,0,3.16,5.8c.66.4,1.38.76,1.52,1.65-2.72-.32-5.75,1.23-8.1-1.33C-1570.44,759.75-1571,760.65-1572.4,760.19Z" transform="translate(1734.29 -440.44)"/>
    <path class="cls-36" d="M-1580,752.77a5.64,5.64,0,0,0,2.83,5.52c.73.47,1.55.86,1.85,1.78-2.66-.25-5.5,1.21-8-1-.32-.28-1.26,1.64-2.57,1.14a30.77,30.77,0,0,1,0-7.49A5,5,0,0,1-1580,752.77Z" transform="translate(1734.29 -440.44)"/>
    <path class="cls-34" d="M-1613.56,534.25a41,41,0,0,1,3.11-3.77c3.5-3.26,7.79-1.53,10,1.92,1,1.6-.36,1.85-1.6,1.85Z" transform="translate(1734.29 -440.44)"/>
    <path class="cls-37" d="M-1342.57,598.84c-1.62-.75-3.35-.45-5-.49-.1-2.36-1.12-4.92,1.38-6.76.78-.57,1-2,2.22-1.82,1.58.24.34,2,1.23,2.74.82.18.77-1.07,1.72-1C-1340.6,594.15-1342.37,596.35-1342.57,598.84Z" transform="translate(1734.29 -440.44)"/>
    <path class="cls-38" d="M-1089.25,685.93c-.57.66-.72,1.66-2.08,1.49a46.82,46.82,0,0,0-5.56-.13c1.11-2.37,3-.27,4.15-.89-8.23-.57-16.64-2.1-25.18-1.26-1.09.1-2.25.42-3.15-.58a1.8,1.8,0,0,0-1.47-.64c4.54-1.48,9.24-1.47,13.91-1.22A74.58,74.58,0,0,1-1089.25,685.93Z" transform="translate(1734.29 -440.44)"/>
    <path class="cls-39" d="M-1304.67,760.22c.08-.91.16-1.81.23-2.71a.89.89,0,0,1,1,.11c1.08,1.32,2.6.88,4,1,2,.09,3.94-.12,5.73.95.74.12.73.93,1.18,1.32-3.76,1.09-7.59.36-11.39.36C-1304.44,761.2-1304.53,760.62-1304.67,760.22Z" transform="translate(1734.29 -440.44)"/>
    <path class="cls-40" d="M-1635.73,507.3c3.89-3.37,6.81-3.46,10.63-.44C-1628.66,507.69-1632,507.06-1635.73,507.3Z" transform="translate(1734.29 -440.44)"/>
    <path class="cls-41" d="M-1207.41,636.67l-1.46,0a4.33,4.33,0,0,1-.85-2.13c-1-3.86-3.83-5.92-8.36-6.26-1.84-.14-3.8.42-5.48-.83v-.84l6,0c5.62,0,8.8,2.88,9.58,8.49A7.76,7.76,0,0,0-1207.41,636.67Z" transform="translate(1734.29 -440.44)"/>
    <path class="cls-42" d="M-1328.95,759.52l.84,1.35c-3.68.89-7.42.2-11.13.36-.63,0-1-.45-1.11-1l1.4-1.18C-1335.64,759.71-1332.25,758.79-1328.95,759.52Z" transform="translate(1734.29 -440.44)"/>
    <path class="cls-43" d="M-1125.66,655l.57.7a72.28,72.28,0,0,1-9.41,9.43l-.94-.12C-1133.14,660.74-1129.64,657.63-1125.66,655Z" transform="translate(1734.29 -440.44)"/>
    <path class="cls-9" d="M-1304.43,753.5l-3.75-11.47c-2.45-3-2.31-6.91-3.42-10.38a91.87,91.87,0,0,1-2.06-24.07c.23-6.24-1-12.25-2.85-19a36.07,36.07,0,0,0-1.88,11c-.1,5.38-.13,10.77,0,16.15a61.06,61.06,0,0,1-1.61,15c-1.31,3.78-1.38,8-4,11.31q-2.13,5.75-4.25,11.48c-3.22,2.17-6.5.32-9.69,0-1.3-.15-.59-2.09-.59-3.25.15-2.37.29-4.74.44-7.1.78-8.92,1.6-17.83,2.35-26.75,1.62-19.2,3.69-38.35,6.71-57.39.48-3-1-6.48,2.06-8.91,2.7,1.84,5.77,1.09,8.72,1.23,1.67.08,3.35.12,5,0,2.42-.11,3.83,1.36,5.71,2.62,4.83,3.23,4.69,7.92,5.18,12.61,0,.37,0,.75,0,.86,0-5.2-1.58-10.42-2.36-15.77-.08-1.58-1.06-3.17.06-4.73,1.7-1,1.86-2.46,1.57-4.33-.48-3.07-1.86-6-1.6-9.19a2.69,2.69,0,0,1,2.08-1,141.57,141.57,0,0,1,16.48.06c2.88.23,4.43,2.12,4.69,5.24s.1,6.28.11,9.42c0,9.53,0,19.07,0,28.6,0,6.24-1.59,7.8-7.73,7.87-1.8,0-3.59,0-5.39,0-4.4,0-4.75.31-4.33,4.55.51,5.13,1,10.27,1.56,15.39,1,8.46,1.39,17,2.3,25.44a6.16,6.16,0,0,1-.17,2.34,4.71,4.71,0,0,1-.6,1.13l.62,10c.11,2.75.08,5.51.38,8.23.25,2.2-.52,3.06-2.64,2.88C-1299.68,754.66-1302.07,754.9-1304.43,753.5Z" transform="translate(1734.29 -440.44)"/>
    <path class="cls-9" d="M-1344.78,635.4c-1.13,4-1.12,4,2.68,6,1.29.66,2.52,1.43,3.77,2.15q0,16-.07,32c0,5.4-1.67,7.09-7,7.09q-26.79,0-53.58,0c-4.88,0-6.66-1.8-6.67-6.72q0-17.68,0-35.37c0-5.34,1.73-7.1,7-7.11h46.84c1.34,0,2.69-.07,4-.11A2.56,2.56,0,0,1-1344.78,635.4Z" transform="translate(1734.29 -440.44)"/>
    <path class="cls-9" d="M-1484,637.46c.7-3.31,3.1-4.05,6-4.05h27.31c9,0,18,0,27,0,4.69,0,6.46,1.81,6.47,6.58q0,18,0,36.06c0,4.75-1.79,6.54-6.49,6.55q-27.13,0-54.28,0c-3,0-5.32-.74-6-4,.83-1.36.27-2.85.28-4.26.06-11.19,0-22.38,0-33.57C-1483.7,639.66-1483.43,638.51-1484,637.46Z" transform="translate(1734.29 -440.44)"/>
    <path class="cls-44" d="M-1458.34,742.6c.63-12.68-10-20.37-19.52-20.19a19.51,19.51,0,0,0-19,18.1c0,.56-.08,1.12-.13,1.68l-6.56-.17a38.79,38.79,0,0,1,7-16.92c9.84-13.08,34.13-12,42.06,5A48.86,48.86,0,0,1-1451,742C-1453.45,742.53-1456,741.63-1458.34,742.6Z" transform="translate(1734.29 -440.44)"/>
    <path class="cls-9" d="M-1517,742.08a3.46,3.46,0,0,1-3.56,2c-4.16-.06-8.31-.08-12.47,0-2.48,0-3.46-1.19-3.47-3.48,0-4.93,0-9.87,0-14.81,0-2.31,1.13-3.5,3.58-3.37,1.68.09,3.37,0,5.05-.07,2.12,0,4.25.07,6.38.09,3.89.05,4.35.52,4.38,4.54Q-1517,734.53-1517,742.08Z" transform="translate(1734.29 -440.44)"/>
    <path class="cls-2" d="M-1527.66,714.51c0-4.82-.61-9.64.32-14.43a13.36,13.36,0,0,1,1.93-.5c3.65-.39,4.24.16,4.26,3.92,0,2.78.05,5.56,0,8.34,0,1.36.58,3.27-1.32,3.68C-1524.21,715.9-1526.27,716.48-1527.66,714.51Z" transform="translate(1734.29 -440.44)"/>
    <path class="cls-45" d="M-1448.94,728.48a3.37,3.37,0,0,1-2-3.5c.06-4.94,0-9.87,0-14.8.06-3.07,1-3.92,4.13-3.93q12.78,0,25.57,0c3.93,0,4.65.8,4.66,4.75,0,4.59,0,9.19,0,13.79,0,1.81,0,3.77-2.68,3.7a1.61,1.61,0,0,1-.25-1.15c1.09-5.33.47-10.72.5-16.09,0-1.84-1.11-2.57-2.81-2.59-8-.1-15.93-.08-23.89,0-2.22,0-2.86,1.33-2.87,3.28,0,5.15-.09,10.31.14,15.47A2.53,2.53,0,0,1-1448.94,728.48Z" transform="translate(1734.29 -440.44)"/>
    <path class="cls-46" d="M-1355.86,618.43l4.78-1.9c1.57,0,2,1.15,2.44,2.3.87,2.39,1.7,4.79,2.55,7.19.38.67.9,1.31.66,2.17-2.08.47-3.74,1.34-3.67,3.85-.9.38-2.12,1.17-2.63-.06-1.82-4.33-4.53-8.38-4.6-13.31C-1356.31,618.32-1356.16,618.24-1355.86,618.43Z" transform="translate(1734.29 -440.44)"/>
    <path class="cls-45" d="M-1411.17,727.82a6.27,6.27,0,0,1-1.33-4.35c0-4.49,0-9,0-13.48,0-3,.81-3.72,3.87-3.73,8.87,0,17.75,0,26.62,0,2,0,3.61.66,3.66,2.57.14,6.35.95,12.74-.46,19.05-.6.36-1.16.47-1.57-.27-.37-4.92,0-9.86-.13-14.78-.1-3.77-.36-4.11-4-4.13-7.29,0-14.59.05-21.88,0-2.73,0-3.87,1-3.78,3.73.12,3.59.05,7.18,0,10.77a8.82,8.82,0,0,1-.6,4.28C-1410.88,727.53-1411,727.68-1411.17,727.82Z" transform="translate(1734.29 -440.44)"/>
    <path class="cls-47" d="M-1373.38,708.27c.35-2,1.91-2,3.36-2,9,0,18,0,27,0,2.2,0,3.36,1,3.37,3.25,0,5.51,0,11,0,16.52a2.3,2.3,0,0,1-1.37,2.46,4.17,4.17,0,0,1-.66-1c-.77-4.9-.2-9.83-.36-14.74-.12-3.75-.3-4-4-4-8.73,0-17.46-.15-26.19.12A2.74,2.74,0,0,1-1373.38,708.27Z" transform="translate(1734.29 -440.44)"/>
    <path class="cls-48" d="M-1355.86,618.43a.59.59,0,0,1-.47.24l-71.46-.11c-8.43,0-16.85-.07-25.28-.1l.67-.6q46.32,0,92.64.06C-1358.46,617.92-1357,617.46-1355.86,618.43Z" transform="translate(1734.29 -440.44)"/>
    <path class="cls-49" d="M-1345.51,628c-.34-.63-.81-1.22-.58-2a13,13,0,0,1,4.71,5.31c1.38,2.48.17,3.8-3.4,4.07l-3-2.1c-.22-.41-.44-.82-.67-1.23C-1348.61,629.89-1346.28,629.53-1345.51,628Z" transform="translate(1734.29 -440.44)"/>
    <path class="cls-50" d="M-1341,727.83c0,.21,0,.43,0,.64-9.72,0-19.44,0-29.17.09-2.47,0-3.34-.66-3.27-3.2.18-5.69.07-11.39.08-17.09h.65c1.27,1.25,1,2.88,1.07,4.42.06,3.57.08,7.15,0,10.72,0,2.46,1,3.37,3.41,3.35q11.22,0,22.46,0C-1344.13,726.77-1342.4,726.6-1341,727.83Z" transform="translate(1734.29 -440.44)"/>
    <path class="cls-51" d="M-1484,637.46c1.09,1,.61,2.33.62,3.5,0,10.44,0,20.88,0,31.32,0,1.67-.31,3.37.33,5,.35.9-.22,1.2-1,1.3-.52-6.23-.2-12.48-.2-18.72C-1484.19,652.4-1484.51,644.92-1484,637.46Z" transform="translate(1734.29 -440.44)"/>
    <path class="cls-52" d="M-1495.44,678.62c-.92-.61-.73-1.56-.73-2.44q0-17.83,0-35.66c0-.88-.18-1.83.74-2.44Q-1495.11,658.35-1495.44,678.62Z" transform="translate(1734.29 -440.44)"/>
    <path class="cls-53" d="M-1380.14,727.82h1.34c-.53.77-1.35.68-2.12.68h-28.14c-.77,0-1.59.11-2.11-.69h0a5.26,5.26,0,0,1,3.78-1.08c7.83,0,15.66,0,23.49,0C-1382.57,726.77-1381.18,726.72-1380.14,727.82Z" transform="translate(1734.29 -440.44)"/>
    <path class="cls-54" d="M-1448.94,728.48c0-.21,0-.43,0-.65,1-1.11,2.43-1.06,3.75-1.07q11.09-.09,22.17,0c1.34,0,2.72,0,3.75,1.1,0,.21,0,.42,0,.64Z" transform="translate(1734.29 -440.44)"/>
    <path class="cls-55" d="M-1326.92,650.18c-1.34,2.79-1.11,6-2.09,8.83-1.17-3.93-.21-8-.54-11.92l3,1.22A1.36,1.36,0,0,1-1326.92,650.18Z" transform="translate(1734.29 -440.44)"/>
    <path class="cls-56" d="M-1345.51,628c0,2.05-2.26,2.48-2.93,4l-.66,0c-.13-.42-.23-.84-.37-1.26-.36-1-.87-2.27,0-3.13,1.08-1.1,2,.27,2.9.66C-1346.1,628.52-1345.79,628.46-1345.51,628Z" transform="translate(1734.29 -440.44)"/>
    <path class="cls-12" d="M-1294,526.58a16,16,0,0,1,16.38-16,16.14,16.14,0,0,1,16.2,16.64,16.26,16.26,0,0,1-16.63,15.9A16,16,0,0,1-1294,526.58Z" transform="translate(1734.29 -440.44)"/>
    <path class="cls-9" d="M-1223.73,682.57c-12.58,0-25.16,0-37.74,0-3.86,0-5.19-1.41-5.2-5.36q0-19.2,0-38.4c0-4.06,1.38-5.41,5.5-5.42q18.71,0,37.4,0c1.34,1,1.21,2.54,1.22,4,0,5,.13,10,0,14.93.19,8.85.07,17.7.06,26.55C-1222.55,680.2-1222.6,681.57-1223.73,682.57Z" transform="translate(1734.29 -440.44)"/>
    <path class="cls-44" d="M-1267.54,742.6c-2.17-.94-4.49-.09-6.7-.58,1.35-8.28,4.33-15.66,11.18-21,10-7.84,31-7,38.19,10.09a60.06,60.06,0,0,1,3.11,10.92l-7.13.17c-.8-10.08-5.15-16-13.89-18.84-11.85-3.89-24.54,5.16-24.71,17.61C-1267.49,741.48-1267.52,742-1267.54,742.6Z" transform="translate(1734.29 -440.44)"/>
    <path class="cls-9" d="M-1206.12,724.82c6.29.38,6.29.38,6.29,6.64,0,3.71,0,7.41,0,11.12,0,3.42-.5,3.93-3.85,4-3.71.05-7.41,0-11.12,0s-3.87-.27-4.28-4c0-4.67.19-9.35.08-14-.06-2.61,1-3.61,3.53-3.54C-1212.35,725.05-1209.23,724.88-1206.12,724.82Z" transform="translate(1734.29 -440.44)"/>
    <path class="cls-5" d="M-1223.73,682.57q.09-15.15.19-30.29a7.68,7.68,0,0,1,7.93,0l.09,18.43c0,5.14.57,5.67,5.76,5.81.78,0,1.56.11,2.34.17a6.18,6.18,0,0,1-1.33,3c-3.12,4.76-5.85,5.79-12.07,4.54Z" transform="translate(1734.29 -440.44)"/>
    <path class="cls-57" d="M-1215.61,652.25l-7.93,0-.24-18.86.22-6c2.13,0,4.27-.11,6.39,0,5.3.26,8.54,3.9,8.3,9.22l-2,0c-4,.07-4.57.62-4.6,4.78Q-1215.54,646.87-1215.61,652.25Z" transform="translate(1734.29 -440.44)"/>
    <path class="cls-58" d="M-1208.18,705.25c0,.67,0,1.34,0,2,0,5.25-.45,5.59-5.82,5.22-1.8-.12-2.72-.91-2.75-2.63q-.09-4.85,0-9.71c0-1.88,1-2.86,3-2.71a18.44,18.44,0,0,0,2.68,0c2-.15,2.85,1,2.9,2.79C-1208.15,701.9-1208.18,703.57-1208.18,705.25Z" transform="translate(1734.29 -440.44)"/>
    <path class="cls-59" d="M-1305.15,628.67c.22-.45.45-.89.68-1.34,7.92,0,15.85,0,23.77,0,2.83,0,4.73,1,5.12,4.07-.57,1.65.06,3.3,0,5q-.06,44.63,0,89.26c0,1.43.34,2.94-.65,4.23,0,.23,0,.45,0,.67a.79.79,0,0,1-1.1-.37c-.94-1.91-.64-4-.64-6q0-43.28,0-86.54c0-1,0-2,0-3-.1-4.39-.48-4.81-4.85-4.84-6,0-11.91,0-17.86,0C-1302.26,629.73-1303.9,630-1305.15,628.67Z" transform="translate(1734.29 -440.44)"/>
    <path class="cls-60" d="M-1276.23,729.85q0-47.31,0-94.62c0-1.28-.54-2.72.62-3.83l0,1.35a5.93,5.93,0,0,1,.29,3q0,45.57,0,91.16c0,1,.25,2-.33,3h-.66Z" transform="translate(1734.29 -440.44)"/>
    <path class="cls-61" d="M-1275.57,729.85l0-97.1c1,.89.63,2.09.63,3.16q0,45.39,0,90.8C-1274.9,727.78-1274.5,729-1275.57,729.85Z" transform="translate(1734.29 -440.44)"/>
    <path class="cls-62" d="M-1276.94,730.51h.7c-.57,2.19-2.37,2-4,2-5.12,0-10.24,0-15.37,0a.71.71,0,0,1,0-.65,4,4,0,0,1,3.09-1C-1287.36,730.78-1282.14,731-1276.94,730.51Z" transform="translate(1734.29 -440.44)"/>
    <path class="cls-63" d="M-1220.82,684.16a9.56,9.56,0,0,1,2-.13c4.28.61,7.54-1.06,10.08-4.41-.54,3.28-2.94,4.45-5.8,5.15a17.6,17.6,0,0,1-4.32.56Z" transform="translate(1734.29 -440.44)"/>
    <path class="cls-64" d="M-1553,629.94a12.37,12.37,0,0,0,1.56-3.84c2.9-4.45,4.37-9.78,8.26-13.63l.69.61c.17,2.29-.73,4.78,1.26,6.73-1.69,1.57-4.27,2.46-4.22,5.39-1.61,3.45-2,7.26-3.16,10.86a10.79,10.79,0,0,1-3.61,5.43,1.47,1.47,0,0,1-2,0c-4.31-1.24-6.88-4.85-10.16-7.48a2.46,2.46,0,0,1-.82-2.07,23.4,23.4,0,0,0-1.6-9.26c.85-1.82,1.71-.53,2.44.07a75.16,75.16,0,0,1,7.15,6.9C-1555.73,631.23-1554.46,631.38-1553,629.94Z" transform="translate(1734.29 -440.44)"/>
    <path class="cls-24" d="M-1541.2,619.81c-3.07-1.92-3.07-1.92-1.26-6.73.9-2,2-4,2.68-6.12s2-2.37,3.88-1.5a11.56,11.56,0,0,0,1.84.81c2.13.62,2.57,1.81,1.6,3.79-1.18,2.41-2.19,4.9-3.3,7.33C-1537.45,621.06-1537.46,621.06-1541.2,619.81Z" transform="translate(1734.29 -440.44)"/>
    <path class="cls-12" d="M-1592,696.14v-.69c-1.69-2.3-1.59-5-1.63-7.62s0-5.51,0-8.27c0-.56,0-1.13.05-1.69.67-6.55.87-13.21,4.24-19.16.92-.93,1.66-2.24,2.69-2.8,1.56-.85.23-1.52.27-2.25a1.45,1.45,0,0,1,1-1.63,3.14,3.14,0,0,1,1.1.1c4.63,1.2,9.34.34,14,.55,1.1.05,2.23-.43,3.27.28,1.42,9.38,1.91,18.84,2.39,28.3.09,1.82-1.27,3.71.25,5.46a52.63,52.63,0,0,1,.11,18.14c-.16,4.72-.16,4.72-5,4.73-5.17,0-10.34,0-15.5,0-1.09,0-2.27-.34-3.2.59-1.68,0-1.82-1.13-2-2.43C-1590.59,703.88-1591.31,700-1592,696.14Z" transform="translate(1734.29 -440.44)"/>
    <path class="cls-1" d="M-1566.36,622c2.35,3.73,2.22,7.87,2,12-3,3.7-3.76,8-3.4,12.6.14,1.76-.29,3-2.06,3.55-4,2.35-8.25,1.4-12.45.69-2.53-.8-2.44-3.09-2.9-5.06-.16-.7-.26-1.4-.35-2.1-.65-5.12-3.4-9.5-5-14.28a2.43,2.43,0,0,1,.28-1.6c2-3.06,1.72-5.73-1.21-8l5.58-2.65a2.32,2.32,0,0,1,2.65-.9,40,40,0,0,1,3.53,3.94c1.26,1.32,2.75,2.48,4.66,1.76s1.62-2.43,1.63-4a1.76,1.76,0,0,1,.29-.94c2-.7,3.42.77,5,1.54A4.06,4.06,0,0,1-1566.36,622Z" transform="translate(1734.29 -440.44)"/>
    <path class="cls-65" d="M-1580,752.77l-5.88-.06c-.84-8.77-1.77-17.52-2.5-26.29a67.32,67.32,0,0,1,.58-16c3.79,0,7.6-.7,11.34.46a5.78,5.78,0,0,1,0,7c-1.69,4-1.36,8.32-1.79,12.48C-1579.1,737.8-1580,745.26-1580,752.77Z" transform="translate(1734.29 -440.44)"/>
    <path class="cls-66" d="M-1576.54,717.87c0-2.34,0-4.69,0-7,3.77-1.29,7.63-.45,11.46-.48-.07,2.24.27,4.5-.45,6.7l-1,35.63a24.82,24.82,0,0,0-5.9-.36q-1.94-15.06-3.86-30.13C-1576.39,720.76-1576.43,719.31-1576.54,717.87Z" transform="translate(1734.29 -440.44)"/>
    <path class="cls-67" d="M-1582.45,650.19a53,53,0,0,0,12.65,0c1.38,0,2.34.37,2.09,2-5.84,1.91-11.68,1.4-17.53.06h0C-1585.79,649.63-1584.27,649.71-1582.45,650.19Z" transform="translate(1734.29 -440.44)"/>
    <path class="cls-68" d="M-1554.18,641.53l2,0c.43,5.49,4.09,8.69,8.59,10.56a24.6,24.6,0,0,0,15.71.91v2c-2.45-1.24-5.1-.77-7.61-.6C-1545.28,655.06-1551.54,650.12-1554.18,641.53Z" transform="translate(1734.29 -440.44)"/>
    <path class="cls-69" d="M-1564.27,704.86q0-9.08-.11-18.14c0-.11.05-.22.09-.33.12-.31.58-.51.55-.19-.15,2.15.74,4.16.74,6.26,0,5,0,10,0,15.32C-1564.1,706.89-1563.22,705.44-1564.27,704.86Z" transform="translate(1734.29 -440.44)"/>
    <path class="cls-70" d="M-1585.24,652.29c3.11,0,6.13.92,9.27.72,2.77-.17,5.55,0,8.26-.78l.69.73c-5.28,1.36-10.64.67-16,.54A2.51,2.51,0,0,1-1585.24,652.29Z" transform="translate(1734.29 -440.44)"/>
    <path class="cls-71" d="M-1328.95,759.52c-3,1.3-6.21.59-9.33.52-.48,0-.56-.6-.67-1,2-.72,2.34-3.09,4.1-4,2,1.14,4.61,1.12,6.19,3.12Z" transform="translate(1734.29 -440.44)"/>
    <path class="cls-72" d="M-1328.66,758.09a1.37,1.37,0,0,0-1.67-.74c-2.2.46-3.45-.76-4.52-2.38a1.2,1.2,0,0,0-1.25-.86c-3.34.28-3.27-1.53-2.41-3.86-.35,2.77.86,3.69,3.58,3.39,2.21-.24,4.46-.08,6.7-.1C-1328.49,755.05-1327.67,756.65-1328.66,758.09Z" transform="translate(1734.29 -440.44)"/>
    <path class="cls-8" d="M-1359.13,581.57c-5.6-5.94-11.18-11.89-16.82-17.79-1.18-1.24-.42-2,.46-2.75,5.16-4.64,10.2-9.42,15.54-13.83,2.47-2,4.17-5,7.38-6.16C-1354.69,554.56-1356.51,568.13-1359.13,581.57Z" transform="translate(1734.29 -440.44)"/>
    <path class="cls-73" d="M-1527.26,634c.93.76.71,1.83.71,2.82q0,21.75,0,43.5c0,.32-.11.63-.72.94V634Z" transform="translate(1734.29 -440.44)"/>
    <path class="cls-20" d="M-1276.94,730.51a6.11,6.11,0,0,1-4.31,1.39c-4.8-.09-9.61,0-14.41,0-1.47-15.74-2.89-31.49-4.46-47.22-.18-1.8.35-2.11,1.9-2.08,3.7.06,7.41,0,11.11,0s4.73-1.12,4.73-4.55q.06-20,0-40.06c0-3.45-1.17-4.54-4.74-4.56-5.84,0-11.67,0-17.51,0-.86-1.52-1.8-3-.53-4.77h23.58c4.47,0,4.66.19,4.67,4.82q0,14.14,0,28.29Q-1276.91,696.16-1276.94,730.51Z" transform="translate(1734.29 -440.44)"/>
    <path class="cls-74" d="M-1326.92,650.18l.34-1.87c3.88,1.56,7.69,2.41,11.13-1,.75-.74,1.68-.39,2.54-.4,2.77,0,5.54,0,8.32,0,0,1.59,1,3,.69,4.65-1.4,1.27-3,1-4.69.73a25.19,25.19,0,0,0-9.48-.06c-2.22,0-4.44-.07-6.65,0C-1326.33,652.39-1326.92,651.65-1326.92,650.18Z" transform="translate(1734.29 -440.44)"/>
    <path class="cls-75" d="M-1329.54,636l-9-4.29c3.89-2.12,7.3-4.1,10.82-5.87,1.86-.94,1.32.65,1.32,1.56C-1329,629.66-1328.13,633.24-1329.54,636Z" transform="translate(1734.29 -440.44)"/>
    <path class="cls-76" d="M-1319.72,640.54a9.5,9.5,0,0,1-5.39-2.33c2.37,1,3.2-.27,4-2.07,2.18-4.65,4.55-9.21,6.88-13.79a5.51,5.51,0,0,1,2.55-3.17L-1316,628c-1.4,2.8-2.76,5.61-4.21,8.38C-1321,637.87-1321.87,639.26-1319.72,640.54Z" transform="translate(1734.29 -440.44)"/>
    <path class="cls-77" d="M-1326.29,628.73c.37,2.15.06,4.34.55,6.51.59,2.59-.68,2.59-2.45,1.41-1.11-1.83-.73-3.84-.51-5.76A2.16,2.16,0,0,1-1326.29,628.73Z" transform="translate(1734.29 -440.44)"/>
    <path class="cls-78" d="M-1326.29,628.73c-1.82.89-2,2.48-1.91,4.25.06,1.22,0,2.45,0,3.67l-1.35-.68c0-1.22,0-2.44,0-3.66a4.73,4.73,0,0,1,3.17-4.94Z" transform="translate(1734.29 -440.44)"/>
    <path class="cls-79" d="M-1591.45,619.82c3.81,1.59,4.6,3.71,2.63,7.18-.43.77-1.17,1.37-1.18,2.34-1.16,2.28-3.12,3.87-4.84,5.67-.55.54-1.1,1.09-1.64,1.65-1.82,1.48-2,3-.32,4.79,3.1,3.36,5.6,7.27,9.25,10.14a5.66,5.66,0,0,1,1.57,2.13c.62.74,1.25,1.47,2,2.37-1.15.36-3-.81-2.68,1.61.12.92-1.2.64-1.87.92a2.72,2.72,0,0,1-3.84-.91c-2.79-4.56-7.47-6.94-11.38-10.21-6.55-5.46-6.71-10.77-.38-16.73l.72-.75a101.62,101.62,0,0,1,8.3-8A7.35,7.35,0,0,1-1591.45,619.82Z" transform="translate(1734.29 -440.44)"/>
    <path class="cls-80" d="M-1583.22,616.52l-2.65.65,0-18.2,0-1.27c-.68-.92-.8-1.72.5-2.19,1.61,1.66.77,3.83,1.21,5.73-.75,2.65,1.55,3.58,2.86,5.09a21.32,21.32,0,0,1,.3,6.57C-1581,614.49-1581.37,616-1583.22,616.52Z" transform="translate(1734.29 -440.44)"/>
    <path class="cls-81" d="M-1467.83,741.93a9.7,9.7,0,0,1-9.71,9.5,9.72,9.72,0,0,1-9.83-9.78,10,10,0,0,1,9.95-9.75A9.73,9.73,0,0,1-1467.83,741.93Z" transform="translate(1734.29 -440.44)"/>
    <path class="cls-82" d="M-1258,741.82a9.68,9.68,0,0,1,9.66-9.92,10.05,10.05,0,0,1,9.88,9.84c.12,5.2-4.48,9.68-10,9.69A9.65,9.65,0,0,1-1258,741.82Z" transform="translate(1734.29 -440.44)"/>
    <path class="cls-83" d="M-1473.17,467.53a9.56,9.56,0,0,1-9.71-9.84,9.74,9.74,0,0,1,9.82-9.79,10,10,0,0,1,9.85,9.89A9.9,9.9,0,0,1-1473.17,467.53Z" transform="translate(1734.29 -440.44)"/>
    <path class="cls-84" d="M-1451.9,532.52c.11.9-6.93,7.19-7.47,6.73a38.12,38.12,0,0,1-3.2-3.39c-3.88-4.26-3.88-4.26.33-8.06,3.47-3.13,3.47-3.12,6.63.53C-1454.37,529.77-1453.1,531.17-1451.9,532.52Z" transform="translate(1734.29 -440.44)"/>
    <path class="cls-10" d="M-1468.34,528.81c-.24-.07-.52-.07-.64-.21-2.1-2.33-4.24-4.61-6.22-7-.66-.82.4-1.37.94-1.86,1.47-1.38,3-2.67,4.47-4.06,1.06-1,1.88-1.32,3,.06,1.52,1.92,3.22,3.72,4.92,5.5.8.85.8,1.42-.1,2.18-1.88,1.58-3.69,3.25-5.54,4.88A7,7,0,0,1-1468.34,528.81Z" transform="translate(1734.29 -440.44)"/>
    <path class="cls-85" d="M-1304.43,753.5l7.16.17-.67,1.4c-1,3.3-2.45,3.9-6,2.42h-.27l-.27,0Z" transform="translate(1734.29 -440.44)"/>
    <path class="cls-86" d="M-1303.9,757.49c2.14-.41,4.85.54,6-2.42.73,2.11,3.08,2.7,4.2,4.45-2.67,0-5.33-.06-8,0C-1303.26,759.6-1304.06,759.12-1303.9,757.49Z" transform="translate(1734.29 -440.44)"/>
    <path class="cls-87" d="M-1324,742.06l3.09-11.07c3.32,1.14,6.83,0,10.17.88q1.28,5.08,2.54,10.16Z" transform="translate(1734.29 -440.44)"/>
    <path class="cls-12" d="M-1142.66,710.28c10.7-10.36,23.09-17.67,37.74-20.88a66.46,66.46,0,0,1,17.74-1.28c3.3.16,3.53.6,2.07,3.56-7.34,14.86-19.15,24.27-35,28.82a108.1,108.1,0,0,1-15.07,3.33c-1.17.55-2.56.42-2.92-.7C-1139.5,718.8-1142.21,714.94-1142.66,710.28Z" transform="translate(1734.29 -440.44)"/>
    <path class="cls-12" d="M-1121.07,684.56c11.42-1.18,19.43-.66,29,1.89-1.57.74-3.41-.32-4.87.84-11.53.31-21.75,4.62-31.49,10.36-5.42,3.19-10.09,7.38-15,11.18-2.44-1.94-5.18-3.65-5.28-7.28C-1141.63,692.41-1132.56,686.52-1121.07,684.56Z" transform="translate(1734.29 -440.44)"/>
    <path class="cls-5" d="M-1142.66,710.28c1.92,3.77,3.85,7.55,4.74,11.72.34,1.62,1.45,1.78,2.73,1.83l-15.26,3.28a50.05,50.05,0,0,0-9.48,3.46A92.58,92.58,0,0,1-1142.66,710.28Z" transform="translate(1734.29 -440.44)"/>
    <path class="cls-7" d="M-1148.7,701.55c1,3,4.12,4.42,5.28,7.28a6.91,6.91,0,0,1-.9,1.37,133.07,133.07,0,0,0-18.18,21.46c-.16.22-.5.31-1.3.78C-1160.11,721.08-1156,710.56-1148.7,701.55Z" transform="translate(1734.29 -440.44)"/>
    <path class="cls-12" d="M-1125.66,655l-9.78,10q-6.27,5.24-12.53,10.47-10.23,8.56-20.45,17.16c-2.17.29-4.52,1.44-6-1.28,10.64-25.6,27.1-45.43,54.22-54.73a11.1,11.1,0,0,0,1.21-.57c1.33.05,2.46-1.06,4-.67,0,3.1-1.27,5.8-2.68,8.46C-1119.83,647.92-1122.81,651.41-1125.66,655Z" transform="translate(1734.29 -440.44)"/>
    <path class="cls-12" d="M-1173.65,655.77c10.17-12.79,23.87-18.6,39.72-20.46a114.78,114.78,0,0,1,11.71-.59c.83,0,1.83-.36,2.4.67-8.61,2.17-16.2,6.49-23.25,11.69-14.36,10.59-24.14,24.77-31.36,40.87-.42.91-.88,1.81-1.32,2.71-1.67-.14-1.45-1.52-1.52-2.52a43.17,43.17,0,0,0-2.66-11.45,9.63,9.63,0,0,1-.55-6.24C-1179.24,665.08-1176.46,660.42-1173.65,655.77Z" transform="translate(1734.29 -440.44)"/>
    <path class="cls-7" d="M-1180.48,670.45c-.11,2.42,1,4.54,1.74,6.74,1.29,3.91,2.53,7.81,2.38,12a1.56,1.56,0,0,0,.61,1.47l-6.08,17-.43,0a55.32,55.32,0,0,1-.81-6.23c-.13-6.22-1.23-12.41-.09-18.66C-1182.4,678.61-1182,674.41-1180.48,670.45Z" transform="translate(1734.29 -440.44)"/>
    <path class="cls-14" d="M-1174.47,691.35c1.77,1.58,4.21,0,6,1.28l-10.79,11.8A65.63,65.63,0,0,1-1174.47,691.35Z" transform="translate(1734.29 -440.44)"/>
    <path class="cls-5" d="M-1657.51,727.72c12.86-4.92,25.74-6.54,38.54.13a32.75,32.75,0,0,1,11.8,11c-2.62,1.55-5.44,1.2-8.09.93-10.57-1.09-20.91-3.48-31.31-5.51-4-.79-8.16-1.24-12.25-1.85C-1659.64,730.53-1657.81,729.33-1657.51,727.72Z" transform="translate(1734.29 -440.44)"/>
    <path class="cls-5" d="M-1637.26,711.74c12.88.73,23.22,10.78,27.52,21.34a68.08,68.08,0,0,0-8.48-6.23c-9.22-5.12-19-5.34-29-3.42-2.3.44-4.55,1.1-6.83,1.65-.34-1.35.67-2.07,1.43-2.82C-1648.13,717.86-1643.2,714.05-1637.26,711.74Z" transform="translate(1734.29 -440.44)"/>
    <path class="cls-88" d="M-1637.26,711.74c-1.85,2.17-4.6,3-6.85,4.58a50.13,50.13,0,0,0-10,8.76,129.46,129.46,0,0,0-20.56,9C-1669.49,723.46-1652.65,710.49-1637.26,711.74Z" transform="translate(1734.29 -440.44)"/>
    <path class="cls-89" d="M-1657.51,727.72c1.13,2-1.21,3.06-1.31,4.73h-9.82A50.93,50.93,0,0,1-1657.51,727.72Z" transform="translate(1734.29 -440.44)"/>
    <path class="cls-5" d="M-1592.67,679.25c.07,5.41-.3,10.83.69,16.2-8.12-4.1-16.83-6.57-25.46-9.23-14-4.31-28-8.28-42-12.48-1.14-.34-2.48-.22-3.43-1.16,0-3.82-.63-7.59-.91-11.39-.54-7.07,1.47-13.79,2.65-20.62.8-1.42,1.93-.72,2.94-.41,22.36,6.87,42.61,17.54,60,33.36C-1596.24,675.31-1593.82,676.67-1592.67,679.25Z" transform="translate(1734.29 -440.44)"/>
    <path class="cls-12" d="M-1660.84,640.22c1.43,2.27-.13,4.3-.64,6.34-2,8-1.47,16.07-.46,24.13.13,1,.33,1.73-1,1.89a208.93,208.93,0,0,1-40.86-17,108.18,108.18,0,0,1-27.66-21.68c-.44-.47-.85-1-1.47-1.67l1.92-.24c2.6-1.44,5.43-.74,8.16-.85,2.54-.09,5.09,0,7.64,0,17.36.48,34.5,2.57,51.26,7.34C-1662.72,638.78-1661.47,639-1660.84,640.22Z" transform="translate(1734.29 -440.44)"/>
    <path class="cls-12" d="M-1654,617.83l8,.8c1,1.62-.34,2.52-1.23,3.37a46.38,46.38,0,0,0-10.34,15.08c-.79,1.76-1.9,2.7-3.9,2.28a199.6,199.6,0,0,0-35.79-6.76c-3.66-.35-7.38-.16-11-1.05-6-.4-12,0-18-.23-1.06,0-2.78.9-3.11-1.24,7.25-2.24,14.41-4.81,21.79-6.64a216.11,216.11,0,0,1,28.37-5C-1670.84,617.55-1662.45,618.06-1654,617.83Z" transform="translate(1734.29 -440.44)"/>
    <path class="cls-90" d="M-1729.4,630.08c.87,1.1,2.08.55,3.13.57,4.93.07,9.86,0,14.79.1,1.2,0,2.48-.29,3.57.56-2.2,1-4.6-.13-6.82.67H-1731C-1730.48,631.31-1730.41,630.31-1729.4,630.08Z" transform="translate(1734.29 -440.44)"/>
    <path class="cls-88" d="M-1188.54,599.4a23.8,23.8,0,0,1-9.88,4.94c-8.26,2.1-16.78,2.68-25.16,4.11-2.07.36-4.13.83-6.33,1.27C-1221.29,600.79-1203.19,594.3-1188.54,599.4Z" transform="translate(1734.29 -440.44)"/>
    <path class="cls-88" d="M-1192.55,596.74c-15.89-2.54-28.87,3.79-40.9,13.54C-1227.33,593.57-1211.25,584.86-1192.55,596.74Z" transform="translate(1734.29 -440.44)"/>
    <path class="cls-12" d="M-1594.68,593.54a73.33,73.33,0,0,1-14.77-9.62c-7.56-6-13.07-13.66-17.57-22.11a60.49,60.49,0,0,1-3.86-13.17,97,97,0,0,1,16.45,4.62A157.44,157.44,0,0,1-1576.64,573a7.7,7.7,0,0,1,.93,1c.32,1.1-.45,1.68-1.19,2.15-6.33,4-11.17,9.5-15.58,15.44C-1593.06,592.37-1593.58,593.3-1594.68,593.54Z" transform="translate(1734.29 -440.44)"/>
    <path class="cls-5" d="M-1594.68,593.54c4.37-6.54,9.24-12.62,15.89-17,1.09-.72,2.47-1.17,3.08-2.5,9.51,6.54,17.53,14.65,24.8,23.55.53.66.78,1.6,2.56,1.78-7.18-10.42-16.17-18.31-25.42-25.94.66-1.73,2.24-2.45,3.74-3,3.36-1.32,6.62-3.08,10.4-3a42.23,42.23,0,0,1,11,16.22c.58,1.54.69,3.28,1.86,4.58-.89,6.07-1.79,12.14-2.66,18.21a2.44,2.44,0,0,1-.58,1.51h-.54c-4.69-.91-9.43-1.54-14.09-2.57a6.27,6.27,0,0,1-3.06-1.22c-1-1.24-.69-2.76-.86-4.19-.24-2.12-.52-4.26-1.94-6-1.14-1.37-2.84-2.44-4.43-1.77-3.37,1.42-7.39.69-10.34,3.31l-.51,2.25A49.25,49.25,0,0,1-1594.68,593.54Z" transform="translate(1734.29 -440.44)"/>
    <path class="cls-12" d="M-1559.63,567.34c-4.71,2-9.87,3-14.14,6-6.37-4.19-12.62-8.55-19.39-12.1a195.73,195.73,0,0,0-31.11-12.79c3.25,0,6.51-.12,9.75,0s6.46.56,9.69.91c2.88.32,5.76.72,8.65,1.09,4.06,1.11,8.16,2.11,12.19,3.35C-1574.95,556.67-1566.56,560.7-1559.63,567.34Z" transform="translate(1734.29 -440.44)"/>
    <path class="cls-5" d="M-1566.36,622c-.61-.9-1.23-1.8-1.84-2.71a1.82,1.82,0,0,1-.78-1.43c.33-4.21-.27-8.48.91-12.62a1.46,1.46,0,0,1,1.48-.57c5.45,1.19,11,1.83,16.44,3.09l.09.08q-1.65,10.29-3.32,20.59a1.37,1.37,0,0,0,.41,1.49c-1.61,3.46-1.59,3.44-4.31.79C-1560.29,627.8-1563.33,624.92-1566.36,622Z" transform="translate(1734.29 -440.44)"/>
    <path class="cls-5" d="M-1660.8,638.8c.75-.08,1.58.12,2-.88a48.94,48.94,0,0,1,12.45-18c.28-.26.26-.82.38-1.25a115.17,115.17,0,0,1,36.08,9.5c1.94.87,3.86,1.76,5.79,2.64-1.09,2.19-2.34,4.32-3.25,6.58-1.41,3.48-.74,5.62,2.22,7.95,2.64,2.08,5.26,4.18,8,6.13,1.94,1.38,3.79,2.82,4.82,5,.79,1.69,2.21,2,3.82,2.18-3,6.09-3.56,12.72-4.17,19.33-2-.25-2.84-2-4.13-3.13a158.66,158.66,0,0,0-52.61-31.51q-5-1.78-10.13-3.43C-1660.13,639.7-1661,639.91-1660.8,638.8Z" transform="translate(1734.29 -440.44)"/>
    <path class="cls-20" d="M-1310.72,731.87c-2.55,1-5.22.62-7.85.67a2.35,2.35,0,0,1-2.32-1.55c2-8.75,1.49-17.61,1.28-26.47a58.34,58.34,0,0,1,2.71-19,13.56,13.56,0,0,1,2.09,5.26,58.49,58.49,0,0,1,2.22,16.63A107,107,0,0,0-1310.72,731.87Z" transform="translate(1734.29 -440.44)"/>
    <path class="cls-91" d="M-1318.07,652.28c2-1.33,4.32-.5,6.48-.63,2.55-.16,5.12,0,7.69,0a87.64,87.64,0,0,1,1.93,13.76c.15,1.78,1.1,3.58.55,5.41l-.83.11c-.33-2.64-.78-5.26-.94-7.9s0-5.36-3.37-6.25c-.31-.08-.73-.3-.82-.56-1.81-5.26-6.23-3.76-10-3.89Z" transform="translate(1734.29 -440.44)"/>
    <path class="cls-92" d="M-1317.62,660.35c-.15,7.86,1.63,15.65.49,23.55C-1317,676-1318.81,668.24-1317.62,660.35Z" transform="translate(1734.29 -440.44)"/>
    <path class="cls-1" d="M-1419.28,727.86l-29.67,0a5.88,5.88,0,0,1-.69-2.89c0-4.81.05-9.62,0-14.44,0-1.89.57-2.94,2.67-2.93,8.84,0,17.68,0,26.53,0,1.61,0,2.53.63,2.53,2.36q0,7.72,0,15.45A2.41,2.41,0,0,1-1419.28,727.86Z" transform="translate(1734.29 -440.44)"/>
    <path class="cls-20" d="M-1380.14,727.82h-31c0-5.84.07-11.67,0-17.51,0-2,.52-2.79,2.64-2.77,8.87.09,17.74,0,26.61,0,1.31,0,2.51,0,2.5,1.86,0,5.61,0,11.22-.08,16.83A4.76,4.76,0,0,1-1380.14,727.82Z" transform="translate(1734.29 -440.44)"/>
    <path class="cls-1" d="M-1341,727.83c-9.5,0-19-.08-28.51,0-2.45,0-3.34-.61-3.25-3.19.18-5.47,0-11,0-16.42a6.32,6.32,0,0,1,3.57-.69c8.31,0,16.61.13,24.91-.06,2.81-.07,3.38,1,3.3,3.49C-1341.11,716.61-1341,722.22-1341,727.83Z" transform="translate(1734.29 -440.44)"/>
    <path class="cls-93" d="M-1660.8,638.8a177.11,177.11,0,0,1,30.68,12.27,153.66,153.66,0,0,1,35.9,25.58c.47.46,1,.87,1.52,1.3l0,1.3c-6.44-5.19-12.39-11-19.22-15.71a159,159,0,0,0-45.79-22.25c-1.07-.32-2-1.15-3.16-1.07a194.73,194.73,0,0,0-36.16-6.94c-5.9-.54-11.8-1.1-17.73-1.3,2.17-1.25,4.56-.23,6.82-.67C-1691.87,631.71-1676.24,634.66-1660.8,638.8Z" transform="translate(1734.29 -440.44)"/>
    <path class="cls-7" d="M-1586,653.72c-5.36-3.34-8.65-8.67-12.67-13.28-2-2.33.92-3.11,2-4.44a2.1,2.1,0,0,1,2.49.39c3.59,2.67,7.31,5.2,9.73,9.11,1.25,1.32-.36,3.87,2,4.69-1.41.06-2.72.27-2.79,2.1C-1585.86,652.58-1585.9,653.16-1586,653.72Z" transform="translate(1734.29 -440.44)"/>
    <path class="cls-94" d="M-1567.72,605.06l-.48,14.25c-1.65-.65-3-1.9-4.85-2.19-2.91-.32-3.08-2.17-2.49-4.45,1.74-1.78,4-3,4.52-5.95.77-4,.39-7.09-3.73-8.77-.5,4-4.9,5.7-9.75,3.77-1.49-1.93-.34-4.21-.82-6.27a2.93,2.93,0,0,1,3.4-2.89,7.94,7.94,0,0,0,5.17-1c3.53-1.64,7.22.36,8.36,4.19.78,2.61.35,5.32.69,8A.87.87,0,0,1-1567.72,605.06Z" transform="translate(1734.29 -440.44)"/>
    <path class="cls-95" d="M-1575.08,612.52c0,1.85,0,3.67,2,4.6,1,2,.81,4-.85,5.45-1.94,1.67-4,.37-5.42-.87-1.6-1.39-3.31-2.92-3.9-5.18,1.94-1.8,1.1-4.19,1.29-6.34.13-1.45,0-2.91,0-4.36-.11-.87.6-1.08.83-.5C-1579.85,608.4-1577.23,610.25-1575.08,612.52Z" transform="translate(1734.29 -440.44)"/>
    <path class="cls-96" d="M-1595.4,634.76c1.66-2,3.11-4.1,5.4-5.42,2.32,4.52,4.49,9.1,5.38,14.17-1.08.39-1.68-.4-2.28-1C-1589.57,639.73-1593.23,638.06-1595.4,634.76Z" transform="translate(1734.29 -440.44)"/>
    <path class="cls-97" d="M-1595.4,634.76q5.4,4.37,10.78,8.75l.14,2c-3.49-2.71-6.41-6.09-10.17-8.48a4.62,4.62,0,0,0-2-1A2.5,2.5,0,0,1-1595.4,634.76Z" transform="translate(1734.29 -440.44)"/>
    <path class="cls-98" d="M-1575.08,612.52c-3.21-1.26-5.68-3.19-6.28-6.85,0,0-.2-.09-.29-.06a.8.8,0,0,0-.25.21c-3.33-.35-3.74-1-2.6-4.1,2.59.44,5-.59,7.6-.73.79,0,2-.1.82-1.6-.58-.78.94-1.58,1-2.78,3.33,2,6.24,3.75,5.17,8.26C-1570.69,608.15-1570.65,611.78-1575.08,612.52Z" transform="translate(1734.29 -440.44)"/>
    <path class="cls-88" d="M-1477.71,749.46a7.81,7.81,0,0,1-7.63-8.09,7.81,7.81,0,0,1,7.94-7.45,7.73,7.73,0,0,1,7.59,7.77A7.65,7.65,0,0,1-1477.71,749.46Z" transform="translate(1734.29 -440.44)"/>
    <path class="cls-88" d="M-1248.43,749.45a7.58,7.58,0,0,1-7.61-7.76,7.69,7.69,0,0,1,7.66-7.76,7.76,7.76,0,0,1,7.83,8A7.75,7.75,0,0,1-1248.43,749.45Z" transform="translate(1734.29 -440.44)"/>
    <path class="cls-5" d="M-1478.55,460.19c-1.15-1.82-.86-3.57.13-5.35.72-1.27,1.48-2.07,3.17-1.68a15.09,15.09,0,0,0,4,.12c3-.12,4,.73,4.08,3.62,0,1.28.46,2.69-.55,3.84C-1471.37,461-1475,461.77-1478.55,460.19Z" transform="translate(1734.29 -440.44)"/>
    <path class="cls-99" d="M-1478.55,460.19c3.6.18,7.26-.76,10.81.55C-1471.59,465.27-1476,465.05-1478.55,460.19Z" transform="translate(1734.29 -440.44)"/>
    <path class="cls-100" d="M-1567.72,605.06l0-1.33c4.85,1.07,9.72,2.09,14.65,2.71,1.11.14,2.22.29,2.9,1.34C-1556.16,607.89-1561.85,605.88-1567.72,605.06Z" transform="translate(1734.29 -440.44)"/>
    <path class="cls-101" d="M-1423.52,716.37c-1.36-.36-2.5-1-2.35-2.65a2.09,2.09,0,0,1,2.45-2.09c1.52.12,2.66.9,2.65,2.38S-1422,716.25-1423.52,716.37Z" transform="translate(1734.29 -440.44)"/>
    <path class="cls-102" d="M-1384.66,711.34a1.9,1.9,0,0,1,2.07,2.19c-.13,1.11.19,2.93-2,2.83-1.69-.08-2.78-.87-3-2.57S-1386.24,711.69-1384.66,711.34Z" transform="translate(1734.29 -440.44)"/>
    <path class="cls-103" d="M-1343.71,713.75c-.34,1.61-1.17,2.57-2.71,2.55a2.46,2.46,0,0,1-2.61-2.46,2.5,2.5,0,0,1,2.59-2.81C-1344.5,710.91-1344.35,712.63-1343.71,713.75Z" transform="translate(1734.29 -440.44)"/>
  </g>
</svg>
