<svg id="Layer_2" data-name="Layer 2" xmlns="http://www.w3.org/2000/svg" viewBox="0 0 454 456.4">
  <defs>
    <style>
      .cls-1 {
        fill: #f5f5f5;
      }

      .cls-2 {
        fill: #ececec;
      }

      .cls-3 {
        fill: #e1e1e1;
      }

      .cls-4 {
        fill: #fff;
      }

      .cls-5 {
        opacity: 0.5;
      }

      .cls-6 {
        fill: #1a2e35;
      }

      .cls-7 {
        fill: #375a64;
      }

      .cls-8 {
        opacity: 0.3;
      }

      .cls-9 {
        fill: #ff735d;
      }

      .cls-10 {
        opacity: 0.1;
      }

      .cls-11 {
        opacity: 0.2;
      }

      .cls-12 {
        fill: none;
        stroke: #fbfbfb;
        stroke-miterlimit: 10;
      }

      .cls-13 {
        fill: #fafafa;
      }

      .cls-14 {
        fill: #8cce10;
      }

      .cls-15 {
        fill: #ffc19d;
      }

      .cls-16 {
        fill: #ff9c6a;
      }

      .cls-17 {
        opacity: 0.6;
      }

      .cls-18 {
        fill: #0a1033;
      }
    </style>
  </defs>
  <g>
    <g>
      <g>
        <path class="cls-1" d="M-2520.13,1286.37a34,34,0,0,1-28.82,38.6,34.22,34.22,0,0,1-39-28.47,34,34,0,0,1,28.82-38.6A34.22,34.22,0,0,1-2520.13,1286.37Z" transform="translate(2681.27 -1244.49)"/>
        <path class="cls-2" d="M-2528.2,1287.57a25.91,25.91,0,0,1-22,29.42,26.08,26.08,0,0,1-29.74-21.69,25.91,25.91,0,0,1,22-29.42A26.08,26.08,0,0,1-2528.2,1287.57Z" transform="translate(2681.27 -1244.49)"/>
        <path class="cls-3" d="M-2528.33,1286.77c-.16,0-.44-1.08-1.15-3a27.44,27.44,0,0,0-4.18-7.4,26.06,26.06,0,0,0-4.13-4.15,26.38,26.38,0,0,0-5.73-3.47,25.94,25.94,0,0,0-3.41-1.23,24.63,24.63,0,0,0-3.71-.76,26.53,26.53,0,0,0-3.91-.2,27.51,27.51,0,0,0-4,.4,29,29,0,0,0-3.9,1,25.14,25.14,0,0,0-3.59,1.57,24.58,24.58,0,0,0-3.19,2,23.29,23.29,0,0,0-2.75,2.35,25.74,25.74,0,0,0-4.12,5.25,26.21,26.21,0,0,0-2.38,5.33,27.23,27.23,0,0,0-1.26,8.39c0,2,.15,3.16,0,3.19s-.51-1.07-.77-3.15a23.79,23.79,0,0,1,.68-8.82,25.71,25.71,0,0,1,2.29-5.74,26.84,26.84,0,0,1,4.25-5.74,26.83,26.83,0,0,1,2.91-2.57,26,26,0,0,1,3.42-2.21,27.31,27.31,0,0,1,3.85-1.72,30.64,30.64,0,0,1,4.21-1.12,29.1,29.1,0,0,1,4.33-.42,26.73,26.73,0,0,1,4.22.25,25.31,25.31,0,0,1,4,.87,25.85,25.85,0,0,1,3.64,1.38,27,27,0,0,1,6,3.87,26.33,26.33,0,0,1,4.2,4.57,23.71,23.71,0,0,1,3.78,8C-2528.23,1285.59-2528.21,1286.75-2528.33,1286.77Z" transform="translate(2681.27 -1244.49)"/>
      </g>
      <path class="cls-3" d="M-2548.8,1306.28l.74,4.45-4,.66-.72-4.34c-4,.42-8-.19-10.52-1.54l1.39-5.21a16.66,16.66,0,0,0,8.26,1.55l-1.11-6.64c-4.63-.34-9.85-1-10.8-6.68-.71-4.22,1.78-8.34,8-10.1l-.74-4.41,4-.66.72,4.34a18.61,18.61,0,0,1,8.55,1.08l-1.19,5.22a16.9,16.9,0,0,0-6.48-1.06l1.13,6.76c4.62.3,9.76,1,10.7,6.58C-2540.18,1300.41-2542.63,1304.49-2548.8,1306.28Zm-6.95-16.92-.94-5.64c-2,.83-2.7,2.12-2.48,3.43S-2557.61,1289.1-2555.75,1289.36Zm8.5,8.45c-.23-1.39-1.52-2-3.35-2.27l.92,5.49C-2547.75,1300.26-2547,1299.09-2547.25,1297.81Z" transform="translate(2681.27 -1244.49)"/>
    </g>
    <g>
      <g>
        <path class="cls-1" d="M-2314.47,1470.78a20.87,20.87,0,0,1-17.69,23.69,21,21,0,0,1-24-17.47,20.87,20.87,0,0,1,17.69-23.69A21,21,0,0,1-2314.47,1470.78Z" transform="translate(2681.27 -1244.49)"/>
        <path class="cls-2" d="M-2319.43,1471.52a15.89,15.89,0,0,1-13.47,18,16,16,0,0,1-18.25-13.31,15.9,15.9,0,0,1,13.48-18.06A16,16,0,0,1-2319.43,1471.52Z" transform="translate(2681.27 -1244.49)"/>
        <path class="cls-3" d="M-2319.5,1471a8.84,8.84,0,0,1-.71-1.83,16.89,16.89,0,0,0-2.56-4.55,16.46,16.46,0,0,0-2.54-2.54,15.92,15.92,0,0,0-3.51-2.13,15.81,15.81,0,0,0-2.1-.75,14.06,14.06,0,0,0-2.27-.47,16,16,0,0,0-2.4-.13,19,19,0,0,0-2.47.25,18.63,18.63,0,0,0-2.39.63,16.11,16.11,0,0,0-2.2,1,14.41,14.41,0,0,0-2,1.23,14.74,14.74,0,0,0-1.69,1.44,16,16,0,0,0-2.53,3.23,16.74,16.74,0,0,0-1.46,3.26,16.67,16.67,0,0,0-.77,5.15,8.61,8.61,0,0,1,0,2,4.78,4.78,0,0,1-.47-1.93,14.66,14.66,0,0,1,.42-5.41,16,16,0,0,1,1.41-3.53,16,16,0,0,1,2.6-3.52,17.11,17.11,0,0,1,1.79-1.58,16,16,0,0,1,2.1-1.35,16.28,16.28,0,0,1,2.36-1.06,18.45,18.45,0,0,1,2.58-.68,17.23,17.23,0,0,1,2.66-.26,15.82,15.82,0,0,1,2.59.15,16,16,0,0,1,2.44.53,17,17,0,0,1,2.24.85,16.68,16.68,0,0,1,3.7,2.38,16.13,16.13,0,0,1,2.57,2.8,14.76,14.76,0,0,1,2.33,4.92A4.63,4.63,0,0,1-2319.5,1471Z" transform="translate(2681.27 -1244.49)"/>
      </g>
      <path class="cls-3" d="M-2332.07,1483l.46,2.73-2.46.4-.45-2.65a11.91,11.91,0,0,1-6.45-1l.85-3.2a10.21,10.21,0,0,0,5.07,1l-.68-4.07c-2.84-.21-6.05-.62-6.63-4.11-.43-2.58,1.09-5.11,4.91-6.19l-.45-2.71,2.46-.4.44,2.66a11.38,11.38,0,0,1,5.25.67l-.73,3.2a10.25,10.25,0,0,0-4-.65l.69,4.15c2.84.18,6,.59,6.57,4C-2326.78,1479.4-2328.28,1481.9-2332.07,1483Zm-4.26-10.38-.58-3.46c-1.25.5-1.65,1.29-1.52,2.1S-2337.47,1472.46-2336.33,1472.62Zm5.22,5.18c-.15-.85-.94-1.2-2.06-1.39l.56,3.37C-2331.42,1479.31-2331,1478.59-2331.11,1477.8Z" transform="translate(2681.27 -1244.49)"/>
    </g>
    <g>
      <g>
        <path class="cls-1" d="M-2611.87,1491.14a28.32,28.32,0,0,1-24,32.15,28.49,28.49,0,0,1-32.48-23.71,28.3,28.3,0,0,1,24-32.14A28.49,28.49,0,0,1-2611.87,1491.14Z" transform="translate(2681.27 -1244.49)"/>
        <path class="cls-2" d="M-2618.59,1492.15a21.57,21.57,0,0,1-18.29,24.49,21.7,21.7,0,0,1-24.75-18.06,21.58,21.58,0,0,1,18.28-24.5A21.72,21.72,0,0,1-2618.59,1492.15Z" transform="translate(2681.27 -1244.49)"/>
        <path class="cls-3" d="M-2618.7,1491.48a13.25,13.25,0,0,1-1-2.48,23,23,0,0,0-3.47-6.17,22.38,22.38,0,0,0-3.44-3.45,21.91,21.91,0,0,0-4.77-2.88,19.92,19.92,0,0,0-2.84-1,20.88,20.88,0,0,0-3.09-.63,20.64,20.64,0,0,0-3.26-.17,22.51,22.51,0,0,0-3.34.34,23,23,0,0,0-3.24.85,22.3,22.3,0,0,0-3,1.3,21,21,0,0,0-2.66,1.68,20.79,20.79,0,0,0-2.29,2,21.49,21.49,0,0,0-3.43,4.38,22.09,22.09,0,0,0-2,4.43,22.65,22.65,0,0,0-1.05,7,12.47,12.47,0,0,1,0,2.65,6.43,6.43,0,0,1-.63-2.61,19.55,19.55,0,0,1,.56-7.35,21.55,21.55,0,0,1,1.91-4.78,21.73,21.73,0,0,1,3.54-4.77,20.16,20.16,0,0,1,2.42-2.15,22.69,22.69,0,0,1,2.84-1.84,23.2,23.2,0,0,1,3.21-1.43,25.36,25.36,0,0,1,3.5-.93,23.46,23.46,0,0,1,3.61-.35,21.43,21.43,0,0,1,3.51.21,21,21,0,0,1,3.32.72,22.32,22.32,0,0,1,3,1.15,22.64,22.64,0,0,1,5,3.22,22.18,22.18,0,0,1,3.49,3.81,19.55,19.55,0,0,1,3.15,6.67A6.19,6.19,0,0,1-2618.7,1491.48Z" transform="translate(2681.27 -1244.49)"/>
      </g>
      <path class="cls-3" d="M-2635.74,1507.72l.62,3.71-3.34.54-.61-3.6a16.11,16.11,0,0,1-8.75-1.29l1.16-4.34a13.71,13.71,0,0,0,6.87,1.29l-.92-5.53c-3.86-.28-8.2-.83-9-5.56-.58-3.51,1.49-6.94,6.66-8.4l-.61-3.68,3.34-.54.6,3.6a15.44,15.44,0,0,1,7.12.91l-1,4.35a14.07,14.07,0,0,0-5.4-.89l.94,5.63c3.85.25,8.13.81,8.91,5.47C-2628.56,1502.84-2630.6,1506.23-2635.74,1507.72Zm-5.79-14.08-.78-4.7c-1.7.69-2.25,1.76-2.06,2.86S-2643.07,1493.42-2641.53,1493.64Zm7.08,7c-.19-1.16-1.27-1.62-2.79-1.89l.77,4.57C-2634.86,1502.71-2634.27,1501.73-2634.45,1500.67Z" transform="translate(2681.27 -1244.49)"/>
    </g>
    <g>
      <path class="cls-3" d="M-2275.2,1421.52l-174.4-53.8a8.42,8.42,0,0,1-5.59-10.55l33.53-106.76a8.52,8.52,0,0,1,10.64-5.54l174.41,53.8a8.4,8.4,0,0,1,5.58,10.54L-2264.56,1416A8.52,8.52,0,0,1-2275.2,1421.52Z" transform="translate(2681.27 -1244.49)"/>
      <g>
        <path class="cls-4" d="M-2426.93,1326.17l-3.3,10.49-1.09-.33,3-9.53-2.5-.77.3-1Z" transform="translate(2681.27 -1244.49)"/>
        <path class="cls-4" d="M-2419,1339.06l-.3,1-7.43-2.29.24-.77,5.74-2.91c1.56-.8,2-1.43,2.24-2.15.38-1.22-.25-2.23-1.86-2.73a3.81,3.81,0,0,0-3.26.28l-.56-.9a5,5,0,0,1,4.22-.34c2.14.66,3.17,2.16,2.62,3.91-.32,1-.92,1.81-2.77,2.75l-4.7,2.39Z" transform="translate(2681.27 -1244.49)"/>
        <path class="cls-4" d="M-2407.34,1340.7l-2.12-.65-.86,2.75-1.09-.33.87-2.76-6-1.84.24-.78,7.79-5.22,1.21.37-7.54,5.1,4.6,1.42.76-2.43,1.06.33-.76,2.43,2.11.65Z" transform="translate(2681.27 -1244.49)"/>
        <path class="cls-4" d="M-2391.12,1345.7l-2.12-.65-.86,2.76-1.09-.34.87-2.76-6-1.84.25-.78,7.79-5.22,1.21.37-7.54,5.1,4.6,1.42.76-2.42,1.06.32-.77,2.43,2.12.65Z" transform="translate(2681.27 -1244.49)"/>
        <path class="cls-4" d="M-2381.77,1348.22c-.56,1.79-2.25,2.79-4.84,2a5.76,5.76,0,0,1-3.37-2.52l.8-.69a4.81,4.81,0,0,0,2.87,2.21c1.8.56,3,0,3.42-1.29s-.16-2.45-2.85-3.28l-2.25-.69,2.2-5.1,5.79,1.79-.3,1-4.84-1.49-1.41,3.23,1.36.42C-2382,1344.75-2381.18,1346.37-2381.77,1348.22Z" transform="translate(2681.27 -1244.49)"/>
        <path class="cls-4" d="M-2371.29,1351.41c-.62,2-2.57,2.74-4.63,2.1-2.81-.86-3.73-3.27-2.69-6.58,1.12-3.56,3.67-4.82,6.54-3.93a5.07,5.07,0,0,1,2.33,1.34l-.71.74a3.88,3.88,0,0,0-1.9-1.13c-2.28-.71-4.21.29-5.1,3.14a6.86,6.86,0,0,0-.22.87,3.57,3.57,0,0,1,3.8-.8C-2371.77,1347.81-2370.69,1349.49-2371.29,1351.41Zm-1.09-.31c.44-1.37-.32-2.57-1.95-3.08a2.57,2.57,0,0,0-3.44,1.45c-.36,1.16.26,2.55,2.09,3.11A2.42,2.42,0,0,0-2372.38,1351.1Z" transform="translate(2681.27 -1244.49)"/>
        <path class="cls-4" d="M-2356.85,1356c-.55,1.75-2.26,2.71-4.82,1.92a5.79,5.79,0,0,1-3.38-2.52l.79-.69a4.86,4.86,0,0,0,2.9,2.22c1.76.54,3,0,3.39-1.27s-.24-2.36-2.2-3l-.76-.23.25-.79,4.08-2.74-5.42-1.67.3-1,6.81,2.1-.24.76-4.17,2.81C-2357.09,1352.78-2356.33,1354.31-2356.85,1356Z" transform="translate(2681.27 -1244.49)"/>
        <path class="cls-4" d="M-2346.21,1359.15c-.61,2-2.56,2.74-4.62,2.1-2.81-.87-3.73-3.27-2.69-6.58,1.12-3.57,3.67-4.82,6.54-3.93a5.07,5.07,0,0,1,2.33,1.34l-.71.74a3.83,3.83,0,0,0-1.9-1.13c-2.28-.71-4.21.29-5.1,3.14a6.45,6.45,0,0,0-.22.87,3.57,3.57,0,0,1,3.8-.8C-2346.68,1355.55-2345.6,1357.23-2346.21,1359.15Zm-1.08-.31c.44-1.37-.32-2.57-1.95-3.08a2.57,2.57,0,0,0-3.44,1.45c-.36,1.16.26,2.55,2.09,3.11A2.42,2.42,0,0,0-2347.29,1358.84Z" transform="translate(2681.27 -1244.49)"/>
        <path class="cls-4" d="M-2334.16,1354.79l-.24.77-7.48,8.35-1.18-.36,7.34-8.19-5.44-1.68-.62,2-1.07-.33.92-2.93Z" transform="translate(2681.27 -1244.49)"/>
        <path class="cls-4" d="M-2319,1359.46l-.24.76-7.49,8.36-1.17-.36,7.34-8.19-5.44-1.68-.62,2-1.07-.33.92-2.92Z" transform="translate(2681.27 -1244.49)"/>
        <path class="cls-4" d="M-2311,1370.24c-.58,1.85-2.53,2.52-5.05,1.74s-3.72-2.41-3.14-4.27a2.77,2.77,0,0,1,2.85-2,2.47,2.47,0,0,1-.94-2.82c.54-1.71,2.34-2.32,4.58-1.63s3.4,2.22,2.86,3.93a2.5,2.5,0,0,1-2.42,1.78A2.74,2.74,0,0,1-2311,1370.24Zm-1.11-.36c.41-1.29-.46-2.45-2.33-3s-3.24-.11-3.64,1.18.44,2.45,2.32,3S-2312.52,1371.18-2312.11,1369.88Zm-2.06-3.88c1.64.51,2.86.08,3.21-1.06s-.44-2.22-2-2.71-2.84-.09-3.21,1.08S-2315.82,1365.49-2314.17,1366Z" transform="translate(2681.27 -1244.49)"/>
        <path class="cls-4" d="M-2300,1371c-1.12,3.56-3.67,4.81-6.54,3.93a5.18,5.18,0,0,1-2.33-1.35l.71-.73a3.88,3.88,0,0,0,1.9,1.13c2.28.7,4.21-.3,5.1-3.15a6.68,6.68,0,0,0,.22-.86,3.57,3.57,0,0,1-3.8.8c-2.1-.65-3.18-2.33-2.58-4.25s2.57-2.74,4.63-2.11C-2299.84,1365.28-2298.92,1367.68-2300,1371Zm-.84-2.55c.36-1.15-.26-2.54-2.09-3.11a2.43,2.43,0,0,0-3.3,1.48c-.44,1.38.31,2.58,2,3.08A2.57,2.57,0,0,0-2300.8,1368.45Z" transform="translate(2681.27 -1244.49)"/>
        <path class="cls-4" d="M-2287.61,1369.15l-3.29,10.49-1.09-.34,3-9.53-2.49-.76.3-1Z" transform="translate(2681.27 -1244.49)"/>
        <path class="cls-4" d="M-2279.72,1382l-.3,1-7.42-2.29.24-.77,5.74-2.91c1.56-.8,2-1.43,2.23-2.15.38-1.22-.25-2.23-1.86-2.73a3.81,3.81,0,0,0-3.26.28l-.56-.9a5,5,0,0,1,4.22-.34c2.15.66,3.17,2.16,2.62,3.91-.32,1-.92,1.81-2.77,2.75l-4.7,2.39Z" transform="translate(2681.27 -1244.49)"/>
        <path class="cls-4" d="M-2269.58,1382.91c-.55,1.76-2.26,2.71-4.82,1.92a5.79,5.79,0,0,1-3.38-2.52l.79-.69a4.86,4.86,0,0,0,2.9,2.22c1.76.54,3,0,3.39-1.27s-.24-2.36-2.2-3l-.76-.23.25-.79,4.07-2.74-5.41-1.67.3-1,6.81,2.1-.24.77-4.17,2.8C-2269.82,1379.7-2269.06,1381.23-2269.58,1382.91Z" transform="translate(2681.27 -1244.49)"/>
      </g>
      <polygon class="cls-4" points="327.03 124.13 325.6 128.68 410.36 154.83 411.79 150.28 327.03 124.13"/>
      <polygon class="cls-4" points="365.46 145.96 364.04 150.51 407.51 163.92 408.94 159.37 365.46 145.96"/>
      <g class="cls-5">
        <path class="cls-2" d="M-2399.73,1324.65l-26.07-8.05a4.9,4.9,0,0,1-3.27-6.16l5.32-16.93a5,5,0,0,1,6.22-3.24l26.07,8a4.91,4.91,0,0,1,3.27,6.16l-5.31,16.93A5,5,0,0,1-2399.73,1324.65Z" transform="translate(2681.27 -1244.49)"/>
      </g>
      <path class="cls-3" d="M-2428.26,1307.85l.53-1.69,18.31,5.65a4,4,0,0,0,5-2.62,4,4,0,0,0-2.64-5l-18.31-5.65.53-1.69,18.31,5.65a5.74,5.74,0,0,1,3.81,7.19,5.81,5.81,0,0,1-7.26,3.78Z" transform="translate(2681.27 -1244.49)"/>
      <polygon class="cls-3" points="277.46 65.82 277.99 64.13 290.56 68 290.03 69.69 277.46 65.82"/>
      <polygon class="cls-4" points="359.01 59.95 267.55 31.73 269.99 23.95 361.46 52.17 359.01 59.95"/>
      <path class="cls-4" d="M-2261.38,1329l-12.39-3.82a3.12,3.12,0,0,1-2.07-3.91L-2272,1309a3.17,3.17,0,0,1,3.95-2.06l12.39,3.83a3.11,3.11,0,0,1,2.07,3.91l-3.85,12.28A3.17,3.17,0,0,1-2261.38,1329Z" transform="translate(2681.27 -1244.49)"/>
    </g>
    <path class="cls-6" d="M-2227.27,1684.21c0,.15-101.63.26-227,.26s-227-.11-227-.26,101.62-.25,227-.25S-2227.27,1684.07-2227.27,1684.21Z" transform="translate(2681.27 -1244.49)"/>
    <g>
      <rect class="cls-7" x="13.27" y="302.97" width="157.41" height="136.73" rx="8.76"/>
      <g class="cls-8">
        <path d="M-2668,1637.12h57.34a4,4,0,0,0,4-4h-61.17Z" transform="translate(2681.27 -1244.49)"/>
      </g>
      <g>
        <path class="cls-7" d="M-2609.3,1633.65h-57.92a5,5,0,0,1-5-4.94v-25.6a5,5,0,0,1,5-4.94h57.92a5,5,0,0,1,5,4.94v25.6A5,5,0,0,1-2609.3,1633.65Z" transform="translate(2681.27 -1244.49)"/>
        <path class="cls-6" d="M-2609.3,1633.65a6,6,0,0,0,2-.45,5.07,5.07,0,0,0,1.89-1.45,4.92,4.92,0,0,0,1.05-3c0-5-.05-12.22-.08-21.12,0-1.11,0-2.25,0-3.42a14.31,14.31,0,0,0-.06-1.74,4.63,4.63,0,0,0-.55-1.63,4.69,4.69,0,0,0-2.72-2.21,5.35,5.35,0,0,0-1.84-.23h-2l-16.88,0-38.7,0a4.73,4.73,0,0,0-4,2.25,4.53,4.53,0,0,0-.69,2.25c0,.82,0,1.66,0,2.49v9.78q0,4.82,0,9.45c0,1.53,0,3.09,0,4.55a4.69,4.69,0,0,0,2.19,3.49,4.84,4.84,0,0,0,2,.69c.68.07,1.45,0,2.16,0h4.29l8.2,0,14.71,0,21.31.08,5.79,0,1.51,0a4.9,4.9,0,0,1,.51,0l-.51,0-1.51,0-5.79,0-21.31.08-14.71,0h-12.49c-.73,0-1.43,0-2.21,0a5.27,5.27,0,0,1-2.17-.76,5.18,5.18,0,0,1-2.43-3.84c-.06-1.56,0-3,0-4.6q0-4.64,0-9.45v-9.78c0-.83,0-1.65,0-2.51a5.07,5.07,0,0,1,.75-2.5,5.27,5.27,0,0,1,4.49-2.5l38.7,0,16.88,0h2a6,6,0,0,1,2,.25,5.2,5.2,0,0,1,2.94,2.41,5.05,5.05,0,0,1,.59,1.78,12,12,0,0,1,.05,1.79v3.42c0,8.9-.07,16.11-.09,21.12a5,5,0,0,1-1.13,3.11,5.07,5.07,0,0,1-2,1.46,5.07,5.07,0,0,1-1.47.35Z" transform="translate(2681.27 -1244.49)"/>
      </g>
      <g class="cls-8">
        <ellipse cx="60.22" cy="375.27" rx="10.05" ry="9.96"/>
      </g>
      <g>
        <ellipse class="cls-2" cx="60.22" cy="371.8" rx="10.05" ry="9.96"/>
        <path class="cls-6" d="M-2611,1616.29a24.06,24.06,0,0,0-.42-2.41,9.88,9.88,0,0,0-3.67-5.37,9.94,9.94,0,0,0-4.15-1.8,10,10,0,0,0-5.16.44,9.31,9.31,0,0,0-2.48,1.33,9.24,9.24,0,0,0-2.07,2.07,9.72,9.72,0,0,0-1.9,5.73,9.73,9.73,0,0,0,1.9,5.74,9.24,9.24,0,0,0,2.07,2.07,9.31,9.31,0,0,0,2.48,1.33,10,10,0,0,0,5.16.44,10,10,0,0,0,4.16-1.8,9.91,9.91,0,0,0,3.66-5.37c.4-1.52.35-2.41.42-2.4a7.46,7.46,0,0,1-.22,2.45,9.87,9.87,0,0,1-3.64,5.61,10.24,10.24,0,0,1-4.3,1.93,10.39,10.39,0,0,1-5.4-.41,9.77,9.77,0,0,1-2.61-1.38,9.8,9.8,0,0,1-2.19-2.17,10.19,10.19,0,0,1-2-6,10.18,10.18,0,0,1,2-6,9.8,9.8,0,0,1,2.19-2.17,9.74,9.74,0,0,1,2.61-1.37,10.29,10.29,0,0,1,5.4-.42,10.24,10.24,0,0,1,4.3,1.93,9.87,9.87,0,0,1,3.64,5.61A7.52,7.52,0,0,1-2611,1616.29Z" transform="translate(2681.27 -1244.49)"/>
      </g>
    </g>
    <g>
      <g>
        <g>
          <ellipse class="cls-9" cx="381.13" cy="321.55" rx="34.92" ry="34.6"/>
          <g class="cls-10">
            <path class="cls-4" d="M-2312.66,1533.74a34.5,34.5,0,0,0-20.06,44.71s23.29-7.71,25.25-19S-2312.66,1533.74-2312.66,1533.74Z" transform="translate(2681.27 -1244.49)"/>
          </g>
          <ellipse class="cls-9" cx="380.42" cy="321.23" rx="26.54" ry="26.3"/>
          <g class="cls-11">
            <ellipse cx="380.42" cy="321.23" rx="26.54" ry="26.3"/>
          </g>
          <path class="cls-9" d="M-2275,1557a25.88,25.88,0,0,1-15,33.54,26.26,26.26,0,0,1-33.84-14.91,25.88,25.88,0,0,1,15-33.54A26.27,26.27,0,0,1-2275,1557Z" transform="translate(2681.27 -1244.49)"/>
          <g class="cls-11">
            <path class="cls-4" d="M-2275,1557a25.88,25.88,0,0,1-15,33.54,26.26,26.26,0,0,1-33.84-14.91,25.88,25.88,0,0,1,15-33.54A26.27,26.27,0,0,1-2275,1557Z" transform="translate(2681.27 -1244.49)"/>
          </g>
        </g>
        <g>
          <path class="cls-9" d="M-2299.26,1563.88l-2.4-6.2h0a13.9,13.9,0,0,1,3.65-.41,11,11,0,0,1,1.94.38v-.22l.09-2.6,0-.6-1.57-.74-.44.45a12.5,12.5,0,0,0-5,.43l-1.33-3.41-1.4-.45.33.86-1.47.56,1.35,3.47c-4.65,2.3-5.89,5.91-4.67,9,1.65,4.27,5.77,4,9.53,3.49l2.38,6.14a12.87,12.87,0,0,1-7.1,0l-.19,3.64c2.15.76,5.47.62,8.58-.35l1,2.58-1.2.48,1.52.35,2.54-1-1.33-3.44c4.67-2.34,5.95-5.93,4.73-9.06C-2291.33,1563-2295.5,1563.4-2299.26,1563.88Zm-2.79.32c-2,.16-3.59,0-4.17-1.48s0-2.81,2-4Zm.38-6.53Zm6,15.36-2.11-5.44c2.06-.18,3.7,0,4.28,1.51C-2293,1570.42-2293.58,1571.83-2295.71,1573Z" transform="translate(2681.27 -1244.49)"/>
          <g class="cls-8">
            <path d="M-2299.26,1563.88l-2.4-6.2h0a13.9,13.9,0,0,1,3.65-.41,11,11,0,0,1,1.94.38v-.22l.09-2.6,0-.6-1.57-.74-.44.45a12.5,12.5,0,0,0-5,.43l-1.33-3.41-1.4-.45.33.86-1.47.56,1.35,3.47c-4.65,2.3-5.89,5.91-4.67,9,1.65,4.27,5.77,4,9.53,3.49l2.38,6.14a12.87,12.87,0,0,1-7.1,0l-.19,3.64c2.15.76,5.47.62,8.58-.35l1,2.58-1.2.48,1.52.35,2.54-1-1.33-3.44c4.67-2.34,5.95-5.93,4.73-9.06C-2291.33,1563-2295.5,1563.4-2299.26,1563.88Zm-2.79.32c-2,.16-3.59,0-4.17-1.48s0-2.81,2-4Zm.38-6.53Zm6,15.36-2.11-5.44c2.06-.18,3.7,0,4.28,1.51C-2293,1570.42-2293.58,1571.83-2295.71,1573Z" transform="translate(2681.27 -1244.49)"/>
          </g>
          <path class="cls-9" d="M-2295.79,1575.93l1.34,3.44-2.54,1-1.33-3.41c-3.11,1-6.43,1.11-8.58.34l.19-3.63a12.82,12.82,0,0,0,7.11,0l-2.39-6.14c-3.76.48-7.88.78-9.53-3.48-1.22-3.14,0-6.74,4.67-9l-1.35-3.47,2.55-1,1.32,3.4a14.34,14.34,0,0,1,7-.52l-.07,3.59a13.8,13.8,0,0,0-5.66.25l2.4,6.2c3.76-.48,7.93-.83,9.59,3.44C-2289.84,1570-2291.11,1573.59-2295.79,1575.93Zm-7.64-12.17-2.12-5.47c-2.07,1.18-2.57,2.64-2,4S-2305.43,1563.92-2303.43,1563.76Zm8.52,4.89c-.59-1.5-2.22-1.69-4.29-1.5l2.11,5.44C-2295,1571.38-2294.4,1570-2294.91,1568.65Z" transform="translate(2681.27 -1244.49)"/>
        </g>
      </g>
      <path class="cls-4" d="M-2322,1591.76l-.25-.19-.68-.59a13.86,13.86,0,0,1-1-1c-.38-.4-.85-.83-1.3-1.37l-.72-.82c-.25-.29-.49-.61-.74-.93-.52-.64-1-1.37-1.54-2.12a38.2,38.2,0,0,1-2.86-5.27,38,38,0,0,1-1.9-5.69c-.19-.9-.39-1.75-.5-2.56-.06-.41-.13-.8-.17-1.17s-.07-.74-.11-1.09c-.08-.69-.08-1.32-.1-1.88a13.17,13.17,0,0,1,0-1.41l0-.9a1.3,1.3,0,0,1,0-.31,1.34,1.34,0,0,1,0,.32c0,.23,0,.52,0,.89s0,.86,0,1.41.05,1.17.15,1.86l.12,1.08c0,.38.12.76.18,1.16.12.81.33,1.65.53,2.55a38.51,38.51,0,0,0,1.9,5.63,39.59,39.59,0,0,0,2.82,5.25c.52.75,1,1.48,1.51,2.12.25.32.48.64.72.93l.71.83c.44.54.89,1,1.27,1.38s.72.74,1,1l.65.62C-2322.08,1591.67-2322,1591.75-2322,1591.76Z" transform="translate(2681.27 -1244.49)"/>
      <path class="cls-4" d="M-2308.41,1565.75a2.31,2.31,0,0,1-1-.44,4.11,4.11,0,0,1-1.6-2.06,4.15,4.15,0,0,1,0-2.59,2.2,2.2,0,0,1,.52-1s-.18.37-.34,1a4.36,4.36,0,0,0,.09,2.46,4.23,4.23,0,0,0,1.46,2C-2308.78,1565.56-2308.39,1565.71-2308.41,1565.75Z" transform="translate(2681.27 -1244.49)"/>
      <path class="cls-4" d="M-2306.52,1554.24c-.07,0-.3-.41-.51-1a2.53,2.53,0,0,1-.28-1c.07,0,.3.4.52,1S-2306.45,1554.21-2306.52,1554.24Z" transform="translate(2681.27 -1244.49)"/>
      <path class="cls-4" d="M-2308.38,1539.68a5.38,5.38,0,0,1-.81.27l-.95.31c-.36.13-.78.26-1.23.46s-1,.37-1.47.62-1.07.53-1.64.82a30.22,30.22,0,0,0-3.52,2.28,29.92,29.92,0,0,0-3.12,2.78c-.44.47-.86.91-1.22,1.36s-.7.85-1,1.24-.54.76-.76,1.07-.4.6-.55.83a4,4,0,0,1-.47.7,6.7,6.7,0,0,1,.39-.75c.13-.24.29-.53.51-.86s.44-.7.73-1.09.6-.84,1-1.28.78-.9,1.22-1.38a27.62,27.62,0,0,1,3.14-2.83,27.82,27.82,0,0,1,3.56-2.28c.58-.29,1.12-.58,1.66-.8s1-.43,1.49-.6.89-.31,1.26-.43.7-.2,1-.26A5.6,5.6,0,0,1-2308.38,1539.68Z" transform="translate(2681.27 -1244.49)"/>
      <path class="cls-4" d="M-2284.28,1595.15a3.3,3.3,0,0,1-.52.37c-.34.24-.86.54-1.51.9a25.82,25.82,0,0,1-5.38,2.12,25.42,25.42,0,0,1-5.74.86c-.74,0-1.34,0-1.75,0a3.59,3.59,0,0,1-.64-.06,3,3,0,0,1,.64,0c.41,0,1,0,1.75-.06a29.37,29.37,0,0,0,5.67-.92,28.52,28.52,0,0,0,5.36-2c.66-.32,1.19-.61,1.55-.81A2.81,2.81,0,0,1-2284.28,1595.15Z" transform="translate(2681.27 -1244.49)"/>
    </g>
    <g>
      <g>
        <rect class="cls-9" x="-2334.08" y="1598.39" width="73.92" height="14.77" transform="translate(-1912.98 1967.07) rotate(180)"/>
        <path class="cls-6" d="M-2264.91,1598.64c-.18,0-.33,3.21-.33,7.16s.15,7.16.33,7.16.32-3.2.32-7.16S-2264.74,1598.64-2264.91,1598.64Z" transform="translate(2681.27 -1244.49)"/>
        <path class="cls-6" d="M-2271.77,1598.64c-.18,0-.32,3.21-.32,7.16s.14,7.16.32,7.16.32-3.2.32-7.16S-2271.59,1598.64-2271.77,1598.64Z" transform="translate(2681.27 -1244.49)"/>
        <path class="cls-6" d="M-2278.54,1598.64c-.18,0-.32,3.21-.32,7.16s.14,7.16.32,7.16.32-3.2.32-7.16S-2278.36,1598.64-2278.54,1598.64Z" transform="translate(2681.27 -1244.49)"/>
        <path class="cls-6" d="M-2285.28,1598.64c-.18,0-.32,3.21-.32,7.16s.14,7.16.32,7.16.32-3.2.32-7.16S-2285.1,1598.64-2285.28,1598.64Z" transform="translate(2681.27 -1244.49)"/>
        <path class="cls-6" d="M-2292,1598.64c-.17,0-.32,3.21-.32,7.16s.15,7.16.32,7.16.32-3.2.32-7.16S-2291.84,1598.64-2292,1598.64Z" transform="translate(2681.27 -1244.49)"/>
        <path class="cls-6" d="M-2298.75,1598.64c-.18,0-.33,3.21-.33,7.16s.15,7.16.33,7.16.32-3.2.32-7.16S-2298.58,1598.64-2298.75,1598.64Z" transform="translate(2681.27 -1244.49)"/>
        <path class="cls-6" d="M-2305.49,1598.64c-.18,0-.32,3.21-.32,7.16s.14,7.16.32,7.16.32-3.2.32-7.16S-2305.31,1598.64-2305.49,1598.64Z" transform="translate(2681.27 -1244.49)"/>
        <path class="cls-6" d="M-2312.23,1598.64c-.18,0-.32,3.21-.32,7.16s.14,7.16.32,7.16.32-3.2.32-7.16S-2312,1598.64-2312.23,1598.64Z" transform="translate(2681.27 -1244.49)"/>
        <path class="cls-6" d="M-2319,1598.64c-.17,0-.32,3.21-.32,7.16s.15,7.16.32,7.16.32-3.2.32-7.16S-2318.79,1598.64-2319,1598.64Z" transform="translate(2681.27 -1244.49)"/>
        <path class="cls-6" d="M-2325.7,1598.64c-.18,0-.32,3.21-.32,7.16s.14,7.16.32,7.16.32-3.2.32-7.16S-2325.53,1598.64-2325.7,1598.64Z" transform="translate(2681.27 -1244.49)"/>
        <path class="cls-6" d="M-2332.44,1598.64c-.18,0-.32,3.21-.32,7.16s.14,7.16.32,7.16.32-3.2.32-7.16S-2332.26,1598.64-2332.44,1598.64Z" transform="translate(2681.27 -1244.49)"/>
        <g class="cls-8">
          <path d="M-2261.35,1598.41a272,272,0,0,1-71.55,0Z" transform="translate(2681.27 -1244.49)"/>
        </g>
        <path class="cls-6" d="M-2334.1,1598.44c0,.17,16.52.32,36.89.32s36.9-.15,36.9-.32-16.52-.32-36.9-.32S-2334.1,1598.26-2334.1,1598.44Z" transform="translate(2681.27 -1244.49)"/>
      </g>
      <g>
        <rect class="cls-9" x="-2335.74" y="1612.92" width="73.92" height="14.77" transform="translate(-1916.3 1996.12) rotate(180)"/>
        <path class="cls-6" d="M-2266.57,1613.16c-.18,0-.33,3.21-.33,7.17s.15,7.16.33,7.16.32-3.21.32-7.16S-2266.4,1613.16-2266.57,1613.16Z" transform="translate(2681.27 -1244.49)"/>
        <path class="cls-6" d="M-2273.43,1613.16c-.18,0-.32,3.21-.32,7.17s.14,7.16.32,7.16.32-3.21.32-7.16S-2273.25,1613.16-2273.43,1613.16Z" transform="translate(2681.27 -1244.49)"/>
        <path class="cls-6" d="M-2280.2,1613.16c-.18,0-.32,3.21-.32,7.17s.14,7.16.32,7.16.32-3.21.32-7.16S-2280,1613.16-2280.2,1613.16Z" transform="translate(2681.27 -1244.49)"/>
        <path class="cls-6" d="M-2286.94,1613.16c-.18,0-.32,3.21-.32,7.17s.14,7.16.32,7.16.32-3.21.32-7.16S-2286.76,1613.16-2286.94,1613.16Z" transform="translate(2681.27 -1244.49)"/>
        <path class="cls-6" d="M-2293.68,1613.16c-.17,0-.32,3.21-.32,7.17s.15,7.16.32,7.16.32-3.21.32-7.16S-2293.5,1613.16-2293.68,1613.16Z" transform="translate(2681.27 -1244.49)"/>
        <path class="cls-6" d="M-2300.41,1613.16c-.18,0-.33,3.21-.33,7.17s.15,7.16.33,7.16.32-3.21.32-7.16S-2300.24,1613.16-2300.41,1613.16Z" transform="translate(2681.27 -1244.49)"/>
        <path class="cls-6" d="M-2307.15,1613.16c-.18,0-.32,3.21-.32,7.17s.14,7.16.32,7.16.32-3.21.32-7.16S-2307,1613.16-2307.15,1613.16Z" transform="translate(2681.27 -1244.49)"/>
        <path class="cls-6" d="M-2313.89,1613.16c-.18,0-.32,3.21-.32,7.17s.14,7.16.32,7.16.32-3.21.32-7.16S-2313.71,1613.16-2313.89,1613.16Z" transform="translate(2681.27 -1244.49)"/>
        <path class="cls-6" d="M-2320.63,1613.16c-.17,0-.32,3.21-.32,7.17s.15,7.16.32,7.16.32-3.21.32-7.16S-2320.45,1613.16-2320.63,1613.16Z" transform="translate(2681.27 -1244.49)"/>
        <path class="cls-6" d="M-2327.36,1613.16c-.18,0-.32,3.21-.32,7.17s.14,7.16.32,7.16.32-3.21.32-7.16S-2327.19,1613.16-2327.36,1613.16Z" transform="translate(2681.27 -1244.49)"/>
        <path class="cls-6" d="M-2334.1,1613.16c-.18,0-.32,3.21-.32,7.17s.14,7.16.32,7.16.32-3.21.32-7.16S-2333.92,1613.16-2334.1,1613.16Z" transform="translate(2681.27 -1244.49)"/>
        <g class="cls-8">
          <path d="M-2263,1612.93a271.62,271.62,0,0,1-71.55,0Z" transform="translate(2681.27 -1244.49)"/>
        </g>
        <path class="cls-6" d="M-2335.76,1613c0,.18,16.52.32,36.89.32s36.9-.14,36.9-.32-16.52-.31-36.9-.31S-2335.76,1612.79-2335.76,1613Z" transform="translate(2681.27 -1244.49)"/>
      </g>
      <g>
        <rect class="cls-9" x="-2328.72" y="1627.21" width="73.92" height="14.77" transform="translate(-1902.26 2024.71) rotate(180)"/>
        <path class="cls-6" d="M-2259.56,1627.46c-.17,0-.32,3.21-.32,7.16s.15,7.16.32,7.16.32-3.2.32-7.16S-2259.38,1627.46-2259.56,1627.46Z" transform="translate(2681.27 -1244.49)"/>
        <path class="cls-6" d="M-2266.41,1627.46c-.18,0-.32,3.21-.32,7.16s.14,7.16.32,7.16.32-3.2.32-7.16S-2266.23,1627.46-2266.41,1627.46Z" transform="translate(2681.27 -1244.49)"/>
        <path class="cls-6" d="M-2273.18,1627.46c-.18,0-.32,3.21-.32,7.16s.14,7.16.32,7.16.32-3.2.32-7.16S-2273,1627.46-2273.18,1627.46Z" transform="translate(2681.27 -1244.49)"/>
        <path class="cls-6" d="M-2279.92,1627.46c-.18,0-.32,3.21-.32,7.16s.14,7.16.32,7.16.32-3.2.32-7.16S-2279.74,1627.46-2279.92,1627.46Z" transform="translate(2681.27 -1244.49)"/>
        <path class="cls-6" d="M-2286.66,1627.46c-.18,0-.32,3.21-.32,7.16s.14,7.16.32,7.16.32-3.2.32-7.16S-2286.48,1627.46-2286.66,1627.46Z" transform="translate(2681.27 -1244.49)"/>
        <path class="cls-6" d="M-2293.4,1627.46c-.17,0-.32,3.21-.32,7.16s.15,7.16.32,7.16.32-3.2.32-7.16S-2293.22,1627.46-2293.4,1627.46Z" transform="translate(2681.27 -1244.49)"/>
        <path class="cls-6" d="M-2300.13,1627.46c-.18,0-.32,3.21-.32,7.16s.14,7.16.32,7.16.32-3.2.32-7.16S-2300,1627.46-2300.13,1627.46Z" transform="translate(2681.27 -1244.49)"/>
        <path class="cls-6" d="M-2306.87,1627.46c-.18,0-.32,3.21-.32,7.16s.14,7.16.32,7.16.32-3.2.32-7.16S-2306.69,1627.46-2306.87,1627.46Z" transform="translate(2681.27 -1244.49)"/>
        <path class="cls-6" d="M-2313.61,1627.46c-.18,0-.32,3.21-.32,7.16s.14,7.16.32,7.16.32-3.2.32-7.16S-2313.43,1627.46-2313.61,1627.46Z" transform="translate(2681.27 -1244.49)"/>
        <path class="cls-6" d="M-2320.35,1627.46c-.17,0-.32,3.21-.32,7.16s.15,7.16.32,7.16.32-3.2.32-7.16S-2320.17,1627.46-2320.35,1627.46Z" transform="translate(2681.27 -1244.49)"/>
        <path class="cls-6" d="M-2327.08,1627.46c-.18,0-.32,3.21-.32,7.16s.14,7.16.32,7.16.32-3.2.32-7.16S-2326.91,1627.46-2327.08,1627.46Z" transform="translate(2681.27 -1244.49)"/>
        <g class="cls-8">
          <path d="M-2256,1627.23a272,272,0,0,1-71.55,0Z" transform="translate(2681.27 -1244.49)"/>
        </g>
        <path class="cls-6" d="M-2328.74,1627.26c0,.17,16.52.32,36.89.32s36.9-.15,36.9-.32-16.52-.32-36.9-.32S-2328.74,1627.08-2328.74,1627.26Z" transform="translate(2681.27 -1244.49)"/>
      </g>
      <g>
        <rect class="cls-9" x="-2337.38" y="1641.88" width="73.92" height="14.21" transform="translate(-1919.58 2053.47) rotate(180)"/>
        <path class="cls-6" d="M-2268.22,1642.11c-.17,0-.32,3.09-.32,6.89s.15,6.89.32,6.89.33-3.09.33-6.89S-2268,1642.11-2268.22,1642.11Z" transform="translate(2681.27 -1244.49)"/>
        <path class="cls-6" d="M-2275.07,1642.11c-.18,0-.32,3.09-.32,6.89s.14,6.89.32,6.89.32-3.09.32-6.89S-2274.89,1642.11-2275.07,1642.11Z" transform="translate(2681.27 -1244.49)"/>
        <path class="cls-6" d="M-2281.84,1642.11c-.18,0-.32,3.09-.32,6.89s.14,6.89.32,6.89.32-3.09.32-6.89S-2281.67,1642.11-2281.84,1642.11Z" transform="translate(2681.27 -1244.49)"/>
        <path class="cls-6" d="M-2288.58,1642.11c-.18,0-.32,3.09-.32,6.89s.14,6.89.32,6.89.32-3.09.32-6.89S-2288.4,1642.11-2288.58,1642.11Z" transform="translate(2681.27 -1244.49)"/>
        <path class="cls-6" d="M-2295.32,1642.11c-.18,0-.32,3.09-.32,6.89s.14,6.89.32,6.89.32-3.09.32-6.89S-2295.14,1642.11-2295.32,1642.11Z" transform="translate(2681.27 -1244.49)"/>
        <path class="cls-6" d="M-2302.06,1642.11c-.17,0-.32,3.09-.32,6.89s.15,6.89.32,6.89.33-3.09.33-6.89S-2301.88,1642.11-2302.06,1642.11Z" transform="translate(2681.27 -1244.49)"/>
        <path class="cls-6" d="M-2308.79,1642.11c-.18,0-.32,3.09-.32,6.89s.14,6.89.32,6.89.32-3.09.32-6.89S-2308.62,1642.11-2308.79,1642.11Z" transform="translate(2681.27 -1244.49)"/>
        <path class="cls-6" d="M-2315.53,1642.11c-.18,0-.32,3.09-.32,6.89s.14,6.89.32,6.89.32-3.09.32-6.89S-2315.35,1642.11-2315.53,1642.11Z" transform="translate(2681.27 -1244.49)"/>
        <path class="cls-6" d="M-2322.27,1642.11c-.17,0-.32,3.09-.32,6.89s.15,6.89.32,6.89.32-3.09.32-6.89S-2322.09,1642.11-2322.27,1642.11Z" transform="translate(2681.27 -1244.49)"/>
        <path class="cls-6" d="M-2329,1642.11c-.18,0-.33,3.09-.33,6.89s.15,6.89.33,6.89.32-3.09.32-6.89S-2328.83,1642.11-2329,1642.11Z" transform="translate(2681.27 -1244.49)"/>
        <path class="cls-6" d="M-2335.74,1642.11c-.18,0-.32,3.09-.32,6.89s.14,6.89.32,6.89.32-3.09.32-6.89S-2335.57,1642.11-2335.74,1642.11Z" transform="translate(2681.27 -1244.49)"/>
        <g class="cls-8">
          <path d="M-2264.65,1641.89a213.23,213.23,0,0,1-71.55,0Z" transform="translate(2681.27 -1244.49)"/>
        </g>
        <path class="cls-6" d="M-2337.4,1641.92c0,.18,16.52.32,36.89.32s36.9-.14,36.9-.32-16.52-.32-36.9-.32S-2337.4,1641.74-2337.4,1641.92Z" transform="translate(2681.27 -1244.49)"/>
      </g>
      <g>
        <rect class="cls-9" x="-2332.63" y="1656.09" width="73.92" height="14.21" transform="translate(-1910.08 2081.9) rotate(180)"/>
        <path class="cls-6" d="M-2263.46,1656.33c-.18,0-.32,3.08-.32,6.88s.14,6.89.32,6.89.32-3.08.32-6.89S-2263.29,1656.33-2263.46,1656.33Z" transform="translate(2681.27 -1244.49)"/>
        <path class="cls-6" d="M-2270.32,1656.33c-.17,0-.32,3.08-.32,6.88s.15,6.89.32,6.89.32-3.08.32-6.89S-2270.14,1656.33-2270.32,1656.33Z" transform="translate(2681.27 -1244.49)"/>
        <path class="cls-6" d="M-2277.09,1656.33c-.18,0-.32,3.08-.32,6.88s.14,6.89.32,6.89.32-3.08.32-6.89S-2276.91,1656.33-2277.09,1656.33Z" transform="translate(2681.27 -1244.49)"/>
        <path class="cls-6" d="M-2283.83,1656.33c-.18,0-.32,3.08-.32,6.88s.14,6.89.32,6.89.32-3.08.32-6.89S-2283.65,1656.33-2283.83,1656.33Z" transform="translate(2681.27 -1244.49)"/>
        <path class="cls-6" d="M-2290.57,1656.33c-.17,0-.32,3.08-.32,6.88s.15,6.89.32,6.89.33-3.08.33-6.89S-2290.39,1656.33-2290.57,1656.33Z" transform="translate(2681.27 -1244.49)"/>
        <path class="cls-6" d="M-2297.3,1656.33c-.18,0-.32,3.08-.32,6.88s.14,6.89.32,6.89.32-3.08.32-6.89S-2297.13,1656.33-2297.3,1656.33Z" transform="translate(2681.27 -1244.49)"/>
        <path class="cls-6" d="M-2304,1656.33c-.18,0-.32,3.08-.32,6.88s.14,6.89.32,6.89.32-3.08.32-6.89S-2303.86,1656.33-2304,1656.33Z" transform="translate(2681.27 -1244.49)"/>
        <path class="cls-6" d="M-2310.78,1656.33c-.17,0-.32,3.08-.32,6.88s.15,6.89.32,6.89.32-3.08.32-6.89S-2310.6,1656.33-2310.78,1656.33Z" transform="translate(2681.27 -1244.49)"/>
        <path class="cls-6" d="M-2317.51,1656.33c-.18,0-.33,3.08-.33,6.88s.15,6.89.33,6.89.32-3.08.32-6.89S-2317.34,1656.33-2317.51,1656.33Z" transform="translate(2681.27 -1244.49)"/>
        <path class="cls-6" d="M-2324.25,1656.33c-.18,0-.32,3.08-.32,6.88s.14,6.89.32,6.89.32-3.08.32-6.89S-2324.08,1656.33-2324.25,1656.33Z" transform="translate(2681.27 -1244.49)"/>
        <path class="cls-6" d="M-2331,1656.33c-.18,0-.32,3.08-.32,6.88s.14,6.89.32,6.89.32-3.08.32-6.89S-2330.81,1656.33-2331,1656.33Z" transform="translate(2681.27 -1244.49)"/>
        <g class="cls-8">
          <path d="M-2259.9,1656.11a189,189,0,0,1-71.55,0Z" transform="translate(2681.27 -1244.49)"/>
        </g>
        <path class="cls-6" d="M-2332.65,1656.13c0,.18,16.52.32,36.89.32s36.9-.14,36.9-.32-16.52-.31-36.9-.31S-2332.65,1656-2332.65,1656.13Z" transform="translate(2681.27 -1244.49)"/>
      </g>
      <g>
        <rect class="cls-9" x="-2336.85" y="1670.1" width="73.92" height="14.21" transform="translate(-1918.52 2109.93) rotate(180)"/>
        <path class="cls-6" d="M-2267.69,1670.34c-.17,0-.32,3.08-.32,6.89s.15,6.89.32,6.89.32-3.09.32-6.89S-2267.51,1670.34-2267.69,1670.34Z" transform="translate(2681.27 -1244.49)"/>
        <path class="cls-6" d="M-2274.54,1670.34c-.18,0-.32,3.08-.32,6.89s.14,6.89.32,6.89.32-3.09.32-6.89S-2274.36,1670.34-2274.54,1670.34Z" transform="translate(2681.27 -1244.49)"/>
        <path class="cls-6" d="M-2281.31,1670.34c-.18,0-.32,3.08-.32,6.89s.14,6.89.32,6.89.32-3.09.32-6.89S-2281.14,1670.34-2281.31,1670.34Z" transform="translate(2681.27 -1244.49)"/>
        <path class="cls-6" d="M-2288,1670.34c-.18,0-.32,3.08-.32,6.89s.14,6.89.32,6.89.32-3.09.32-6.89S-2287.87,1670.34-2288,1670.34Z" transform="translate(2681.27 -1244.49)"/>
        <path class="cls-6" d="M-2294.79,1670.34c-.18,0-.32,3.08-.32,6.89s.14,6.89.32,6.89.32-3.09.32-6.89S-2294.61,1670.34-2294.79,1670.34Z" transform="translate(2681.27 -1244.49)"/>
        <path class="cls-6" d="M-2301.53,1670.34c-.17,0-.32,3.08-.32,6.89s.15,6.89.32,6.89.32-3.09.32-6.89S-2301.35,1670.34-2301.53,1670.34Z" transform="translate(2681.27 -1244.49)"/>
        <path class="cls-6" d="M-2308.26,1670.34c-.18,0-.32,3.08-.32,6.89s.14,6.89.32,6.89.32-3.09.32-6.89S-2308.09,1670.34-2308.26,1670.34Z" transform="translate(2681.27 -1244.49)"/>
        <path class="cls-6" d="M-2315,1670.34c-.18,0-.32,3.08-.32,6.89s.14,6.89.32,6.89.32-3.09.32-6.89S-2314.82,1670.34-2315,1670.34Z" transform="translate(2681.27 -1244.49)"/>
        <path class="cls-6" d="M-2321.74,1670.34c-.18,0-.32,3.08-.32,6.89s.14,6.89.32,6.89.32-3.09.32-6.89S-2321.56,1670.34-2321.74,1670.34Z" transform="translate(2681.27 -1244.49)"/>
        <path class="cls-6" d="M-2328.48,1670.34c-.17,0-.32,3.08-.32,6.89s.15,6.89.32,6.89.33-3.09.33-6.89S-2328.3,1670.34-2328.48,1670.34Z" transform="translate(2681.27 -1244.49)"/>
        <path class="cls-6" d="M-2335.21,1670.34c-.18,0-.32,3.08-.32,6.89s.14,6.89.32,6.89.32-3.09.32-6.89S-2335,1670.34-2335.21,1670.34Z" transform="translate(2681.27 -1244.49)"/>
        <g class="cls-8">
          <path d="M-2264.12,1670.12a213.49,213.49,0,0,1-71.55,0Z" transform="translate(2681.27 -1244.49)"/>
        </g>
        <path class="cls-6" d="M-2336.87,1670.15c0,.17,16.52.32,36.89.32s36.9-.15,36.9-.32-16.52-.32-36.9-.32S-2336.87,1670-2336.87,1670.15Z" transform="translate(2681.27 -1244.49)"/>
      </g>
      <path class="cls-6" d="M-2262.93,1684.31a.75.75,0,0,1,0-.24c0-.19,0-.42,0-.72,0-.66,0-1.58,0-2.76,0-2.44,0-5.94-.07-10.29v-.16h.16l4.07,0-.18.18c0-4.15,0-9,0-14.22l.22.22h-5v-.23c0-4.39,0-9.15,0-14.1v-.23h8.9l-.25.24c0-5.25,0-10.3,0-15l.23.23-7,0h-.22v-.21c0-5.14,0-9.78.05-13.78V1613h2l-.16.17c0-4.58,0-8.25,0-10.82,0-1.24,0-2.21,0-2.9,0-.31,0-.56,0-.76a.72.72,0,0,1,0-.25,1.15,1.15,0,0,1,0,.25c0,.2,0,.45,0,.76,0,.69.05,1.66.08,2.9,0,2.56.1,6.24.18,10.81v.16h-2l.17-.17c0,4,0,8.64,0,13.78l-.21-.21,7,0h.22v.23c0,4.74,0,9.79,0,15v.24h-8.9l.24-.24c0,5,0,9.71,0,14.1l-.22-.22h5v.21c0,5.26,0,10.07,0,14.22v.17h-4.25l.16-.16c0,4.35-.06,7.85-.08,10.29,0,1.18,0,2.1,0,2.76,0,.3,0,.53,0,.72S-2262.93,1684.31-2262.93,1684.31Z" transform="translate(2681.27 -1244.49)"/>
    </g>
    <g>
      <g>
        <g>
          <path class="cls-9" d="M-2235.86,1475.61a30.25,30.25,0,0,1-29.33,31.17,30.3,30.3,0,0,1-31.46-29.07,30.26,30.26,0,0,1,29.33-31.17A30.3,30.3,0,0,1-2235.86,1475.61Z" transform="translate(2681.27 -1244.49)"/>
          <g class="cls-10">
            <path class="cls-4" d="M-2267.32,1446.54a30.26,30.26,0,0,0-29.33,31.17s21.39.21,26.23-8.49S-2267.32,1446.54-2267.32,1446.54Z" transform="translate(2681.27 -1244.49)"/>
          </g>
          <path class="cls-9" d="M-2243.65,1475.4a23,23,0,0,1-22.29,23.7,23,23,0,0,1-23.92-22.1,23,23,0,0,1,22.3-23.7A23,23,0,0,1-2243.65,1475.4Z" transform="translate(2681.27 -1244.49)"/>
          <g class="cls-11">
            <path d="M-2243.65,1475.4a23,23,0,0,1-22.29,23.7,23,23,0,0,1-23.92-22.1,23,23,0,0,1,22.3-23.7A23,23,0,0,1-2243.65,1475.4Z" transform="translate(2681.27 -1244.49)"/>
          </g>
          <path class="cls-9" d="M-2243,1476.33a22.69,22.69,0,0,1-22,23.38,22.72,22.72,0,0,1-23.59-21.8,22.69,22.69,0,0,1,22-23.38A22.72,22.72,0,0,1-2243,1476.33Z" transform="translate(2681.27 -1244.49)"/>
          <g class="cls-11">
            <path class="cls-4" d="M-2243,1476.33a22.69,22.69,0,0,1-22,23.38,22.72,22.72,0,0,1-23.59-21.8,22.69,22.69,0,0,1,22-23.38A22.72,22.72,0,0,1-2243,1476.33Z" transform="translate(2681.27 -1244.49)"/>
          </g>
        </g>
        <g>
          <path class="cls-9" d="M-2264.92,1475.13l-.2-5.78h0a12.18,12.18,0,0,1,3.13.69,10.14,10.14,0,0,1,1.48.86l.07-.18.83-2.11.19-.49-1.08-1-.49.24a11,11,0,0,0-4.27-1.07l-.11-3.17-1-.77,0,.8-1.37.05.11,3.23c-4.49.59-6.54,3.21-6.43,6.13.14,4,3.61,4.89,6.85,5.56l.2,5.72a11.19,11.19,0,0,1-5.86-2l-1.2,2.93a12.71,12.71,0,0,0,7.17,2.13l.08,2.4-1.13.06,1.16.72,2.37-.08-.12-3.21c4.52-.61,6.6-3.21,6.5-6.13C-2258.15,1476.67-2261.68,1475.79-2264.92,1475.13Zm-2.39-.52c-1.69-.43-3-1-3-2.39s.78-2.32,2.82-2.71Zm2.19-5.26Zm.5,14.31-.17-5.07c1.75.43,3,1.05,3.09,2.45C-2261.66,1482.27-2262.52,1483.27-2264.62,1483.66Z" transform="translate(2681.27 -1244.49)"/>
          <g class="cls-8">
            <path d="M-2264.92,1475.13l-.2-5.78h0a12.18,12.18,0,0,1,3.13.69,10.14,10.14,0,0,1,1.48.86l.07-.18.83-2.11.19-.49-1.08-1-.49.24a11,11,0,0,0-4.27-1.07l-.11-3.17-1-.77,0,.8-1.37.05.11,3.23c-4.49.59-6.54,3.21-6.43,6.13.14,4,3.61,4.89,6.85,5.56l.2,5.72a11.19,11.19,0,0,1-5.86-2l-1.2,2.93a12.71,12.71,0,0,0,7.17,2.13l.08,2.4-1.13.06,1.16.72,2.37-.08-.12-3.21c4.52-.61,6.6-3.21,6.5-6.13C-2258.15,1476.67-2261.68,1475.79-2264.92,1475.13Zm-2.39-.52c-1.69-.43-3-1-3-2.39s.78-2.32,2.82-2.71Zm2.19-5.26Zm.5,14.31-.17-5.07c1.75.43,3,1.05,3.09,2.45C-2261.66,1482.27-2262.52,1483.27-2264.62,1483.66Z" transform="translate(2681.27 -1244.49)"/>
          </g>
          <path class="cls-9" d="M-2265.51,1486l.11,3.21-2.37.08-.11-3.18A12.71,12.71,0,0,1-2275,1484l1.2-2.94a11.14,11.14,0,0,0,5.86,2l-.2-5.73c-3.24-.66-6.71-1.57-6.85-5.55-.11-2.92,1.94-5.55,6.43-6.13l-.11-3.24,2.37-.08.11,3.18a12.45,12.45,0,0,1,5.93,1.54l-1.08,2.94a12,12,0,0,0-4.74-1.39l.21,5.79c3.23.66,6.76,1.54,6.9,5.52C-2258.91,1482.82-2261,1485.42-2265.51,1486Zm-2.81-12.17-.18-5.1c-2,.39-2.87,1.45-2.82,2.71S-2270,1473.43-2268.32,1473.86Zm5.61,6.43c-.05-1.41-1.34-2-3.09-2.45l.18,5.07C-2263.52,1482.52-2262.66,1481.52-2262.71,1480.29Z" transform="translate(2681.27 -1244.49)"/>
        </g>
      </g>
      <path class="cls-6" d="M-2265.37,1500s.06,0,.19,0l.55-.06.89-.09a7.48,7.48,0,0,0,1.21-.16l1.5-.29a7.36,7.36,0,0,0,.84-.21l.91-.27a9.7,9.7,0,0,0,1-.31l1-.4c.34-.15.7-.27,1-.45l1.07-.55a23.89,23.89,0,0,0,4.39-3l1.06-1,.53-.53.5-.58c.32-.39.68-.77,1-1.19l.92-1.3.23-.33c.08-.12.14-.24.21-.36l.4-.71.41-.72a7.51,7.51,0,0,0,.36-.76c.22-.52.47-1,.68-1.57s.36-1.09.54-1.65a24,24,0,0,0,.91-7.14,24.14,24.14,0,0,0-1.41-7.07l-.66-1.61c-.24-.52-.53-1-.79-1.51a5.88,5.88,0,0,0-.41-.73c-.15-.24-.3-.47-.46-.7l-.45-.68-.23-.34-.25-.31-1-1.24c-.35-.4-.73-.75-1.08-1.12l-.53-.54-.58-.49-1.12-.94a24.51,24.51,0,0,0-4.6-2.71l-1.1-.48a11.31,11.31,0,0,0-1.07-.37l-1-.34c-.32-.11-.66-.16-1-.24l-.92-.2a5.4,5.4,0,0,0-.86-.16l-1.51-.19a9.25,9.25,0,0,0-1.22-.07l-.9,0-.55,0h1.45a8.94,8.94,0,0,1,1.22.06l1.53.16a6.75,6.75,0,0,1,.86.15l.93.2c.32.08.66.12,1,.23l1,.33c.35.12.73.21,1.09.36l1.11.48a25.14,25.14,0,0,1,4.65,2.71l1.13,1c.19.16.39.31.58.48l.54.55c.36.37.74.73,1.09,1.12l1,1.25.26.32.23.34.46.69.47.7c.16.23.27.49.41.74.27.5.55,1,.8,1.52s.45,1.08.67,1.63a24.23,24.23,0,0,1,1.43,7.13,24.88,24.88,0,0,1-.92,7.22c-.19.56-.37,1.11-.56,1.66s-.46,1.06-.68,1.58c-.13.25-.22.52-.37.76l-.41.73-.41.72-.21.36-.23.33c-.32.45-.63.88-.93,1.32s-.68.8-1,1.19c-.17.2-.34.39-.5.59l-.55.52-1.06,1a24.23,24.23,0,0,1-4.45,3l-1.07.55c-.35.18-.72.3-1.06.44l-1,.4c-.33.14-.66.2-1,.3l-.92.26a7,7,0,0,1-.85.21l-1.51.27a8.46,8.46,0,0,1-1.22.14l-.89.07-.55,0Z" transform="translate(2681.27 -1244.49)"/>
      <path class="cls-4" d="M-2291.64,1491.69s-.06-.08-.15-.23l-.39-.68a11.66,11.66,0,0,1-.57-1.09c-.21-.44-.47-.92-.68-1.49l-.37-.88c-.12-.31-.22-.64-.34-1-.25-.67-.44-1.4-.65-2.18a31.67,31.67,0,0,1-.85-5.14,31.93,31.93,0,0,1,.07-5.21c.09-.8.17-1.56.32-2.26.06-.35.11-.69.19-1s.15-.63.23-.93c.13-.59.31-1.11.45-1.57a10.2,10.2,0,0,1,.4-1.16c.12-.3.21-.54.29-.73a.85.85,0,0,1,.11-.25,1.29,1.29,0,0,1-.07.27c-.06.19-.15.43-.25.73s-.24.71-.36,1.18-.3,1-.42,1.57c-.07.3-.14.6-.21.93s-.11.66-.18,1c-.13.7-.2,1.46-.3,2.25a35.3,35.3,0,0,0-.05,5.17,33.89,33.89,0,0,0,.83,5.11c.21.77.39,1.51.63,2.18.11.33.21.66.33,1l.34.88c.21.57.46,1.06.65,1.49s.38.81.54,1.11.26.52.35.7S-2291.63,1491.68-2291.64,1491.69Z" transform="translate(2681.27 -1244.49)"/>
      <path class="cls-4" d="M-2273,1474.1a1.94,1.94,0,0,1-.7-.64,3.66,3.66,0,0,1-.73-2.15,3.7,3.7,0,0,1,.73-2.14,2.14,2.14,0,0,1,.7-.64s-.25.26-.56.73a3.69,3.69,0,0,0-.64,2,3.81,3.81,0,0,0,.63,2.06C-2273.24,1473.84-2273,1474.07-2273,1474.1Z" transform="translate(2681.27 -1244.49)"/>
      <path class="cls-4" d="M-2268.13,1465.15c-.07,0-.13-.42-.15-.94a2,2,0,0,1,.08-.94,2,2,0,0,1,.15.93A2.09,2.09,0,0,1-2268.13,1465.15Z" transform="translate(2681.27 -1244.49)"/>
      <path class="cls-4" d="M-2265.49,1452.64a4.82,4.82,0,0,1-.75,0l-.87,0c-.33,0-.72,0-1.14,0s-.9,0-1.39.11-1,.12-1.59.21a27.25,27.25,0,0,0-3.54.88,27.35,27.35,0,0,0-3.37,1.41c-.5.27-1,.51-1.4.78s-.82.51-1.17.74-.66.47-.93.67-.5.38-.69.53a5,5,0,0,1-.59.45,3.59,3.59,0,0,1,.54-.52c.17-.16.39-.35.66-.56s.56-.46.92-.7.73-.51,1.17-.77.89-.53,1.39-.8a24.85,24.85,0,0,1,3.39-1.44,24.93,24.93,0,0,1,3.59-.88c.56-.07,1.09-.16,1.6-.19s1-.07,1.4-.08.82,0,1.16,0,.63,0,.87,0A5,5,0,0,1-2265.49,1452.64Z" transform="translate(2681.27 -1244.49)"/>
      <path class="cls-4" d="M-2261.54,1505.09a2.18,2.18,0,0,1-.54.17c-.35.09-.86.2-1.5.31a22.67,22.67,0,0,1-5,.23,21.63,21.63,0,0,1-5-.91c-.62-.19-1.11-.36-1.45-.5a2.61,2.61,0,0,1-.51-.24,3,3,0,0,1,.54.15c.34.12.84.27,1.46.44a25.36,25.36,0,0,0,4.93.84,25.71,25.71,0,0,0,5-.17c.63-.09,1.15-.17,1.5-.24A4,4,0,0,1-2261.54,1505.09Z" transform="translate(2681.27 -1244.49)"/>
    </g>
    <path class="cls-12" d="M-2428.65,1704.49" transform="translate(2681.27 -1244.49)"/>
    <g>
      <g>
        <path class="cls-6" d="M-2364.47,1683.92l-135.6-.62a29.39,29.39,0,0,1-29.4-29.39L-2528,1317a29.41,29.41,0,0,1,29.67-29.15l135.6.62a29.41,29.41,0,0,1,29.4,29.4l-1.43,336.9A29.4,29.4,0,0,1-2364.47,1683.92Z" transform="translate(2681.27 -1244.49)"/>
        <path class="cls-13" d="M-2362.95,1300.11l-26.29-.12-76.78-.35-9.25,0-23-.11a20.6,20.6,0,0,0-20.78,20.42l-1.4,328.83a20.6,20.6,0,0,0,20.59,20.59l135.33.62a20.6,20.6,0,0,0,20.78-20.42l1.4-328.83A20.59,20.59,0,0,0-2362.95,1300.11Z" transform="translate(2681.27 -1244.49)"/>
      </g>
      <g>
        <path class="cls-6" d="M-2361.95,1330a1.69,1.69,0,0,1-1.7,1.67,1.68,1.68,0,0,1-1.68-1.69,1.69,1.69,0,0,1,1.7-1.67A1.69,1.69,0,0,1-2361.95,1330Z" transform="translate(2681.27 -1244.49)"/>
        <path class="cls-6" d="M-2362,1336a1.69,1.69,0,0,1-1.7,1.68,1.69,1.69,0,0,1-1.69-1.69,1.69,1.69,0,0,1,1.7-1.67A1.69,1.69,0,0,1-2362,1336Z" transform="translate(2681.27 -1244.49)"/>
        <path class="cls-6" d="M-2362,1342.07a1.69,1.69,0,0,1-1.7,1.67,1.69,1.69,0,0,1-1.69-1.68,1.69,1.69,0,0,1,1.7-1.68A1.69,1.69,0,0,1-2362,1342.07Z" transform="translate(2681.27 -1244.49)"/>
      </g>
      <g>
        <rect class="cls-2" x="185.33" y="142.81" width="144.25" height="90.69" rx="4.3"/>
        <rect class="cls-3" x="181.36" y="136.93" width="144.25" height="90.69" rx="4.3"/>
        <g>
          <rect class="cls-14" x="176.79" y="132.03" width="144.25" height="90.69" rx="4.3"/>
          <g>
            <path class="cls-4" d="M-2480.72,1397.23c0,1.17-.93,1.84-2.71,1.84h-3.5v-6.71h3.31c1.69,0,2.56.69,2.56,1.74a1.62,1.62,0,0,1-.9,1.48A1.66,1.66,0,0,1-2480.72,1397.23Zm-4.65-3.71v1.59h1.55c.77,0,1.18-.27,1.18-.8s-.41-.79-1.18-.79Zm3.07,3.55c0-.56-.43-.83-1.25-.83h-1.82v1.66h1.82C-2482.73,1397.9-2482.3,1397.65-2482.3,1397.07Z" transform="translate(2681.27 -1244.49)"/>
            <path class="cls-4" d="M-2475.08,1397.63h-3.14l-.6,1.44h-1.61l3-6.71h1.55l3,6.71h-1.65Zm-.49-1.18-1.07-2.57-1.08,2.57Z" transform="translate(2681.27 -1244.49)"/>
            <path class="cls-4" d="M-2465.92,1392.36v6.71h-1.29l-3.38-4.08v4.08h-1.54v-6.71h1.29l3.37,4.07v-4.07Z" transform="translate(2681.27 -1244.49)"/>
            <path class="cls-4" d="M-2461.86,1396.43l-.9.94v1.7h-1.56v-6.71h1.56v3.13l3-3.13h1.74l-2.8,3,3,3.72h-1.83Z" transform="translate(2681.27 -1244.49)"/>
          </g>
          <g>
            <path class="cls-4" d="M-2482,1425.14h-1.24v1.62h-.64v-1.62h-3.51v-.46l3.29-4.08h.72l-3.18,4h2.7v-1.43h.62v1.43h1.24Z" transform="translate(2681.27 -1244.49)"/>
            <path class="cls-4" d="M-2477.43,1425c0,1-.75,1.82-2.25,1.82a3.27,3.27,0,0,1-2.24-.79l.31-.5a2.76,2.76,0,0,0,1.93.71c1,0,1.6-.47,1.6-1.24s-.53-1.22-1.68-1.22h-.45v-.47l1.73-2.14h-3.18v-.56h4v.45l-1.75,2.19C-2478.09,1423.31-2477.43,1424-2477.43,1425Z" transform="translate(2681.27 -1244.49)"/>
            <path class="cls-4" d="M-2472.4,1425c0,1-.74,1.86-2.26,1.86a3.23,3.23,0,0,1-2.22-.79l.31-.5a2.72,2.72,0,0,0,1.91.71c1,0,1.61-.51,1.61-1.26s-.5-1.28-2.08-1.28h-1.32l.32-3.09h3.4v.56h-2.84l-.21,2h.8C-2473.11,1423.12-2472.4,1423.85-2472.4,1425Z" transform="translate(2681.27 -1244.49)"/>
            <path class="cls-4" d="M-2466.92,1424.92a1.93,1.93,0,0,1-2.12,1.89c-1.66,0-2.55-1.13-2.55-3.08s1.15-3.18,2.84-3.18a2.83,2.83,0,0,1,1.47.33l-.26.51a2.16,2.16,0,0,0-1.2-.29c-1.34,0-2.21.85-2.21,2.53a4.9,4.9,0,0,0,0,.5,2,2,0,0,1,1.9-1.06A1.88,1.88,0,0,1-2466.92,1424.92Zm-.63,0c0-.81-.61-1.33-1.57-1.33a1.43,1.43,0,0,0-1.59,1.34c0,.68.56,1.32,1.64,1.32A1.35,1.35,0,0,0-2467.55,1424.94Z" transform="translate(2681.27 -1244.49)"/>
            <path class="cls-4" d="M-2453.49,1426.76l-1.48-1.94-1.49,1.94h-.72l1.85-2.38-1.76-2.25h.71l1.41,1.81,1.4-1.81h.69l-1.76,2.25,1.87,2.38Z" transform="translate(2681.27 -1244.49)"/>
            <path class="cls-4" d="M-2448.75,1426.76l-1.48-1.94-1.49,1.94h-.71l1.84-2.38-1.75-2.25h.71l1.4,1.81,1.4-1.81h.69l-1.75,2.25,1.86,2.38Z" transform="translate(2681.27 -1244.49)"/>
            <path class="cls-4" d="M-2444,1426.76l-1.48-1.94-1.49,1.94h-.71l1.84-2.38-1.75-2.25h.71l1.4,1.81,1.4-1.81h.7l-1.76,2.25,1.86,2.38Z" transform="translate(2681.27 -1244.49)"/>
            <path class="cls-4" d="M-2439.27,1426.76l-1.48-1.94-1.49,1.94h-.71l1.85-2.38-1.76-2.25h.71l1.4,1.81,1.4-1.81h.7l-1.76,2.25,1.86,2.38Z" transform="translate(2681.27 -1244.49)"/>
            <path class="cls-4" d="M-2422.89,1426.76l-1.49-1.94-1.49,1.94h-.71l1.85-2.38-1.76-2.25h.71l1.4,1.81,1.41-1.81h.69l-1.76,2.25,1.87,2.38Z" transform="translate(2681.27 -1244.49)"/>
            <path class="cls-4" d="M-2418.15,1426.76l-1.49-1.94-1.49,1.94h-.71l1.85-2.38-1.76-2.25h.71l1.4,1.81,1.41-1.81h.69l-1.76,2.25,1.87,2.38Z" transform="translate(2681.27 -1244.49)"/>
            <path class="cls-4" d="M-2413.41,1426.76l-1.48-1.94-1.5,1.94h-.71l1.85-2.38-1.76-2.25h.71l1.41,1.81,1.4-1.81h.69l-1.76,2.25,1.87,2.38Z" transform="translate(2681.27 -1244.49)"/>
            <path class="cls-4" d="M-2408.67,1426.76l-1.48-1.94-1.49,1.94h-.72l1.85-2.38-1.76-2.25h.71l1.41,1.81,1.4-1.81h.69l-1.76,2.25,1.87,2.38Z" transform="translate(2681.27 -1244.49)"/>
            <path class="cls-4" d="M-2394,1420.6v6.16h-.64v-5.6h-1.46v-.56Z" transform="translate(2681.27 -1244.49)"/>
            <path class="cls-4" d="M-2388.37,1425c0,1-.76,1.82-2.26,1.82a3.27,3.27,0,0,1-2.24-.79l.31-.5a2.76,2.76,0,0,0,1.93.71c1,0,1.6-.47,1.6-1.24s-.53-1.22-1.68-1.22h-.44v-.47l1.72-2.14h-3.18v-.56h4v.45l-1.76,2.19C-2389,1423.31-2388.37,1424-2388.37,1425Z" transform="translate(2681.27 -1244.49)"/>
            <path class="cls-4" d="M-2382.19,1425.14h-1.25v1.62h-.64v-1.62h-3.5v-.46l3.29-4.08h.71l-3.18,4h2.7v-1.43h.62v1.43h1.25Z" transform="translate(2681.27 -1244.49)"/>
            <path class="cls-4" d="M-2377.4,1426.2v.56h-4.36v-.45l2.58-2.51c.71-.68.84-1.1.84-1.52,0-.71-.51-1.15-1.46-1.15a2.12,2.12,0,0,0-1.69.68l-.46-.38a2.8,2.8,0,0,1,2.21-.88c1.26,0,2.06.63,2.06,1.66a2.54,2.54,0,0,1-1,1.93l-2.12,2.06Z" transform="translate(2681.27 -1244.49)"/>
          </g>
          <g>
            <path class="cls-4" d="M-2490.58,1439.54A1.52,1.52,0,0,1-2489,1438a1.55,1.55,0,0,1,1.22.52l-.44.41a1,1,0,0,0-.74-.35.91.91,0,0,0-1,.94.9.9,0,0,0,1,.94.94.94,0,0,0,.74-.34l.44.4a1.51,1.51,0,0,1-1.22.52A1.52,1.52,0,0,1-2490.58,1439.54Z" transform="translate(2681.27 -1244.49)"/>
            <path class="cls-4" d="M-2485.38,1440.38h-1.38l-.26.63h-.71l1.32-2.94h.68l1.33,2.94h-.72Zm-.22-.51-.47-1.13-.47,1.13Z" transform="translate(2681.27 -1244.49)"/>
            <path class="cls-4" d="M-2482.2,1441l-.57-.82h-.63v.82h-.69v-2.94h1.29c.79,0,1.28.41,1.28,1.07a1,1,0,0,1-.61.93l.67.94Zm-.64-2.38h-.56v1h.56c.42,0,.63-.19.63-.51S-2482.42,1438.63-2482.84,1438.63Z" transform="translate(2681.27 -1244.49)"/>
            <path class="cls-4" d="M-2481.2,1440.72l.23-.51a1.76,1.76,0,0,0,1,.31c.41,0,.57-.14.57-.32,0-.55-1.72-.17-1.72-1.26,0-.5.41-.92,1.25-.92a2,2,0,0,1,1,.26l-.21.52a1.77,1.77,0,0,0-.83-.23c-.4,0-.56.15-.56.34,0,.54,1.73.16,1.73,1.24,0,.49-.42.91-1.26.91A2.14,2.14,0,0,1-2481.2,1440.72Z" transform="translate(2681.27 -1244.49)"/>
            <path class="cls-4" d="M-2474.34,1438.07V1441h-.69v-1.2h-1.34v1.2h-.69v-2.94h.69v1.16h1.34v-1.16Z" transform="translate(2681.27 -1244.49)"/>
            <path class="cls-4" d="M-2473.82,1439.54a1.53,1.53,0,0,1,1.63-1.52,1.53,1.53,0,0,1,1.62,1.52,1.53,1.53,0,0,1-1.62,1.52A1.53,1.53,0,0,1-2473.82,1439.54Zm2.55,0a.9.9,0,0,0-.92-.94.91.91,0,0,0-.93.94.9.9,0,0,0,.93.94A.9.9,0,0,0-2471.27,1439.54Z" transform="translate(2681.27 -1244.49)"/>
            <path class="cls-4" d="M-2470,1438.07h.69v2.39h1.48v.55H-2470Z" transform="translate(2681.27 -1244.49)"/>
            <path class="cls-4" d="M-2467.49,1438.07h1.35a1.48,1.48,0,0,1,1.64,1.47,1.48,1.48,0,0,1-1.64,1.47h-1.35Zm1.32,2.38a.87.87,0,0,0,1-.91.88.88,0,0,0-1-.91h-.63v1.82Z" transform="translate(2681.27 -1244.49)"/>
            <path class="cls-4" d="M-2461.68,1440.47v.54h-2.3v-2.94h2.24v.55h-1.56v.64h1.38v.53h-1.38v.68Z" transform="translate(2681.27 -1244.49)"/>
            <path class="cls-4" d="M-2459.24,1441l-.58-.82h-.63v.82h-.68v-2.94h1.28c.79,0,1.29.41,1.29,1.07a1,1,0,0,1-.61.93l.66.94Zm-.65-2.38h-.56v1h.56c.42,0,.63-.19.63-.51S-2459.47,1438.63-2459.89,1438.63Z" transform="translate(2681.27 -1244.49)"/>
          </g>
          <rect class="cls-4" x="190.01" y="203.83" width="44" height="3.77" rx="0.81"/>
          <rect class="cls-4" x="282.29" y="203.83" width="24.44" height="3.77" rx="0.81"/>
        </g>
        <g class="cls-11">
          <path class="cls-4" d="M-2365,1376.52h-134.7a4.76,4.76,0,0,0-4.78,4.74v23.94c8.52,5.88,20.2,6.92,30.57,4.77,12.23-2.53,23.3-8.73,34.68-13.8s23.9-9.16,36.21-7.07c11.62,2,21.52,9.15,32,14.45a62.39,62.39,0,0,0,10.77,4.31v-26.6A4.76,4.76,0,0,0-2365,1376.52Z" transform="translate(2681.27 -1244.49)"/>
        </g>
      </g>
      <g>
        <g>
          <rect class="cls-14" x="179.8" y="258.06" width="37.45" height="37.11" rx="7.99"/>
          <g>
            <path class="cls-4" d="M-2479,1526.78h-8.18a.47.47,0,0,1-.47-.36l-3-11.94h-2.84a.48.48,0,0,1-.49-.48.49.49,0,0,1,.49-.48h3.22a.47.47,0,0,1,.46.36l3,11.94h7.81a.49.49,0,0,1,.48.48A.49.49,0,0,1-2479,1526.78Z" transform="translate(2681.27 -1244.49)"/>
            <g>
              <ellipse class="cls-9" cx="195.59" cy="284.58" rx="1.53" ry="1.52"/>
              <path class="cls-4" d="M-2485.67,1531.07a2,2,0,0,1-2-2,2,2,0,0,1,2-2,2,2,0,0,1,2,2A2,2,0,0,1-2485.67,1531.07Zm0-3a1,1,0,0,0-1,1,1,1,0,0,0,1,1,1.05,1.05,0,0,0,1.05-1A1.05,1.05,0,0,0-2485.67,1528Z" transform="translate(2681.27 -1244.49)"/>
            </g>
            <g>
              <ellipse class="cls-9" cx="204.1" cy="284.58" rx="1.53" ry="1.52"/>
              <path class="cls-4" d="M-2477.16,1531.07a2,2,0,0,1-2-2,2,2,0,0,1,2-2,2,2,0,0,1,2,2A2,2,0,0,1-2477.16,1531.07Zm0-3a1,1,0,0,0-1.05,1,1,1,0,0,0,1.05,1,1,1,0,0,0,1-1A1,1,0,0,0-2477.16,1528Z" transform="translate(2681.27 -1244.49)"/>
            </g>
            <path class="cls-4" d="M-2475.84,1524.57h-11.66a.48.48,0,0,1-.49-.47.48.48,0,0,1,.49-.48h11.25l1.28-7.15h-14.7a.48.48,0,0,1-.48-.48.48.48,0,0,1,.49-.48h15.27a.48.48,0,0,1,.37.17.46.46,0,0,1,.1.39l-1.45,8.11A.47.47,0,0,1-2475.84,1524.57Z" transform="translate(2681.27 -1244.49)"/>
          </g>
        </g>
        <rect class="cls-3" x="229.67" y="264.58" width="75.96" height="8.96" rx="1.93"/>
        <rect class="cls-3" x="229.67" y="282.19" width="38.4" height="8.96" rx="1.93"/>
      </g>
      <path class="cls-3" d="M-2344.06,1488.57c0,.14-39.53.26-88.29.26s-88.29-.12-88.29-.26,39.52-.26,88.29-.26S-2344.06,1488.43-2344.06,1488.57Z" transform="translate(2681.27 -1244.49)"/>
      <g>
        <rect class="cls-14" x="192.27" y="310.05" width="115.16" height="38.48" rx="8.28"/>
        <g>
          <path class="cls-4" d="M-2433.68,1572c0,1.93-1.47,3.14-3.81,3.14h-1.5v2.22h-2.42v-8.5h3.92C-2435.15,1568.81-2433.68,1570-2433.68,1572Zm-2.45,0c0-.79-.5-1.25-1.51-1.25H-2439v2.49h1.35C-2436.63,1573.19-2436.13,1572.73-2436.13,1572Z" transform="translate(2681.27 -1244.49)"/>
          <path class="cls-4" d="M-2427.19,1575.66h-3.62l-.68,1.65H-2434l3.78-8.5h2.39l3.8,8.5h-2.52Zm-.71-1.78-1.1-2.72-1.1,2.72Z" transform="translate(2681.27 -1244.49)"/>
          <path class="cls-4" d="M-2419.25,1574.26v3h-2.42v-3.09l-3.28-5.41h2.57l2,3.37,2-3.37h2.35Z" transform="translate(2681.27 -1244.49)"/>
        </g>
      </g>
      <ellipse class="cls-9" cx="182.1" cy="94.24" rx="7.47" ry="7.41"/>
      <rect class="cls-3" x="220.92" y="90.44" width="55.99" height="6.49" rx="1.4"/>
      <rect class="cls-6" x="198.36" y="359.62" width="114.3" height="7.57"/>
      <g>
        <path class="cls-13" d="M-2477.49,1607.89c1,.33,14.39.33,14.39,26.54s-.67,58.7,13.39,59.7,88,0,88,0v-65.76a20,20,0,0,0-20-19.93Z" transform="translate(2681.27 -1244.49)"/>
        <path class="cls-6" d="M-2477.49,1607.89l55.6.17,28.21.1,7.73,0a44.94,44.94,0,0,1,8,.39,20.37,20.37,0,0,1,7.61,3.11,20.39,20.39,0,0,1,5.84,6.07,19.91,19.91,0,0,1,2.89,8.09,35.73,35.73,0,0,1,.18,4.38v4.4q0,8.85,0,18.06v41.68h-.26c-25.86.3-50.47.53-72.82.36-2.79,0-5.55-.07-8.28-.13s-5.39-.07-8.07-.43a9.1,9.1,0,0,1-3.63-1.69,13.32,13.32,0,0,1-2.6-2.92,26.64,26.64,0,0,1-3-6.94,76.85,76.85,0,0,1-2.37-14.05c-.41-4.55-.59-8.94-.69-13.12-.22-8.35-.05-15.92-.15-22.54s-1.17-12.33-3.23-16.52a18.11,18.11,0,0,0-3.58-5,13.84,13.84,0,0,0-3.77-2.49,19,19,0,0,0-3.62-1l.95.15a12.83,12.83,0,0,1,2.71.77,13.92,13.92,0,0,1,3.84,2.48,18.2,18.2,0,0,1,3.65,5c2.11,4.21,3.18,10,3.34,16.6s0,14.19.22,22.55c.12,4.17.31,8.54.72,13.08a75.73,75.73,0,0,0,2.4,14,25.83,25.83,0,0,0,2.94,6.82,12.9,12.9,0,0,0,2.51,2.81,8.69,8.69,0,0,0,3.44,1.6c2.56.34,5.29.31,8,.41s5.48.1,8.27.12c22.35.14,47-.1,72.82-.41l-.26.26v-3.46c0-13,0-25.71,0-38v-22.46a34.38,34.38,0,0,0-.16-4.32,19.67,19.67,0,0,0-2.82-7.9,20,20,0,0,0-5.69-5.93A20.07,20.07,0,0,0-2378,1609a45.3,45.3,0,0,0-7.88-.39l-7.7-.05-28.07-.22Z" transform="translate(2681.27 -1244.49)"/>
      </g>
      <path class="cls-3" d="M-2449.37,1694.13s11.57,0,14-16.92c3-20.15,0-37.81,15.73-38.47s57.9,0,57.9,0v55.39Z" transform="translate(2681.27 -1244.49)"/>
      <g>
        <path class="cls-13" d="M-2421.57,1638.94s12.69-1.53,12.69,19.37.33,34.71,14.39,36.26,100.41,0,100.41,0-13.73-6.41-14.73-25.32-5-30.44-18.74-30.81S-2421.57,1638.94-2421.57,1638.94Z" transform="translate(2681.27 -1244.49)"/>
        <path class="cls-6" d="M-2421.57,1638.94l.86,0,2.49-.05,9.62-.14,35.39-.39,24.47-.17h13.64c2.34,0,4.72,0,7.13.06a21,21,0,0,1,7.25,1.38,14.85,14.85,0,0,1,5.89,4.69,24.16,24.16,0,0,1,3.47,6.85,67.1,67.1,0,0,1,2.64,15.54c.09,1.33.16,2.68.31,4l.2,2,.37,2,.19,1,.28,1,.56,1.95a34.73,34.73,0,0,0,1.59,3.78,27.44,27.44,0,0,0,11.25,12l.87.47-1,0-2.39,0c-23.17.38-45.25.63-65.33.62-10,0-19.59,0-28.52-.42a40.64,40.64,0,0,1-6.57-.7,13.37,13.37,0,0,1-5.69-2.85,14,14,0,0,1-3.53-5,26.19,26.19,0,0,1-1.69-5.55,69.66,69.66,0,0,1-1.08-10.7c-.13-3.39-.14-6.59-.14-9.58,0-1.49,0-2.94-.07-4.32,0-.69,0-1.37-.1-2s-.16-1.31-.24-1.94c0-.32-.08-.63-.11-.94l-.21-.9c-.13-.6-.27-1.18-.39-1.74l-.56-1.61-.27-.77-.36-.72a12.19,12.19,0,0,0-3.32-4.41,9.74,9.74,0,0,0-3.57-1.95,10,10,0,0,0-2.48-.45,4.93,4.93,0,0,0-.65,0h-.22a1.18,1.18,0,0,1,.22,0,6.2,6.2,0,0,1,.65,0,9.27,9.27,0,0,1,2.51.4,9.81,9.81,0,0,1,3.64,1.93,12.43,12.43,0,0,1,3.4,4.45c2,3.8,2.45,9.1,2.42,15,0,3,0,6.18.18,9.57a69.7,69.7,0,0,0,1.11,10.63,26.2,26.2,0,0,0,1.68,5.48,13.56,13.56,0,0,0,3.45,4.81,12.72,12.72,0,0,0,5.52,2.74,39.2,39.2,0,0,0,6.49.68c8.92.36,18.46.37,28.5.38,20.07,0,42.15-.29,65.32-.67l2.39,0-.1.49a27.84,27.84,0,0,1-11.5-12.22,36.52,36.52,0,0,1-1.61-3.83l-.57-2-.28-1-.19-1-.38-2-.2-2c-.15-1.35-.22-2.68-.31-4a66.58,66.58,0,0,0-2.6-15.41,24,24,0,0,0-3.39-6.72,14.35,14.35,0,0,0-5.69-4.54,20.26,20.26,0,0,0-7.07-1.35c-2.4-.05-4.78-.07-7.13-.08h-13.63l-24.47.11-35.39.22-9.61,0h-3.36Z" transform="translate(2681.27 -1244.49)"/>
      </g>
      <path class="cls-6" d="M-2418.22,1638.9c0,.06-1,0-2.81.21a12.1,12.1,0,0,0-6.72,3.25c-2.36,2.17-4.12,5.73-5,9.85s-1,8.84-1.18,13.75a67.14,67.14,0,0,1-1.61,13.8,33.65,33.65,0,0,1-2.07,5.72,21.2,21.2,0,0,1-2.74,4.57,11.14,11.14,0,0,1-3.38,2.82,11.61,11.61,0,0,1-3.15,1.09,13.09,13.09,0,0,1-2.1.19,4.07,4.07,0,0,1-.73,0,3.54,3.54,0,0,1,.73-.09,13.54,13.54,0,0,0,2.05-.28,11.67,11.67,0,0,0,3.06-1.14,11.18,11.18,0,0,0,3.23-2.8,20.91,20.91,0,0,0,2.63-4.51,34,34,0,0,0,2-5.67,68.67,68.67,0,0,0,1.56-13.7c.22-4.9.28-9.63,1.23-13.83s2.75-7.81,5.21-10a12.08,12.08,0,0,1,7-3.18,7.73,7.73,0,0,1,1.21-.08,6.55,6.55,0,0,1,.89,0A3.81,3.81,0,0,1-2418.22,1638.9Z" transform="translate(2681.27 -1244.49)"/>
      <path class="cls-3" d="M-2376.1,1623.08c0,.14-16.22.25-36.22.25s-36.22-.11-36.22-.25,16.21-.26,36.22-.26S-2376.1,1622.93-2376.1,1623.08Z" transform="translate(2681.27 -1244.49)"/>
      <path class="cls-3" d="M-2374.61,1633.75c0,.15-15.68.26-35,.26s-35-.11-35-.26,15.68-.25,35-.25S-2374.61,1633.61-2374.61,1633.75Z" transform="translate(2681.27 -1244.49)"/>
      <path class="cls-3" d="M-2325.22,1654.52c0,.14-16.21.26-36.21.26s-36.23-.12-36.23-.26,16.22-.26,36.23-.26S-2325.22,1654.38-2325.22,1654.52Z" transform="translate(2681.27 -1244.49)"/>
      <path class="cls-3" d="M-2324.32,1667c0,.14-14.88.26-33.22.26s-33.23-.12-33.23-.26,14.87-.26,33.23-.26S-2324.32,1666.84-2324.32,1667Z" transform="translate(2681.27 -1244.49)"/>
    </g>
    <rect class="cls-4" x="286.21" y="144.61" width="13.36" height="13.24" rx="2.85"/>
    <g>
      <g>
        <path class="cls-4" d="M-2631.6,1374.56l-6.62-.79A25.55,25.55,0,0,1-2653,1378a25.42,25.42,0,0,1-24.65-23.37,25.28,25.28,0,0,1,26-26.95,25.41,25.41,0,0,1,24.6,23,24.92,24.92,0,0,1-4.67,16.85h0Z" transform="translate(2681.27 -1244.49)"/>
        <path class="cls-6" d="M-2631.6,1374.56s0-.17,0-.48,0-.78,0-1.37c0-1.21-.06-3-.1-5.23l.15.07h0a.09.09,0,0,1-.13,0,.11.11,0,0,1,0-.12,24.86,24.86,0,0,0,4.46-11.21,25.76,25.76,0,0,0-.21-7.94,24.87,24.87,0,0,0-3.28-8.41,25.78,25.78,0,0,0-6.86-7.27,24.81,24.81,0,0,0-10-4.26,26,26,0,0,0-11.51.49,24.79,24.79,0,0,0-10.49,5.92,25.44,25.44,0,0,0-4,4.73c-.52.89-1,1.76-1.48,2.67l-.6,1.38-.3.69-.22.72a25.1,25.1,0,0,0-1,11.48,24.19,24.19,0,0,0,3.91,10.12,25.46,25.46,0,0,0,7.14,7.12,25.39,25.39,0,0,0,8.41,3.58l2.1.36c.69.11,1.38.12,2.05.18a21.69,21.69,0,0,0,3.88-.07,25.29,25.29,0,0,0,11.43-4h.06l4.88.64,1.28.17.45.07-.42,0-1.26-.13-4.95-.54.06,0a25.28,25.28,0,0,1-11.5,4.16,22.17,22.17,0,0,1-3.93.1c-.68-.06-1.38-.07-2.08-.17l-2.13-.36a26.05,26.05,0,0,1-8.55-3.59,26.06,26.06,0,0,1-7.26-7.21,24.67,24.67,0,0,1-4-10.28,25.65,25.65,0,0,1,1.05-11.7l.23-.72.3-.71c.2-.47.4-.94.61-1.41.44-.92,1-1.81,1.5-2.71a26,26,0,0,1,4-4.82,25.06,25.06,0,0,1,10.68-6,26.45,26.45,0,0,1,11.71-.49,25,25,0,0,1,10.11,4.36,25.7,25.7,0,0,1,6.94,7.4,25,25,0,0,1,3.29,8.55,25.43,25.43,0,0,1,.17,8,25,25,0,0,1-4.59,11.28l-.14-.12h0a.09.09,0,0,1,.13,0,.07.07,0,0,1,0,.06v5.29c0,.58,0,1,0,1.35S-2631.6,1374.56-2631.6,1374.56Z" transform="translate(2681.27 -1244.49)"/>
      </g>
      <polygon class="cls-9" points="17.75 109.89 20.93 106.51 27.47 111.89 39.53 99.58 42.7 102.74 27.22 118.2 17.75 109.89"/>
    </g>
    <g>
      <g>
        <g>
          <g>
            <path class="cls-15" d="M-2607.51,1342.46a19.17,19.17,0,0,1,20.38-16.08l1,.07c10.66,1.39,15.42,11.14,13.72,21.65l-3.71,37.33-.18,7.71-25.37,2.28.54-16.29s-10.17-2.33-9.55-12.53C-2610.39,1361.68-2608.93,1351.58-2607.51,1342.46Z" transform="translate(2681.27 -1244.49)"/>
            <path class="cls-16" d="M-2601.22,1379.11a25.18,25.18,0,0,0,13.76-2.93s-3.58,7.35-13.77,5.69Z" transform="translate(2681.27 -1244.49)"/>
            <path class="cls-6" d="M-2603.53,1352.63a1.47,1.47,0,0,0,1.31,1.57,1.41,1.41,0,0,0,1.61-1.21,1.47,1.47,0,0,0-1.31-1.57A1.42,1.42,0,0,0-2603.53,1352.63Z" transform="translate(2681.27 -1244.49)"/>
            <path class="cls-6" d="M-2605.67,1347.61c.17.2,1.34-.54,2.92-.42s2.68,1,2.87.81-.07-.44-.55-.84a4.07,4.07,0,0,0-2.28-.88,4,4,0,0,0-2.34.57C-2605.56,1347.18-2605.75,1347.52-2605.67,1347.61Z" transform="translate(2681.27 -1244.49)"/>
            <path class="cls-6" d="M-2588.72,1354a1.47,1.47,0,0,0,1.31,1.57,1.41,1.41,0,0,0,1.61-1.21,1.47,1.47,0,0,0-1.31-1.57A1.41,1.41,0,0,0-2588.72,1354Z" transform="translate(2681.27 -1244.49)"/>
            <path class="cls-6" d="M-2590.16,1349c.17.2,1.35-.53,2.92-.41s2.69,1,2.87.8-.07-.43-.55-.83a4,4,0,0,0-2.27-.88,3.93,3.93,0,0,0-2.35.56C-2590,1348.6-2590.24,1348.93-2590.16,1349Z" transform="translate(2681.27 -1244.49)"/>
            <path class="cls-6" d="M-2596.75,1360.22a10,10,0,0,0-2.53-.64c-.4-.07-.78-.18-.82-.46a2,2,0,0,1,.35-1.16l1.42-3c2-4.22,3.44-7.7,3.27-7.77s-1.92,3.27-3.89,7.49c-.48,1-.94,2-1.37,3a2.28,2.28,0,0,0-.33,1.55,1,1,0,0,0,.62.64,3.43,3.43,0,0,0,.68.14A10.33,10.33,0,0,0-2596.75,1360.22Z" transform="translate(2681.27 -1244.49)"/>
            <path class="cls-6" d="M-2592.17,1361.64c-.26,0-.39,1.67-1.95,2.77s-3.36.78-3.4,1,.39.36,1.16.43a4.33,4.33,0,0,0,2.83-.75,3.72,3.72,0,0,0,1.52-2.33C-2591.9,1362.07-2592.06,1361.64-2592.17,1361.64Z" transform="translate(2681.27 -1244.49)"/>
            <path class="cls-6" d="M-2590.11,1342.85c.12.44,1.71.35,3.55.71s3.3,1,3.58.6c.12-.18-.11-.6-.69-1.05a5.93,5.93,0,0,0-2.6-1.12,6.15,6.15,0,0,0-2.83.12C-2589.8,1342.34-2590.17,1342.65-2590.11,1342.85Z" transform="translate(2681.27 -1244.49)"/>
            <path class="cls-6" d="M-2604.76,1343.12c.26.37,1.37.08,2.68.16s2.4.41,2.69.06c.12-.17,0-.54-.49-.91a3.67,3.67,0,0,0-2.13-.74,3.75,3.75,0,0,0-2.19.56C-2604.69,1342.58-2604.87,1342.93-2604.76,1343.12Z" transform="translate(2681.27 -1244.49)"/>
            <path class="cls-15" d="M-2574.8,1357.9a2.8,2.8,0,0,1,3.21-2.45c1.9.32,4,1.56,3.54,5.47-.74,7-7.63,4.79-7.62,4.59S-2575.14,1360.81-2574.8,1357.9Z" transform="translate(2681.27 -1244.49)"/>
            <path class="cls-16" d="M-2573.86,1363.05s.11.1.31.21a1.18,1.18,0,0,0,.91.12,3,3,0,0,0,1.68-2.54,3.81,3.81,0,0,0-.16-1.77,1.42,1.42,0,0,0-.82-1,.62.62,0,0,0-.75.26c-.12.18-.09.33-.13.33s-.14-.13,0-.41a.84.84,0,0,1,.32-.41,1,1,0,0,1,.7-.1,1.71,1.71,0,0,1,1.16,1.21,4.16,4.16,0,0,1,.22,2,3.17,3.17,0,0,1-2.1,2.82,1.37,1.37,0,0,1-1.1-.3C-2573.87,1363.22-2573.89,1363.06-2573.86,1363.05Z" transform="translate(2681.27 -1244.49)"/>
          </g>
          <g>
            <path class="cls-6" d="M-2569.18,1350.81c-.58,2-.37,5.31-2.17,4.86-3.57-.89-2.71,6.35-4.43,5.64s-3.18-2.76-3.28-7.22c-.14-5.66,2.16-9.74-.09-16.23a8.67,8.67,0,0,0-7.22-4.44,8.84,8.84,0,0,0-7.58,4c-.32-2-1.29-5-3.06-5.91a5.19,5.19,0,0,0-5.68.47,4.12,4.12,0,0,0-.74,5.41,2,2,0,0,1-2.24-.8,3.32,3.32,0,0,0,.89,2.54,3.1,3.1,0,0,1-1.81-1.25c.17.82.35,1.64.53,2.45-3,.08-6-2.8-6.79-5.37-1.26-3.9-.29-7.82,1.91-11.29a12.36,12.36,0,0,1,10.25-5.86c4.13,0,7.58,2,9.18,5.75,2.67-1.88,8.1-2.53,11.09-1.19a9.58,9.58,0,0,1,5.49,7.57,5.8,5.8,0,0,1,5.68,1.09l.38.33a8.43,8.43,0,0,1,2.49,7.84c-.21,1.14-.61,2.31-.84,3.22C-2567.92,1345.1-2569.18,1350.81-2569.18,1350.81Z" transform="translate(2681.27 -1244.49)"/>
            <path class="cls-7" d="M-2606.14,1336.38s-.09-.05-.24-.18a4.07,4.07,0,0,1-.59-.65,5.9,5.9,0,0,1-1.18-3,5.6,5.6,0,0,1,1.4-4.46,6.18,6.18,0,0,1,5.36-2,7.06,7.06,0,0,1,2.85,1.11,9.17,9.17,0,0,1,2.1,1.9,11,11,0,0,1,2.15,4.22,10.91,10.91,0,0,1,.35,3.17,8.49,8.49,0,0,1-.09.86,1.21,1.21,0,0,1-.06.3,13.24,13.24,0,0,0-.41-4.28,11.15,11.15,0,0,0-2.16-4.09,7.91,7.91,0,0,0-4.77-2.88,5.92,5.92,0,0,0-5.11,1.89,5.45,5.45,0,0,0-1.39,4.25,6,6,0,0,0,1,2.91C-2606.45,1336.09-2606.12,1336.36-2606.14,1336.38Z" transform="translate(2681.27 -1244.49)"/>
            <path class="cls-7" d="M-2607.52,1339.5a2.17,2.17,0,0,1-.21-.34c-.13-.23-.32-.57-.55-1a21.19,21.19,0,0,1-1.66-3.88,11.5,11.5,0,0,1-.46-2.89,8.27,8.27,0,0,1,.61-3.31,6.5,6.5,0,0,1,2.41-2.84,7.94,7.94,0,0,1,3.82-1.25,9.72,9.72,0,0,1,4,.63,12.59,12.59,0,0,1,3.26,1.84,9.59,9.59,0,0,1,3.55,5.1,6.93,6.93,0,0,1-.21,4.19,4.93,4.93,0,0,1-.52,1,1.69,1.69,0,0,1-.25.32,8.88,8.88,0,0,0,.66-1.38,7,7,0,0,0,.11-4.09,9.5,9.5,0,0,0-3.52-4.94,10.75,10.75,0,0,0-7-2.38,7.64,7.64,0,0,0-3.67,1.19,6.22,6.22,0,0,0-2.32,2.71,7.93,7.93,0,0,0-.61,3.19,10.78,10.78,0,0,0,.42,2.83,24,24,0,0,0,1.54,3.89l.5,1A2.21,2.21,0,0,1-2607.52,1339.5Z" transform="translate(2681.27 -1244.49)"/>
            <path class="cls-7" d="M-2571.66,1346.31s.65-.52,1.5-1.53a10.42,10.42,0,0,0,2.24-4.54,10.41,10.41,0,0,0-.23-5c-.38-1.26-.82-2-.77-2a1.88,1.88,0,0,1,.33.48,8.69,8.69,0,0,1,.65,1.45,10,10,0,0,1,.33,5.18,10,10,0,0,1-2.38,4.63,9,9,0,0,1-1.18,1.07A1.81,1.81,0,0,1-2571.66,1346.31Z" transform="translate(2681.27 -1244.49)"/>
            <path class="cls-7" d="M-2578.06,1346.11s.35-.15.91-.53a5.14,5.14,0,0,0,1.77-2.12l.29-.66-.06.72c-.09,1-.19,2.11-.3,3.34l-.23-.14a9.11,9.11,0,0,0,2.29-2.23,8.87,8.87,0,0,0,1.57-3.66,9,9,0,0,0,0-3.28,12.76,12.76,0,0,0-1-2.87s0,0,.13.17a3.94,3.94,0,0,1,.31.53,8.53,8.53,0,0,1,.77,2.13,9.05,9.05,0,0,1,.08,3.36,8.78,8.78,0,0,1-1.6,3.8,9,9,0,0,1-2.38,2.29l-.26.18,0-.31c.13-1.22.25-2.35.36-3.33l.23.06a5,5,0,0,1-1.92,2.13,4.07,4.07,0,0,1-.71.35A.79.79,0,0,1-2578.06,1346.11Z" transform="translate(2681.27 -1244.49)"/>
            <path class="cls-7" d="M-2580,1331.45a6.55,6.55,0,0,0-1.63-2,6,6,0,0,0-2.53-1.17,6.34,6.34,0,0,0-3.38.31,7.19,7.19,0,0,0-2.83,1.89,8.77,8.77,0,0,0-1.53,2.35,16.49,16.49,0,0,0-.76,2.5,2.25,2.25,0,0,1,.05-.71,8.94,8.94,0,0,1,.51-1.87,8.36,8.36,0,0,1,1.52-2.46,7.33,7.33,0,0,1,2.93-2,6.45,6.45,0,0,1,3.55-.29,6,6,0,0,1,2.61,1.27,5.27,5.27,0,0,1,1.23,1.51,2.43,2.43,0,0,1,.21.49C-2580,1331.38-2580,1331.44-2580,1331.45Z" transform="translate(2681.27 -1244.49)"/>
            <path class="cls-7" d="M-2581.65,1326.13a11,11,0,0,0-1.94-.74,7.11,7.11,0,0,0-4.83.68,8.58,8.58,0,0,0-3.41,3.52c-.61,1.12-.81,1.91-.86,1.89a1.64,1.64,0,0,1,.11-.56,8.12,8.12,0,0,1,.55-1.43,8.38,8.38,0,0,1,3.47-3.69,7,7,0,0,1,5-.62,5.37,5.37,0,0,1,1.43.61A1.87,1.87,0,0,1-2581.65,1326.13Z" transform="translate(2681.27 -1244.49)"/>
          </g>
        </g>
        <g>
          <path class="cls-6" d="M-2604.25,1654.64l.71,19.08s-19.33,7.12-19.55,10.66l37.38,0,.13-29.77Z" transform="translate(2681.27 -1244.49)"/>
          <path class="cls-3" d="M-2592,1672.1a1.51,1.51,0,0,1,1.06,1.73,1.47,1.47,0,0,1-1.71,1.05,1.59,1.59,0,0,1-1.11-1.83,1.52,1.52,0,0,1,1.9-.9" transform="translate(2681.27 -1244.49)"/>
          <path class="cls-6" d="M-2585.71,1684.34l-.11-3-35.79,1.16s-1.67.71-1.48,1.88Z" transform="translate(2681.27 -1244.49)"/>
          <path class="cls-4" d="M-2604.15,1673.53c0,.18.92.26,1.82.84s1.38,1.34,1.55,1.27-.11-1.12-1.21-1.8S-2604.19,1673.36-2604.15,1673.53Z" transform="translate(2681.27 -1244.49)"/>
          <path class="cls-4" d="M-2608.07,1675.14c0,.17.75.48,1.37,1.25s.8,1.57,1,1.56.29-1-.5-2S-2608.06,1675-2608.07,1675.14Z" transform="translate(2681.27 -1244.49)"/>
          <path class="cls-4" d="M-2610.29,1679.79c.17,0,.42-.86-.05-1.85s-1.32-1.39-1.4-1.24.45.68.82,1.5S-2610.47,1679.77-2610.29,1679.79Z" transform="translate(2681.27 -1244.49)"/>
          <path class="cls-4" d="M-2603.82,1669.16c.07.17.91-.08,1.94,0s1.84.39,1.93.23-.67-.8-1.89-.86S-2603.91,1669-2603.82,1669.16Z" transform="translate(2681.27 -1244.49)"/>
        </g>
        <g>
          <path class="cls-6" d="M-2561.36,1656.39l1.49,23L-2564,1698a2.36,2.36,0,0,0,2,2.85h0a2.38,2.38,0,0,0,2.07-.69c3.41-3.52,15.91-16.54,15.7-18.22-.23-2,.06-24.42.06-24.42Z" transform="translate(2681.27 -1244.49)"/>
          <path class="cls-6" d="M-2562,1700.85l17.71-20.47,0,1a3.56,3.56,0,0,1-.76,2.34c-1.4,1.78-5.4,6.62-14.85,16.46a2.4,2.4,0,0,1-2.14.69Z" transform="translate(2681.27 -1244.49)"/>
          <g class="cls-17">
            <path class="cls-4" d="M-2549.4,1673.13a1.42,1.42,0,0,0-.32,1.88,1.4,1.4,0,0,0,1.89.33,1.5,1.5,0,0,0,.32-2,1.44,1.44,0,0,0-2-.12" transform="translate(2681.27 -1244.49)"/>
          </g>
          <path class="cls-4" d="M-2557.12,1690.55a7.37,7.37,0,0,0-2.11-1.71,7.47,7.47,0,0,0-2.7-.4s.26-.24.8-.34a3.73,3.73,0,0,1,2.1.28,3.72,3.72,0,0,1,1.63,1.35C-2557.11,1690.19-2557.06,1690.53-2557.12,1690.55Z" transform="translate(2681.27 -1244.49)"/>
          <path class="cls-4" d="M-2558.65,1693.71a21.43,21.43,0,0,0-2.1-.91,22,22,0,0,0-2.29-.2,2.69,2.69,0,0,1,2.42-.29C-2559.24,1692.65-2558.53,1693.64-2558.65,1693.71Z" transform="translate(2681.27 -1244.49)"/>
          <path class="cls-4" d="M-2554.19,1686.47a24,24,0,0,0-3.15-1.62,23.65,23.65,0,0,0-3.49-.66,5.34,5.34,0,0,1,3.65.18A5.29,5.29,0,0,1-2554.19,1686.47Z" transform="translate(2681.27 -1244.49)"/>
          <path class="cls-4" d="M-2554,1679.42c-.06.14-1.37-.34-3-.33s-3,.46-3,.32a4.65,4.65,0,0,1,3-.83A4.67,4.67,0,0,1-2554,1679.42Z" transform="translate(2681.27 -1244.49)"/>
          <path class="cls-4" d="M-2554.32,1672.65a11.43,11.43,0,0,0-3.15-.43,12,12,0,0,0-3.06.89s.2-.35.73-.67a5.11,5.11,0,0,1,2.29-.73,5.1,5.1,0,0,1,2.37.38C-2554.57,1672.33-2554.28,1672.59-2554.32,1672.65Z" transform="translate(2681.27 -1244.49)"/>
          <path class="cls-4" d="M-2557.49,1670.93a2.05,2.05,0,0,1-.06-.88,5.77,5.77,0,0,1,.6-2.31,2.65,2.65,0,0,1,1.11-1.33,1,1,0,0,1,1.09.17,1.49,1.49,0,0,1,.41,1,3.35,3.35,0,0,1-2.83,3.22,3.93,3.93,0,0,1-3.92-1.88,1.3,1.3,0,0,1-.11-1.11,1,1,0,0,1,1-.54,3.48,3.48,0,0,1,1.57.73,6.8,6.8,0,0,1,1.66,1.73,2,2,0,0,1,.39.78,10.73,10.73,0,0,0-2.26-2.21,3.12,3.12,0,0,0-1.38-.61.51.51,0,0,0-.53.29.91.91,0,0,0,.12.73,3.51,3.51,0,0,0,3.42,1.59,2.92,2.92,0,0,0,2.44-2.7,1.15,1.15,0,0,0-.26-.73.53.53,0,0,0-.6-.1,2.54,2.54,0,0,0-1,1.11A9.09,9.09,0,0,0-2557.49,1670.93Z" transform="translate(2681.27 -1244.49)"/>
        </g>
        <g>
          <path class="cls-18" d="M-2620.63,1493.39a81.37,81.37,0,0,0-2.36,24.07c.27,5.13,16.91,153.47,16.91,153.47l21.17-1.89-3.66-138.69.89.79s12.61,58.35,13.45,67.57c.75,8.29,10.81,74.9,10.81,74.9l20.55-1-4.66-84.2-6.23-76.44-2.49-22.26Z" transform="translate(2681.27 -1244.49)"/>
          <path class="cls-7" d="M-2584.49,1518.4a4.72,4.72,0,0,1-1,.52,11.34,11.34,0,0,1-2.94.95,6.13,6.13,0,0,1-2.17,0,4.42,4.42,0,0,1-2.25-1.13,5.42,5.42,0,0,1-1.32-2.41c-.25-.92-.39-1.86-.56-2.83-.67-3.86-1.09-7.38-1.33-9.94-.12-1.28-.19-2.31-.23-3a4.1,4.1,0,0,1,0-1.12,5.22,5.22,0,0,1,.19,1.1c.11.82.24,1.82.39,3,.33,2.54.81,6,1.47,9.9.33,1.9.55,3.84,1.72,5a4.89,4.89,0,0,0,4,1.14,13.89,13.89,0,0,0,2.92-.77A4.49,4.49,0,0,1-2584.49,1518.4Z" transform="translate(2681.27 -1244.49)"/>
          <path class="cls-7" d="M-2591.17,1500.16s.16-.12.49-.13a2.08,2.08,0,0,1,1.31.45,2.34,2.34,0,0,1,.95,1.83,2.18,2.18,0,0,1-1.55,2,2.23,2.23,0,0,1-2.46-.58,2.33,2.33,0,0,1-.4-2,2,2,0,0,1,.74-1.16c.27-.19.46-.22.46-.2a2.74,2.74,0,0,0-.86,1.43,2.06,2.06,0,0,0,.41,1.65,1.79,1.79,0,0,0,1.94.41,1.74,1.74,0,0,0,1.26-1.52,2,2,0,0,0-.71-1.54A2.67,2.67,0,0,0-2591.17,1500.16Z" transform="translate(2681.27 -1244.49)"/>
          <path class="cls-7" d="M-2554,1510.63a2.72,2.72,0,0,1-.81.1,15,15,0,0,1-2.21,0,21.72,21.72,0,0,1-7.06-1.79,21.4,21.4,0,0,1-6-4,14.61,14.61,0,0,1-1.49-1.62c-.32-.4-.48-.64-.45-.66s.8.82,2.18,2a24.4,24.4,0,0,0,6,3.84,24.4,24.4,0,0,0,6.89,1.89C-2555.21,1510.58-2554.06,1510.54-2554,1510.63Z" transform="translate(2681.27 -1244.49)"/>
          <path class="cls-7" d="M-2611.11,1500.14a10,10,0,0,1-1.28,2.35,27.21,27.21,0,0,1-4.2,4.93,27.09,27.09,0,0,1-5.28,3.79,10.34,10.34,0,0,1-2.46,1.09,24,24,0,0,1,2.28-1.39,34,34,0,0,0,5.12-3.85,34.67,34.67,0,0,0,4.25-4.77A24.82,24.82,0,0,1-2611.11,1500.14Z" transform="translate(2681.27 -1244.49)"/>
        </g>
        <g>
          <g>
            <path class="cls-15" d="M-2632.12,1416.35c-3.15,9.09-2.8,8.32-8.68,35.49-1.08,5,.83,12.86,5.39,15.28s12.68-.24,15.39-4.6l4.37-41Z" transform="translate(2681.27 -1244.49)"/>
            <g>
              <line class="cls-9" x1="65.62" y1="144.92" x2="65.62" y2="144.92"/>
              <path class="cls-14" d="M-2556.24,1465.64l-.12-21.61.09-2.12,22.13-5.12s-4.34-14.19-8.33-29.44c-2.3-8.8-10-13.23-11.81-14.18v0l-.41-.18h0L-2576,1384c-4.3,4.55-10.58,8.19-16.61,6.45a18.89,18.89,0,0,1-8.76-5.93l-14.36,4.88h0a18.56,18.56,0,0,0-9.93,8c-3,5.27-12.6,29.42-12.77,30l17.78,1.58s-3.15,57.16-2,67.37c0,0,4.32,3,15.22,3.47,22.09,1,55-.52,55-.52-.52-3.3-1.06-8.81-1.36-11.6Z" transform="translate(2681.27 -1244.49)"/>
            </g>
            <path class="cls-6" d="M-2620,1407.66c.09,0-.39,13.64-1.06,30.45s-1.29,30.43-1.38,30.43.38-13.63,1.06-30.45S-2620.12,1407.66-2620,1407.66Z" transform="translate(2681.27 -1244.49)"/>
          </g>
          <path class="cls-6" d="M-2558.67,1411.48c-.16,0,.29,12.1,1,27s1.41,27,1.57,27-.29-12.1-1-27S-2558.51,1411.47-2558.67,1411.48Z" transform="translate(2681.27 -1244.49)"/>
          <g>
            <path class="cls-15" d="M-2534,1447.07c-.72-5.36-1.32-10.1-1.32-10.1l-17.7,4.07.76,2.82-13.68-13.77-2.17.18-6.89,7.1s6,12.57,9.5,17.46c4.54,6.37,11.69,16.07,21.47,15.26C-2535,1469.34-2532.74,1456.7-2534,1447.07Z" transform="translate(2681.27 -1244.49)"/>
            <path class="cls-16" d="M-2543.63,1450.28a15.39,15.39,0,0,0-3.89-3.54,15.47,15.47,0,0,0-4.62-2.53c-.08.15,1.95,1.32,4.29,3S-2543.74,1450.4-2543.63,1450.28Z" transform="translate(2681.27 -1244.49)"/>
            <g>
              <path class="cls-15" d="M-2589.87,1412.11l6.08-3.07,7.89,2.48,3.91,3.57,6,15,4.81,6-8.49,11-5.38-9.73s-4.56-2-6.38-4.82-2.65-4.41-2.65-4.41-2.63-1.25-3.12-2.45a6,6,0,0,1-.47-2.14l1.34-1.93a4.82,4.82,0,0,1,.4-2.46,2.43,2.43,0,0,1,1.05-.83s-.39-1.63.22-2.21a19.16,19.16,0,0,1,3.64-1.65h0l-2.65-1.49S-2589.55,1414.78-2589.87,1412.11Z" transform="translate(2681.27 -1244.49)"/>
              <path class="cls-16" d="M-2580.84,1417.56c0,.08-.94.1-2,.34s-2,.58-2,.51a4.71,4.71,0,0,1,2-.77A4.65,4.65,0,0,1-2580.84,1417.56Z" transform="translate(2681.27 -1244.49)"/>
              <path class="cls-16" d="M-2582.67,1420.93c0,.07-.8.07-1.76.22s-1.72.37-1.74.3a3.83,3.83,0,0,1,1.7-.56A3.74,3.74,0,0,1-2582.67,1420.93Z" transform="translate(2681.27 -1244.49)"/>
              <path class="cls-16" d="M-2585.24,1426.2c-.07,0-.12-.35-.12-.77s.08-.76.15-.76.12.34.11.76S-2585.17,1426.2-2585.24,1426.2Z" transform="translate(2681.27 -1244.49)"/>
              <path class="cls-16" d="M-2584.08,1427.82a3.37,3.37,0,0,0-.56-1.38,3.5,3.5,0,0,0-1.22-.88s.19,0,.48,0a2,2,0,0,1,1,.68,2,2,0,0,1,.43,1.07C-2584,1427.65-2584,1427.83-2584.08,1427.82Z" transform="translate(2681.27 -1244.49)"/>
              <path class="cls-16" d="M-2579.32,1423c-.07,0-.33-.64-1.06-1a3.8,3.8,0,0,0-1.44-.36s.15-.11.45-.13a2,2,0,0,1,1.11.26,2.1,2.1,0,0,1,.82.8C-2579.31,1422.82-2579.29,1423-2579.32,1423Z" transform="translate(2681.27 -1244.49)"/>
              <path class="cls-16" d="M-2576.55,1419.68c-.07,0-.31-.59-1-1a4.31,4.31,0,0,0-1.33-.45s.16-.1.44-.09a2.05,2.05,0,0,1,1,.32,2,2,0,0,1,.72.79C-2576.53,1419.5-2576.52,1419.67-2576.55,1419.68Z" transform="translate(2681.27 -1244.49)"/>
              <path class="cls-16" d="M-2574.69,1418.05s0-.21-.07-.52a2.42,2.42,0,0,0-.44-1.11,2.54,2.54,0,0,0-.94-.74c-.29-.13-.49-.17-.48-.21s.21,0,.54,0a2.22,2.22,0,0,1,1.09.76,2.12,2.12,0,0,1,.41,1.25C-2574.58,1417.86-2574.66,1418.05-2574.69,1418.05Z" transform="translate(2681.27 -1244.49)"/>
              <path class="cls-16" d="M-2577.27,1414.13c0,.09-1.28.11-2.81.34s-2.69.77-2.72.69a6.38,6.38,0,0,1,2.68-1,13.32,13.32,0,0,1,2-.14A2.41,2.41,0,0,1-2577.27,1414.13Z" transform="translate(2681.27 -1244.49)"/>
            </g>
          </g>
        </g>
      </g>
      <g class="cls-8">
        <path d="M-2594.59,1448a10.66,10.66,0,0,0-1.5-5c-1.78-2.48-5.27-3-8.35-2.87s-6.25.75-9.14-.29l-8.63,25.38a12.82,12.82,0,0,0,7.79-5.62c.88-1.42,1.52-3.06,2.85-4.08,1.84-1.4,4.39-1.19,6.71-1.22a26.71,26.71,0,0,0,7.16-1,4.8,4.8,0,0,0,2.63-1.48C-2594.29,1450.73-2594.42,1449.29-2594.59,1448Z" transform="translate(2681.27 -1244.49)"/>
      </g>
      <g>
        <g>
          <path class="cls-6" d="M-2616.8,1418.29l2.68,28.24a4,4,0,0,0,1.76,3.25l17.28-.36a6.71,6.71,0,0,0,1.33-4.8l-1.92-27c-.11-1.63-.73-2.8-1.47-2.82l-18.2-.42C-2616.27,1414.33-2617,1416.28-2616.8,1418.29Z" transform="translate(2681.27 -1244.49)"/>
          <path class="cls-15" d="M-2619.31,1424a2.47,2.47,0,0,1,0-3.06,3.86,3.86,0,0,1,3-1.31,8.57,8.57,0,0,1,3.25.75,21.14,21.14,0,0,1,3.65,1.91,3.51,3.51,0,0,1,1.79,2.17c.14,1-.93,2-1.77,1.52a4,4,0,0,1,2.32,2.88c.15,1.2-.51,1.84-1.7,2.16a1.8,1.8,0,0,1,1,2.34,2.12,2.12,0,0,1-2.66.74,6.22,6.22,0,0,1-2.25-2,6.78,6.78,0,0,1,.31,4.3c-2.58-.94-5.12-3.78-4.35-6.48a3.65,3.65,0,0,1-1-4.38,3.58,3.58,0,0,1-2.08-3" transform="translate(2681.27 -1244.49)"/>
        </g>
        <path class="cls-15" d="M-2619.6,1421.51l-.21,12.07-3.16,4.71-14.49,12.83s2.15,17.45,8.69,15.55,8.12-3.15,12-10.19c2.07-3.77,3.35-9.9,4.54-13.42.7-2.06.09-8.71.09-8.71Z" transform="translate(2681.27 -1244.49)"/>
        <path class="cls-16" d="M-2608.78,1431a10.41,10.41,0,0,1-1.11-.88,7.55,7.55,0,0,0-2.92-1.57,4.08,4.08,0,0,0-1.8,0,3.29,3.29,0,0,0-1.33.62,4.26,4.26,0,0,0-.89,1,1,1,0,0,1,.11-.37,2.78,2.78,0,0,1,.65-.83,3.19,3.19,0,0,1,1.4-.72,4,4,0,0,1,1.92,0,7,7,0,0,1,3,1.69A5.5,5.5,0,0,1-2608.78,1431Z" transform="translate(2681.27 -1244.49)"/>
        <path class="cls-16" d="M-2608.95,1426.08a5.92,5.92,0,0,1-1.36-.59,15.17,15.17,0,0,0-1.43-.67,12.47,12.47,0,0,0-1.86-.52,5.34,5.34,0,0,0-1.9-.06,3.61,3.61,0,0,0-1.42.57,3.67,3.67,0,0,0-.94,1.07s0-.15.12-.39a2.45,2.45,0,0,1,.7-.84,3.54,3.54,0,0,1,1.49-.67,5.41,5.41,0,0,1,2,0,10.63,10.63,0,0,1,1.9.56,11.93,11.93,0,0,1,1.44.73A11.41,11.41,0,0,1-2608.95,1426.08Z" transform="translate(2681.27 -1244.49)"/>
        <path class="cls-16" d="M-2635.9,1458.07a12,12,0,0,1-.18-4.5,13.8,13.8,0,0,1,1.72-4.57,21.82,21.82,0,0,1,3.83-4.65c1.55-1.49,3.16-2.79,4.59-4a45.53,45.53,0,0,0,3.66-3.42,20.25,20.25,0,0,0,2.11-2.64,4.31,4.31,0,0,0,.6-1.08,10.38,10.38,0,0,0-.75,1,26.28,26.28,0,0,1-2.21,2.51c-1,1-2.26,2.12-3.7,3.32s-3.06,2.5-4.64,4a21.92,21.92,0,0,0-3.88,4.77,13.43,13.43,0,0,0-1.66,4.74,9.57,9.57,0,0,0,.11,3.37,5.62,5.62,0,0,0,.27.88A1.13,1.13,0,0,0-2635.9,1458.07Z" transform="translate(2681.27 -1244.49)"/>
      </g>
    </g>
  </g>
</svg>
