<svg xmlns="http://www.w3.org/2000/svg" viewBox="0 0 500 372.61">
  <defs>
    <style>
      .cls-1 {
        fill: #ececec;
      }

      .cls-2 {
        fill: #f5f5f5;
      }

      .cls-3 {
        fill: #e7e7e7;
      }

      .cls-4 {
        fill: #f0f0f0;
      }

      .cls-12, .cls-16, .cls-5 {
        fill: #fff;
      }

      .cls-6 {
        fill: #fafafa;
      }

      .cls-7 {
        fill: #e1e1e1;
        opacity: 0.5;
      }

      .cls-8 {
        fill: #1a2e35;
      }

      .cls-15, .cls-16, .cls-9 {
        opacity: 0.2;
      }

      .cls-10 {
        fill: #903c38;
      }

      .cls-11, .cls-15, .cls-17 {
        fill: #007cff;
      }

      .cls-12, .cls-14 {
        opacity: 0.3;
      }

      .cls-13 {
        fill: #740606;
      }

      .cls-17 {
        opacity: 0.6;
      }
    </style>
  </defs>
  <g id="Layer_2" data-name="Layer 2">
    <g>
      <g>
        <rect class="cls-1" y="327.45" width="500" height="0.25"/>
        <rect class="cls-1" x="131.47" y="342.87" width="33.12" height="0.25"/>
        <rect class="cls-1" x="250.15" y="340.16" width="8.69" height="0.25"/>
        <rect class="cls-1" x="52.46" y="335.94" width="19.19" height="0.25"/>
        <rect class="cls-1" x="389.7" y="334.26" width="26.08" height="0.25"/>
        <rect class="cls-1" x="357.35" y="334.26" width="23.44" height="0.25"/>
        <rect class="cls-1" x="356.23" y="346.26" width="93.68" height="0.25"/>
        <path class="cls-1" d="M1841.92,445.82h-193.1a5.71,5.71,0,0,1-5.71-5.71V168.68a5.71,5.71,0,0,1,5.71-5.71h193.1a5.71,5.71,0,0,1,5.7,5.71V440.11A5.71,5.71,0,0,1,1841.92,445.82Zm-193.1-282.6a5.47,5.47,0,0,0-5.46,5.46V440.11a5.47,5.47,0,0,0,5.46,5.46h193.1a5.46,5.46,0,0,0,5.45-5.46V168.68a5.46,5.46,0,0,0-5.45-5.46Z" transform="translate(-1604.9 -162.97)"/>
        <path class="cls-1" d="M2058.21,445.82H1865.12a5.71,5.71,0,0,1-5.71-5.71V168.68a5.71,5.71,0,0,1,5.71-5.71h193.09a5.71,5.71,0,0,1,5.71,5.71V440.11A5.71,5.71,0,0,1,2058.21,445.82Zm-193.09-282.6a5.47,5.47,0,0,0-5.46,5.46V440.11a5.47,5.47,0,0,0,5.46,5.46h193.09a5.47,5.47,0,0,0,5.46-5.46V168.68a5.47,5.47,0,0,0-5.46-5.46Z" transform="translate(-1604.9 -162.97)"/>
      </g>
      <g>
        <g>
          <polygon class="cls-2" points="363.33 114.16 392.81 114.16 389.33 43.25 363.33 43.25 363.33 114.16"/>
          <g>
            <g>
              <polygon class="cls-2" points="422.16 125.07 428.52 144.9 422.16 144.9 383.19 125.07 422.16 125.07"/>
              <polygon class="cls-3" points="428.52 125.07 428.52 144.9 389.55 125.07 428.52 125.07"/>
            </g>
            <g>
              <polygon class="cls-2" points="252.26 125.07 258.62 144.9 252.26 144.9 213.29 125.07 252.26 125.07"/>
              <polygon class="cls-3" points="258.62 125.07 258.62 144.9 219.65 125.07 258.62 125.07"/>
            </g>
            <g>
              <rect class="cls-3" x="414.74" y="114.27" width="25.15" height="11.62"/>
              <rect class="cls-2" x="1808.94" y="277.24" width="210.7" height="11.62" transform="translate(2223.69 403.13) rotate(180)"/>
            </g>
          </g>
          <g>
            <polygon class="cls-3" points="276.61 114.16 383.3 114.16 391.12 28.23 284.43 28.23 276.61 114.16"/>
            <polygon class="cls-4" points="273.33 114.16 380.03 114.16 387.85 28.23 281.15 28.23 273.33 114.16"/>
            <polygon class="cls-5" points="374.71 104.65 381.87 37.74 286.47 37.74 279.31 104.65 374.71 104.65"/>
          </g>
        </g>
        <g>
          <rect class="cls-4" x="2018.66" y="364.17" width="24.82" height="120.7" transform="translate(2457.24 686.06) rotate(180)"/>
          <rect class="cls-4" x="1865.95" y="484.87" width="170.98" height="5.55" transform="translate(2297.99 812.32) rotate(180)"/>
          <rect class="cls-2" x="254.5" y="201.19" width="159.26" height="120.7"/>
          <rect class="cls-4" x="267.91" y="244.82" width="132.43" height="28.72"/>
          <rect class="cls-4" x="267.91" y="282.4" width="132.43" height="28.72"/>
          <path class="cls-2" d="M1907.42,409.76h63.22a2,2,0,0,0,2-2h0a2,2,0,0,0-2-2h-63.22a2,2,0,0,0-2,2h0A2,2,0,0,0,1907.42,409.76Z" transform="translate(-1604.9 -162.97)"/>
          <path class="cls-2" d="M1907.42,447.34h63.22a2,2,0,0,0,2-2h0a2,2,0,0,0-2-2h-63.22a2,2,0,0,0-2,2h0A2,2,0,0,0,1907.42,447.34Z" transform="translate(-1604.9 -162.97)"/>
          <rect class="cls-4" x="267.91" y="207.23" width="132.43" height="28.72"/>
          <path class="cls-2" d="M1907.42,372.17h63.22a2,2,0,0,0,2-2h0a2,2,0,0,0-2-2h-63.22a2,2,0,0,0-2,2h0A2,2,0,0,0,1907.42,372.17Z" transform="translate(-1604.9 -162.97)"/>
        </g>
        <g>
          <rect class="cls-3" x="1679.11" y="200.55" width="134.24" height="274.02" transform="translate(1887.55 512.15) rotate(180)"/>
          <rect class="cls-4" x="1674.03" y="200.55" width="138.6" height="274.02" transform="translate(1881.75 512.15) rotate(180)"/>
          <rect class="cls-3" x="1679.11" y="474.57" width="134.24" height="4.72" transform="translate(1887.55 790.88) rotate(180)"/>
          <rect class="cls-4" x="1665.56" y="474.57" width="138.6" height="4.72" transform="translate(1864.83 790.88) rotate(180)"/>
          <rect class="cls-6" x="1613.43" y="275.37" width="259.79" height="124.38" transform="translate(475.98 -1568.74) rotate(90)"/>
          <polygon class="cls-5" points="128.63 304.49 140.02 44.69 159.72 44.69 148.33 304.49 128.63 304.49"/>
          <path class="cls-4" d="M1802.23,285.82a.54.54,0,0,0,.54-.54v-73a.54.54,0,0,0-.54-.54.55.55,0,0,0-.55.54v73A.55.55,0,0,0,1802.23,285.82Z" transform="translate(-1604.9 -162.97)"/>
          <polygon class="cls-5" points="152.56 304.49 163.95 44.69 171.63 44.69 160.24 304.49 152.56 304.49"/>
          <rect class="cls-3" x="1551.69" y="337.11" width="259.79" height="0.9" transform="translate(414.24 -1507) rotate(90)"/>
          <polygon class="cls-7" points="67.44 53.97 203.34 53.97 203.99 47.45 68.1 47.45 67.44 53.97"/>
          <polygon class="cls-7" points="67.44 64.68 203.34 64.68 203.99 58.17 68.1 58.17 67.44 64.68"/>
          <polygon class="cls-7" points="67.44 75.4 203.34 75.4 203.99 68.88 68.1 68.88 67.44 75.4"/>
          <polygon class="cls-7" points="67.44 86.11 203.34 86.11 203.99 79.59 68.1 79.59 67.44 86.11"/>
          <polygon class="cls-7" points="67.44 96.82 203.34 96.82 203.99 90.3 68.1 90.3 67.44 96.82"/>
          <polygon class="cls-7" points="67.44 107.53 203.34 107.53 203.99 101.02 68.1 101.02 67.44 107.53"/>
        </g>
      </g>
      <ellipse id="_Path_" data-name="&lt;Path&gt;" class="cls-2" cx="250" cy="361.29" rx="193.89" ry="11.32"/>
      <g>
        <path class="cls-8" d="M1964.8,231.28a2.15,2.15,0,1,0-3.53-2.16,2,2,0,0,0,0,.91,5,5,0,0,0-.86.13,4.24,4.24,0,0,0-2.91-2.41,3,3,0,0,0-.51-.06.17.17,0,0,0,0-.05,3.08,3.08,0,0,0,.08-.73,4.56,4.56,0,0,0,1.92-7.15,4.55,4.55,0,0,0-.88-8.57,4.48,4.48,0,0,0-1.15-.1,5.69,5.69,0,0,0-4.38-5.35,4.33,4.33,0,0,0-.7-.09,4.26,4.26,0,0,0-3.16-3.15,4.19,4.19,0,0,0-1.65-.05,5.46,5.46,0,0,0-7.41-1.29,5.87,5.87,0,0,0-2.34-.55,5.73,5.73,0,0,0-3.24.94,5.94,5.94,0,0,0-3.09-.94,6,6,0,0,0-4,1.42h0a4.48,4.48,0,0,0-5.38,3.35,4.75,4.75,0,0,0-.07,1.59,3,3,0,0,0-3.27,3.84,7.56,7.56,0,0,0-4.8,6.91,7.38,7.38,0,0,0,.66,3.19,2.67,2.67,0,0,0,.69,4,5.59,5.59,0,0,0,1.53,7.89,3.25,3.25,0,0,0,2.72,4.19,4.18,4.18,0,0,0,3.32,4.73,3,3,0,0,0,4,2.52l0,.06a3.12,3.12,0,0,0,4.24.47,5.58,5.58,0,0,0,8.93-5,2.14,2.14,0,0,0,.13.19,4.23,4.23,0,0,0,6,.51l5-3.55a3.09,3.09,0,0,0,3.4-1.52,4.44,4.44,0,0,0,1.45.65,4.2,4.2,0,0,0,1.27.08c0,.15.08.3.13.45a3.45,3.45,0,0,0-.68,1.27,3.38,3.38,0,0,0,6.51,1.8v0a4.88,4.88,0,0,0,2.06-8.38Z" transform="translate(-1604.9 -162.97)"/>
        <path class="cls-8" d="M1945.42,331s-6.17,44.47-11.68,73.67c-5.79,30.67-27.42,99.83-28.35,101.91l8.17,3.61s36.79-58.36,37.65-94.44c14.34-22,22.46-47,25-61.24,3.2-18-4-34.06-4-34.06Z" transform="translate(-1604.9 -162.97)"/>
        <path class="cls-9" d="M1968.52,350.88c0,.07-.06.16-.1.25-3.1,6.51-4.74,18.12-4.74,29a92.75,92.75,0,0,0,.65,11.25,182.56,182.56,0,0,0,10.23-29.3Z" transform="translate(-1604.9 -162.97)"/>
        <path class="cls-10" d="M1900.33,515.31s2.26-1.62,5.06-8.75c0,0,5,.39,8.17,3.61-2.23,4.8-4.81,9.1-4.81,9.1Z" transform="translate(-1604.9 -162.97)"/>
        <path class="cls-11" d="M1910.56,516.51l-9.58-3.83a.94.94,0,0,0-.62,0c-1.37.44-8,.91-15.91-1.31l-1.33,1.41a92.12,92.12,0,0,0,23.59,11.34,2.26,2.26,0,0,0,3.07-1.65,28.36,28.36,0,0,1,1.3-4.69A1,1,0,0,0,1910.56,516.51Z" transform="translate(-1604.9 -162.97)"/>
        <path class="cls-10" d="M1899.67,293.54l-1.52-2.1a8.74,8.74,0,0,0-7.33-3.62h0a3.12,3.12,0,0,0-2.88,2.1l-1.25,3.56a3.14,3.14,0,0,0,1.7,3.91l1.68.75s5.58,3.26,10.36,2.77l.35-1.28A7.17,7.17,0,0,0,1899.67,293.54Z" transform="translate(-1604.9 -162.97)"/>
        <path class="cls-10" d="M1941.76,280.1l.06.8,0,.65,0,1.27c0,.83,0,1.64,0,2.45-.06,1.63-.21,3.23-.43,4.84a49,49,0,0,1-2.25,9.52,39.24,39.24,0,0,1-11,16.84l-.49.43-.24.21-.12.11-.3.24a9,9,0,0,1-3.09,1.63,10.39,10.39,0,0,1-5.09.17,18.93,18.93,0,0,1-5.7-2.37,47.33,47.33,0,0,1-7.55-5.84,88.65,88.65,0,0,1-6.2-6.39,86.47,86.47,0,0,1-5.53-6.87,3.55,3.55,0,0,1,5-4.91l.07.06c4.41,3.31,8.87,6.75,13.32,9.66a46.05,46.05,0,0,0,6.49,3.71,5.82,5.82,0,0,0,2.21.63c.09,0-.1-.15-.89,0a3.79,3.79,0,0,0-1.24.62l-.07.06,0,0,.07-.08.15-.15.28-.3a27.22,27.22,0,0,0,3.9-5.46,33.92,33.92,0,0,0,2.62-6.41,44.93,44.93,0,0,0,1.45-7c.16-1.21.25-2.42.32-3.62,0-.61,0-1.21.06-1.79v-2.12a7.09,7.09,0,0,1,14.16-.61Z" transform="translate(-1604.9 -162.97)"/>
        <path class="cls-8" d="M1983.53,318.33s10.11,6.64,13.84,24.54c2.94,14.15,1,35.84-1.79,65.34,16.4,29.48,2.35,100.73,2.35,100.73H1989c.09-2.27-8.7-71.46-14.73-102.08-5.75-29.16-20.92-84.66-20.92-84.66Z" transform="translate(-1604.9 -162.97)"/>
        <path class="cls-10" d="M1987.57,518.63s1.49-2.34,1.44-10c0,0,5.34-1.35,8.92.32-.28,5.29-.71,10.4-.71,10.4Z" transform="translate(-1604.9 -162.97)"/>
        <path class="cls-11" d="M1997.9,515.79h-10.31a.91.91,0,0,0-.59.21,46.93,46.93,0,0,1-15.48,6.39l-.5,1.87h26.13a2.27,2.27,0,0,0,2.23-2.68,27.9,27.9,0,0,1-.53-4.84A1,1,0,0,0,1997.9,515.79Z" transform="translate(-1604.9 -162.97)"/>
        <path class="cls-11" d="M1928.57,284.94c1,3.83-3.24,14.05,5.38,17.64,2.53,7.62,5.33,16.66,11.47,28.4l38.11-12.65c-6.51-13.1-6.51-20-6.55-46a10.15,10.15,0,0,0-11.23-10.08c-1.61.17-3.3.39-5,.67a126.77,126.77,0,0,0-17.85,3.76c-1.89.58-3.83,1.24-5.67,1.91A13.77,13.77,0,0,0,1928.57,284.94Z" transform="translate(-1604.9 -162.97)"/>
        <path class="cls-12" d="M1942.89,266.67s-8.52,8.42,1.28,21.15c2.93-10.71,16.57-24.91,16.57-24.91Z" transform="translate(-1604.9 -162.97)"/>
        <path class="cls-10" d="M1954.74,243.19c.08,6,1.17,16.73,6,19.72,0,0-11.1,8-17.34,18.39-5-7.13-.51-14.63-.51-14.63,6.08-2.88,4.92-7.6,2.86-11.82Z" transform="translate(-1604.9 -162.97)"/>
        <path class="cls-9" d="M1968.63,272.89h0l8.36,4.66h0l.12,11.55h0c-3.78-4.13-7.92-11.7-8.46-16.11,0,0,0-.07,0-.11Z" transform="translate(-1604.9 -162.97)"/>
        <path class="cls-9" d="M1951.08,248l-5.32,6.89a19.6,19.6,0,0,1,1.22,3c2.37-.87,5.16-4.26,4.88-6.87A8.84,8.84,0,0,0,1951.08,248Z" transform="translate(-1604.9 -162.97)"/>
        <path class="cls-10" d="M1958.58,231.38c-.28,9.81-.19,14-4.87,19.15-7,7.79-18.81,5.29-21.41-4.41-2.35-8.73-1.51-23.3,7.76-27.5S1958.85,221.58,1958.58,231.38Z" transform="translate(-1604.9 -162.97)"/>
        <path class="cls-8" d="M1951.26,220.59a62.15,62.15,0,0,1-23.13,4.56S1948.24,203.4,1951.26,220.59Z" transform="translate(-1604.9 -162.97)"/>
        <path class="cls-8" d="M1951.88,216.09c-5,4.7-6.58,18.11,6.21,20.82C1964,233.84,1972.38,212.24,1951.88,216.09Z" transform="translate(-1604.9 -162.97)"/>
        <path class="cls-8" d="M1944.76,234.4c0,.8-.38,1.46-.9,1.47s-1-.61-1-1.41.38-1.46.9-1.47S1944.73,233.6,1944.76,234.4Z" transform="translate(-1604.9 -162.97)"/>
        <path class="cls-8" d="M1935,234.86c0,.79-.38,1.45-.9,1.47s-1-.62-1-1.41.38-1.46.9-1.48S1934.94,234.06,1935,234.86Z" transform="translate(-1604.9 -162.97)"/>
        <path class="cls-8" d="M1934.2,233.48l-1.93-.49S1933.3,234.45,1934.2,233.48Z" transform="translate(-1604.9 -162.97)"/>
        <path class="cls-13" d="M1937.74,235.68a21.5,21.5,0,0,1-2.68,5.18,3.42,3.42,0,0,0,2.86.44Z" transform="translate(-1604.9 -162.97)"/>
        <path class="cls-8" d="M1942.59,244.49a6.82,6.82,0,0,1-1.33.16.23.23,0,0,1-.24-.22.24.24,0,0,1,.23-.25,6.32,6.32,0,0,0,5.07-2.63.23.23,0,0,1,.32-.08.24.24,0,0,1,.08.32A6.56,6.56,0,0,1,1942.59,244.49Z" transform="translate(-1604.9 -162.97)"/>
        <path class="cls-10" d="M1960.79,237.19a6.3,6.3,0,0,1-3.07,4.17c-2,1-3.55-1.08-3.45-3.58.09-2.25,1.25-5.49,3.49-5.48S1961.34,234.88,1960.79,237.19Z" transform="translate(-1604.9 -162.97)"/>
        <path class="cls-8" d="M1946.36,228.86a.44.44,0,0,1-.33-.16,3.77,3.77,0,0,0-3.11-1.35.48.48,0,0,1-.53-.4.49.49,0,0,1,.4-.53,4.65,4.65,0,0,1,3.94,1.67.46.46,0,0,1-.37.77Z" transform="translate(-1604.9 -162.97)"/>
        <path class="cls-8" d="M1931.57,230.5a.42.42,0,0,1-.34-.06.47.47,0,0,1-.16-.64,4.68,4.68,0,0,1,3.62-2.29.47.47,0,1,1,0,.94,3.71,3.71,0,0,0-2.84,1.84A.46.46,0,0,1,1931.57,230.5Z" transform="translate(-1604.9 -162.97)"/>
        <path class="cls-8" d="M1944,233l-1.93-.49S1943.1,234,1944,233Z" transform="translate(-1604.9 -162.97)"/>
        <path class="cls-10" d="M1988,316.7l-7.11,1.23,7,9.42s5.39-3.58,7.05-8.08l-1-.88A7.12,7.12,0,0,0,1988,316.7Z" transform="translate(-1604.9 -162.97)"/>
        <path class="cls-10" d="M1979.54,325.64l2.64,2.69a3.13,3.13,0,0,0,4.26.2l1.41-1.18-7-9.42-1.92,4.2A3.11,3.11,0,0,0,1979.54,325.64Z" transform="translate(-1604.9 -162.97)"/>
        <path class="cls-10" d="M1973.15,263.71c.93.3,1.59.54,2.37.83s1.47.56,2.19.86c1.46.58,2.88,1.22,4.29,1.88,2.83,1.31,5.59,2.79,8.29,4.38a74.28,74.28,0,0,1,15.19,11.7c.57.59,1.13,1.2,1.69,1.81l.81.95.21.24.36.44a8.8,8.8,0,0,1,.92,1.39,10,10,0,0,1,1,2.77,11.76,11.76,0,0,1,.22,2.33,14.76,14.76,0,0,1-.49,3.55,27.84,27.84,0,0,1-2,5.2c-.77,1.52-1.6,2.91-2.45,4.26a72.82,72.82,0,0,1-5.51,7.5,78.32,78.32,0,0,1-6.2,6.72,3.55,3.55,0,0,1-5.6-4.22l.06-.11c2.66-5,5.45-10.11,7.56-15.07.52-1.23,1-2.46,1.37-3.63a15.66,15.66,0,0,0,.75-3.13,1.81,1.81,0,0,0,0-.8s0,0,0,.15a2.12,2.12,0,0,0,.23.72,3.31,3.31,0,0,0,.3.5l.09.11-.08-.09-.17-.16-.68-.66c-.47-.43-.93-.87-1.42-1.29a73,73,0,0,0-13.12-8.9c-2.37-1.31-4.82-2.51-7.3-3.66-1.24-.57-2.49-1.12-3.74-1.65l-1.87-.78-1.76-.69-.28-.11a7.1,7.1,0,0,1,4.83-13.34Z" transform="translate(-1604.9 -162.97)"/>
        <path class="cls-11" d="M1929.22,221.25c-1.09.43-.17,5,1.67,5.15,2.2-.87,22.94-5.54,34-3.26,1.53-1.42-.68-6.13-3.42-6.47A69.59,69.59,0,0,0,1929.22,221.25Z" transform="translate(-1604.9 -162.97)"/>
      </g>
      <g>
        <g>
          <g>
            <path class="cls-11" d="M1873.68,501H1745.43a8.54,8.54,0,0,1-8.58-8.95l10.73-259.49a9.43,9.43,0,0,1,9.31-8.95h128.26a8.53,8.53,0,0,1,8.57,8.95L1883,492A9.43,9.43,0,0,1,1873.68,501Z" transform="translate(-1604.9 -162.97)"/>
            <path class="cls-14" d="M1873.68,501H1745.43a8.54,8.54,0,0,1-8.58-8.95l10.73-259.49a9.43,9.43,0,0,1,9.31-8.95h128.26a8.53,8.53,0,0,1,8.57,8.95L1883,492A9.43,9.43,0,0,1,1873.68,501Z" transform="translate(-1604.9 -162.97)"/>
          </g>
          <rect class="cls-11" x="1715.73" y="481.05" width="20.91" height="1" transform="matrix(0.04, -1, 1, 0.04, -431.43, 2023.31)"/>
          <path class="cls-11" d="M1731.27,502.91a12,12,0,0,1-4.45-4.42l.87-.5a10.91,10.91,0,0,0,4.07,4.05Z" transform="translate(-1604.9 -162.97)"/>
          <path class="cls-11" d="M1865.58,501H1737.33a8.55,8.55,0,0,1-8.58-8.95l10.73-259.49a9.44,9.44,0,0,1,9.32-8.95h128.25a8.55,8.55,0,0,1,8.58,8.95L1874.9,492A9.44,9.44,0,0,1,1865.58,501Z" transform="translate(-1604.9 -162.97)"/>
          <path class="cls-5" d="M1737.49,497.11a4.86,4.86,0,0,1-4.9-5.11l10.72-259.49a5.39,5.39,0,0,1,5.33-5.11h128.25a4.86,4.86,0,0,1,4.9,5.11L1871.06,492a5.37,5.37,0,0,1-5.32,5.11Z" transform="translate(-1604.9 -162.97)"/>
          <path class="cls-15" d="M1862.74,470h-120a3.24,3.24,0,0,1-3.27-3.4l9.17-221.85a3.58,3.58,0,0,1,3.55-3.41h120a3.24,3.24,0,0,1,3.26,3.41l-9.17,221.85A3.58,3.58,0,0,1,1862.74,470Z" transform="translate(-1604.9 -162.97)"/>
          <path class="cls-15" d="M1801.82,492.71a9.23,9.23,0,0,1-9.28-9.68,10.14,10.14,0,0,1,10-9.64,9.23,9.23,0,0,1,9.28,9.69A10.14,10.14,0,0,1,1801.82,492.71Zm.75-18a8.84,8.84,0,0,0-8.75,8.41,7.94,7.94,0,0,0,8,8.35,8.86,8.86,0,0,0,8.76-8.4h0a8,8,0,0,0-8-8.36Z" transform="translate(-1604.9 -162.97)"/>
        </g>
        <g>
          <g>
            <path class="cls-11" d="M1832.32,304.23H1683.81a9.89,9.89,0,0,1-9.93-10.36l.89-21.38a10.92,10.92,0,0,1,10.79-10.36h148.5a9.88,9.88,0,0,1,9.93,10.36l-.88,21.38A10.93,10.93,0,0,1,1832.32,304.23Z" transform="translate(-1604.9 -162.97)"/>
            <path class="cls-14" d="M1832.32,304.23H1683.81a9.89,9.89,0,0,1-9.93-10.36l.89-21.38a10.92,10.92,0,0,1,10.79-10.36h148.5a9.88,9.88,0,0,1,9.93,10.36l-.88,21.38A10.93,10.93,0,0,1,1832.32,304.23Z" transform="translate(-1604.9 -162.97)"/>
          </g>
          <path class="cls-11" d="M1823,304.23H1674.44a9.88,9.88,0,0,1-9.93-10.36l.88-21.38a10.93,10.93,0,0,1,10.79-10.36h148.51a9.89,9.89,0,0,1,9.93,10.36l-.88,21.38A10.94,10.94,0,0,1,1823,304.23Z" transform="translate(-1604.9 -162.97)"/>
          <polygon class="cls-11" points="177.08 135.58 204.04 163.71 205.2 135.58 177.08 135.58"/>
          <path class="cls-16" d="M1707.08,268.05h-10.85a1.48,1.48,0,0,1,0-3h10.85a1.48,1.48,0,0,1,0,3Z" transform="translate(-1604.9 -162.97)"/>
          <path class="cls-16" d="M1669.39,284.66h-.06a1.49,1.49,0,0,1-1.42-1.54l.44-10.69a7.73,7.73,0,0,1,7.65-7.34h12.17a1.48,1.48,0,0,1,0,3H1676a4.74,4.74,0,0,0-4.69,4.5l-.44,10.69A1.48,1.48,0,0,1,1669.39,284.66Z" transform="translate(-1604.9 -162.97)"/>
          <g>
            <path class="cls-5" d="M1678.05,286.14l4.69-.29a3.51,3.51,0,0,0,.54,1.74,2.49,2.49,0,0,0,2.13,1,2.47,2.47,0,0,0,1.64-.49,1.54,1.54,0,0,0,.62-1.15,1.37,1.37,0,0,0-.5-1.1,5.9,5.9,0,0,0-2.47-.92,10.27,10.27,0,0,1-4.53-1.93,3.75,3.75,0,0,1-1.26-3.07,4.33,4.33,0,0,1,.8-2.32,5.1,5.1,0,0,1,2.21-1.71,10.29,10.29,0,0,1,3.93-.62,7.78,7.78,0,0,1,4.6,1.13,4.69,4.69,0,0,1,1.76,3.61l-4.64.27a2.38,2.38,0,0,0-.71-1.56,2.41,2.41,0,0,0-1.62-.49,2,2,0,0,0-1.3.36,1.15,1.15,0,0,0-.47.88.86.86,0,0,0,.33.69,3.83,3.83,0,0,0,1.62.58,19.42,19.42,0,0,1,4.56,1.41,4.51,4.51,0,0,1,2,1.76,4.32,4.32,0,0,1,.54,2.35,5.19,5.19,0,0,1-1,2.82,5.68,5.68,0,0,1-2.45,2,9.82,9.82,0,0,1-3.85.66q-4.07,0-5.55-1.56A5.88,5.88,0,0,1,1678.05,286.14Z" transform="translate(-1604.9 -162.97)"/>
            <path class="cls-5" d="M1705.72,275.51h4.91l-.4,9.47a8.14,8.14,0,0,1-.55,2.66,6.06,6.06,0,0,1-1.46,2.19,5.86,5.86,0,0,1-2,1.31,10,10,0,0,1-3.46.53,21.07,21.07,0,0,1-2.53-.16,6.43,6.43,0,0,1-2.26-.64,5.41,5.41,0,0,1-1.63-1.38,4.66,4.66,0,0,1-1-1.83A9.44,9.44,0,0,1,1695,285l.39-9.47h4.9l-.4,9.69a2.68,2.68,0,0,0,.64,2,2.57,2.57,0,0,0,2,.73,2.79,2.79,0,0,0,2-.72,2.84,2.84,0,0,0,.8-2Z" transform="translate(-1604.9 -162.97)"/>
            <path class="cls-5" d="M1713.89,275.51h9.19a4.83,4.83,0,0,1,3.48,1.14,3.56,3.56,0,0,1,1.12,2.82,3.7,3.7,0,0,1-1,2.41,4.15,4.15,0,0,1-1.76,1.07,4.18,4.18,0,0,1,2.46,1.41,3.78,3.78,0,0,1,.71,2.52,4.52,4.52,0,0,1-.67,2.22,4.46,4.46,0,0,1-1.64,1.56,5.14,5.14,0,0,1-1.88.52,20.5,20.5,0,0,1-2.21.22h-8.48Zm4.69,6.23h2.14a2.58,2.58,0,0,0,1.62-.39,1.52,1.52,0,0,0,.49-1.15,1.29,1.29,0,0,0-.4-1.08,2.35,2.35,0,0,0-1.55-.39h-2.17Zm-.25,6.25h2.5a2.84,2.84,0,0,0,1.81-.45,1.59,1.59,0,0,0,.57-1.21,1.37,1.37,0,0,0-.47-1.14,2.84,2.84,0,0,0-1.79-.42h-2.49Z" transform="translate(-1604.9 -162.97)"/>
            <path class="cls-5" d="M1729.85,286.14l4.69-.29a3.41,3.41,0,0,0,.54,1.74,2.49,2.49,0,0,0,2.13,1,2.47,2.47,0,0,0,1.64-.49,1.57,1.57,0,0,0,.62-1.15,1.4,1.4,0,0,0-.5-1.1,6,6,0,0,0-2.48-.92A10.27,10.27,0,0,1,1732,283a3.69,3.69,0,0,1-1.26-3.07,4.33,4.33,0,0,1,.8-2.32,5,5,0,0,1,2.21-1.71,10.29,10.29,0,0,1,3.93-.62,7.8,7.8,0,0,1,4.6,1.13A4.68,4.68,0,0,1,1744,280l-4.64.27a2.34,2.34,0,0,0-.71-1.56,2.38,2.38,0,0,0-1.61-.49,2,2,0,0,0-1.3.36,1.15,1.15,0,0,0-.47.88.86.86,0,0,0,.33.69,3.83,3.83,0,0,0,1.62.58,19.31,19.31,0,0,1,4.55,1.41,4.6,4.6,0,0,1,2,1.76,4.32,4.32,0,0,1,.53,2.35,5.19,5.19,0,0,1-1,2.82,5.65,5.65,0,0,1-2.44,2,9.87,9.87,0,0,1-3.86.66q-4.05,0-5.55-1.56A5.92,5.92,0,0,1,1729.85,286.14Z" transform="translate(-1604.9 -162.97)"/>
            <path class="cls-5" d="M1757.37,284.9l4.25,1.3a8.29,8.29,0,0,1-1.49,3,6.21,6.21,0,0,1-2.39,1.83,8.71,8.71,0,0,1-3.54.62,10,10,0,0,1-4.2-.75,6.3,6.3,0,0,1-2.73-2.65,8.76,8.76,0,0,1-1-4.85,8.56,8.56,0,0,1,2.35-6.06,8.24,8.24,0,0,1,6-2.12,7.81,7.81,0,0,1,4.67,1.21,6.77,6.77,0,0,1,2.4,3.73l-4.38,1a3.5,3.5,0,0,0-.43-1.07,2.66,2.66,0,0,0-1-.86,2.74,2.74,0,0,0-1.32-.31,3,3,0,0,0-2.62,1.35,8.13,8.13,0,0,0-.15,6.75,2.66,2.66,0,0,0,2.22,1,2.83,2.83,0,0,0,2.16-.8A5.12,5.12,0,0,0,1757.37,284.9Z" transform="translate(-1604.9 -162.97)"/>
            <path class="cls-5" d="M1763.86,291.4l.65-15.89h8.19a11.68,11.68,0,0,1,3.46.39,3.47,3.47,0,0,1,1.88,1.45,4.13,4.13,0,0,1,.63,2.57,4.52,4.52,0,0,1-.65,2.28,4.84,4.84,0,0,1-1.62,1.56,6.36,6.36,0,0,1-1.75.63,4.46,4.46,0,0,1,1.25.58,4.55,4.55,0,0,1,.76.84,5.51,5.51,0,0,1,.64,1l2.19,4.6h-5.55l-2.42-4.86a3.66,3.66,0,0,0-.84-1.22,2,2,0,0,0-1.19-.37h-.43l-.27,6.45Zm5.32-9.45h2.07a7.19,7.19,0,0,0,1.31-.22,1.34,1.34,0,0,0,.82-.5,1.52,1.52,0,0,0,.35-.92,1.41,1.41,0,0,0-.44-1.18,2.86,2.86,0,0,0-1.82-.41h-2.16Z" transform="translate(-1604.9 -162.97)"/>
            <path class="cls-5" d="M1781.91,275.51h4.93l-.66,15.89h-4.92Z" transform="translate(-1604.9 -162.97)"/>
            <path class="cls-5" d="M1790.37,275.51h9.19a4.83,4.83,0,0,1,3.48,1.14,3.56,3.56,0,0,1,1.12,2.82,3.7,3.7,0,0,1-1,2.41,4.09,4.09,0,0,1-1.76,1.07,4.24,4.24,0,0,1,2.47,1.41,3.78,3.78,0,0,1,.7,2.52,4.52,4.52,0,0,1-.67,2.22,4.44,4.44,0,0,1-1.63,1.56,5.2,5.2,0,0,1-1.89.52,20.5,20.5,0,0,1-2.21.22h-8.48Zm4.7,6.23h2.13a2.56,2.56,0,0,0,1.62-.39,1.52,1.52,0,0,0,.49-1.15,1.29,1.29,0,0,0-.4-1.08,2.35,2.35,0,0,0-1.55-.39h-2.17Zm-.26,6.25h2.5a2.84,2.84,0,0,0,1.81-.45,1.59,1.59,0,0,0,.57-1.21,1.37,1.37,0,0,0-.47-1.14,2.84,2.84,0,0,0-1.79-.42h-2.49Z" transform="translate(-1604.9 -162.97)"/>
            <path class="cls-5" d="M1807.62,275.51h13.16l-.14,3.39h-8.24l-.11,2.53h7.65l-.14,3.24h-7.64l-.13,3.13h8.48l-.15,3.6H1807Z" transform="translate(-1604.9 -162.97)"/>
          </g>
          <g>
            <polygon class="cls-11" points="213.29 163.71 204.04 163.71 204.97 141.26 214.22 141.26 213.29 163.71"/>
            <polygon class="cls-14" points="213.29 163.71 204.04 163.71 204.97 141.26 214.22 141.26 213.29 163.71"/>
          </g>
        </g>
        <g>
          <ellipse class="cls-17" cx="1806.06" cy="395.77" rx="48.24" ry="46.29" transform="translate(-1366 1213.87) rotate(-44.41)"/>
          <g>
            <path class="cls-5" d="M1827.9,407.7l.55-13.21c.5-12.12-8.49-22.43-20.58-22.86A23.47,23.47,0,0,0,1783.79,394l-.57,13.75a2.56,2.56,0,0,1-.79,1.73l-3.52,3.38a2.63,2.63,0,0,0-.79,1.74h0a2.34,2.34,0,0,0,2.35,2.45h49.41a2.57,2.57,0,0,0,2.55-2.45h0a2.36,2.36,0,0,0-.64-1.74l-3.24-3.38A2.38,2.38,0,0,1,1827.9,407.7Z" transform="translate(-1604.9 -162.97)"/>
            <path class="cls-5" d="M1811.16,364.15a4,4,0,0,1-4,3.81,3.63,3.63,0,0,1-3.65-3.81,4,4,0,0,1,4-3.8A3.61,3.61,0,0,1,1811.16,364.15Z" transform="translate(-1604.9 -162.97)"/>
            <path class="cls-5" d="M1800,420.52a2.06,2.06,0,0,0-2,2.66,7,7,0,0,0,6.7,4.73,7.78,7.78,0,0,0,7.08-4.73,1.9,1.9,0,0,0-1.75-2.66Z" transform="translate(-1604.9 -162.97)"/>
          </g>
        </g>
      </g>
    </g>
  </g>
</svg>
