<svg xmlns="http://www.w3.org/2000/svg" viewBox="0 0 770.57 272.36">
  <defs>
    <style>
      .cls-1, .cls-10, .cls-16, .cls-18 {
        fill: #020348;
      }

      .cls-1, .cls-10, .cls-11, .cls-12, .cls-13, .cls-15, .cls-16, .cls-2, .cls-4, .cls-5, .cls-6, .cls-7, .cls-8, .cls-9 {
        fill-rule: evenodd;
      }

      .cls-2 {
        fill: #c7bef6;
      }

      .cls-3 {
        fill: #ff5000;
      }

      .cls-4 {
        fill: #462ad3;
      }

      .cls-5 {
        fill: #13807f;
      }

      .cls-6 {
        fill: #609966;
      }

      .cls-7 {
        fill: #12135b;
        fill-opacity: 0.1;
      }

      .cls-8 {
        fill: #323383;
      }

      .cls-9 {
        fill: #fff;
      }

      .cls-10 {
        fill-opacity: 0.14;
      }

      .cls-11 {
        fill: #f5a623;
      }

      .cls-12 {
        fill: #fc157a;
      }

      .cls-13, .cls-17 {
        fill: #ff9dc4;
      }

      .cls-14 {
        fill: #ffa3a2;
      }

      .cls-15 {
        fill: #f4f6ff;
      }

      .cls-16 {
        stroke: #020348;
        stroke-width: 0.8px;
      }
    </style>
  </defs>
  <g id="Layer_2" data-name="Layer 2">
    <g>
      <g>
        <path class="cls-1" d="M492.7,879.37l74.46-192.24a24.6,24.6,0,0,1,22.77-16h422.56V854.28c0,14.16-11,25.64-24.59,25.64h0Z" transform="translate(-244.48 -669.56)"/>
        <path class="cls-2" d="M571.16,696.23c17.85,0,32.4,14.89,32.74,33.5v.69h-127c0-18.86,14.61-34.17,32.69-34.19h0c13.73-.05,26,8.83,30.84,22.24C545.26,705.1,557.49,696.22,571.16,696.23Zm331.76,53.4H714.53c0-18.88,14.67-34.19,32.78-34.19h0c13.74-.05,26.05,8.85,30.84,22.29,4.77-13.45,17.09-22.35,30.84-22.29s26.06,8.84,30.84,22.29c4.8-13.42,17.1-22.31,30.84-22.29,17.83,0,32.37,14.9,32.73,33.5Z" transform="translate(-244.48 -669.56)"/>
        <ellipse class="cls-3" cx="446.48" cy="25.61" rx="21.5" ry="22.43"/>
        <path class="cls-4" d="M466.7,879.19l23.57-73.08a25.19,25.19,0,0,1,12.47-14.84l40-20.41A25.3,25.3,0,0,0,555.3,755.7l16.88-54.51a24.63,24.63,0,0,1,23.35-17.79H624.3a24.6,24.6,0,0,1,23,16.55l11.32,31a24.66,24.66,0,0,0,23,16.5h50.31A24.66,24.66,0,0,0,755,730.42l10.09-29.64a24.64,24.64,0,0,1,23.17-17h73.44a20.46,20.46,0,0,1,19,13.42l48.2,125.19v56.85Z" transform="translate(-244.48 -669.56)"/>
        <path class="cls-5" d="M649.26,889.61,626.35,868l-76.22-6q-3.3-10.2-9.91-9.19c-4.41.64-8.5,4.59-12.38,12.5q.79-21.51-6.12-23c-7.27-1.84-11.06,4.6-11.28,19.95q-7.62-13-12.82-9.2t0,12.41q-12.83-19.44-16.26-16c-2.34,2.39-.66,9.89,4.93,22.57Q476,847.05,470.43,847.05c-3.74,0-5.37,6.12-5,18.39q-5.19-25.65-11.1-20.78t-1.28,20.78q-7.12-10.89-12.2-7c-3.44,2.67-3.44,7.17,0,13.79-7-2-11.19-2-12.73,0s1.58,5.33,9.25,9.88c-8.06-2.76-12.73-2.76-13.92,0a28.35,28.35,0,0,0-2.38,8.09Zm349-176.48q17.18-18.37,11.45-22.66t-21.1,7.68C991.5,684.09,989.92,677,984,677s-10.09,4.59-12.34,13.46c.44-13.78-2.11-20.91-7.71-20.91s-7.58,10.11-6.08,30.43q-18.76-30.48-24.36-26.7t0,18.06c-8-5.93-13.88-7.31-17.63-4.19s-1.63,8.69,6.44,16.6q-28.68-4.6-28.68,0t28.68,16.72q-25.9-6.62-25.91,0t16.74,14.67c-16,0-24.1,1.7-24.1,5.88s6.79,5.7,20.27,4.59c-6.7,2.26-10,5-10,8.18a51.65,51.65,0,0,0,13.83,0c-16,3.5-24.1,7.27-24.1,11.26,0,2,6.79,2,20.27,0q-10.1,13.11-4.71,14.94c2,.69,7.66-1,17.09-5.15q-8.5,10,0,10c5.64,0,7.75-4.6,6.21-13.42h70.49V713Z" transform="translate(-244.48 -669.56)"/>
        <path class="cls-6" d="M997.83,752q19.6-21,13.21-25.83T987,734.91q4.89-24.13-5.34-24.13c-6.78,0-11.63,11-14.45,33q1.13-41.37-8.37-41.36c-6.34,0-10,8.32-11.14,24.86q-8.82-35.89-15.34-31.66t-3.26,34.69q-19.77-18.6-26.17-13.28t14.81,30.38Q885,726.32,881.82,734.13t29.52,26.47q-29.52-7.44-29.56,0c0,5,6.39,10.57,19.08,16.78-18.29-.28-27.45,1.93-27.45,6.71s7.71,6.48,23.09,5.19c-7.63,2.57-11.42,5.7-11.42,9.19,0,.55,5.25.55,15.78,0q-27.4,6.06-27.45,12.87,0,3.45,23.08,0c-7.71,9.93-9.47,15.62-5.37,17,2.25.78,8.81-1.2,19.47-5.84q-9.69,11.31,0,11.31t7.1-15.31H998V752Z" transform="translate(-244.48 -669.56)"/>
      </g>
      <path class="cls-7" d="M244.48,880.47h768v61.45h-768Z" transform="translate(-244.48 -669.56)"/>
      <path class="cls-8" d="M602.27,750.92H580.68a8.29,8.29,0,0,0-8,6.34l-5.6,21.09a4.35,4.35,0,0,0,2.91,5.29,2.91,2.91,0,0,0,1.1,0H575l5.73-21-2.25-8,23.84,1.29Z" transform="translate(-244.48 -669.56)"/>
      <path class="cls-9" d="M894,736.81H617.87a16.69,16.69,0,0,0-16,12.68L577,843.06l10.89,32.54H871.55l30.84-8.91a12.94,12.94,0,0,0,9.12-12.5V794.9L897.9,740a4.44,4.44,0,0,0-4-3.22Z" transform="translate(-244.48 -669.56)"/>
      <path class="cls-8" d="M586.06,831.3H695.27l8.46-33a4.15,4.15,0,0,1,4-3.17h203.9l-13.22-53.77h-282a12.52,12.52,0,0,0-12,9.56L584,828.59a2.17,2.17,0,0,0,1.43,2.66h0Z" transform="translate(-244.48 -669.56)"/>
      <path class="cls-10" d="M871.55,875.6l30.84-8.91a12.94,12.94,0,0,0,9.12-12.5V839.34H654.3L677.78,737h-60a16.69,16.69,0,0,0-16,12.68L578,839.3h-1.06l.57,1.83-.57,2.07,10.88,32.54Z" transform="translate(-244.48 -669.56)"/>
      <path class="cls-11" d="M647.78,843.06H622.05a8.16,8.16,0,0,0-6.7,3.59l-5.11,7.26H636a8.22,8.22,0,0,0,6.7-3.54Zm-69.26,0H577l3.62,10.85h9.6l-5-7.26A8.15,8.15,0,0,0,578.52,843.06Z" transform="translate(-244.48 -669.56)"/>
      <path class="cls-12" d="M656,817.1H587.29l-3.17,11.3a2.21,2.21,0,0,0,1.41,2.71H649.1a4.92,4.92,0,0,0,4.8-4Z" transform="translate(-244.48 -669.56)"/>
      <path class="cls-1" d="M674.66,750.92H653.07a8.26,8.26,0,0,0-8,6.34l-5.59,21.09a4.3,4.3,0,0,0,2.84,5.27l.07,0a2.91,2.91,0,0,0,1.1,0h3.83l5.73-21-2.25-8,23.84,1.29v-5Z" transform="translate(-244.48 -669.56)"/>
      <path class="cls-8" d="M719,843.06c-11.25.05-20.41,9.46-20.62,21.19v.51l-1.06,5.42H629l-14-9.47a8.31,8.31,0,0,0-4.41-1.38H592.93A4.39,4.39,0,0,0,589.1,862l-3.35,8.23,2.07,5.42h39.91a20.78,20.78,0,0,0,11.86,9.88H597.38a2.53,2.53,0,0,0-2.47,2.58h0a2.52,2.52,0,0,0,2.47,2.57H894.77a2.47,2.47,0,0,0,2.42-2.53v0a2.53,2.53,0,0,0-2.42-2.58H858.29a20.76,20.76,0,0,0,11.85-9.88h.75l20.62-5.42H873.88l-1-5.42v-.51c-.24-11.74-9.41-21.14-20.66-21.19s-20.41,9.46-20.62,21.19v.51l-1.06,5.42h-90l-1-5.42v-.51c-.24-11.74-9.41-21.14-20.66-21.19Zm67.63,32.54h47.84a21,21,0,0,0,11.85,9.88H774.75A20.82,20.82,0,0,0,786.61,875.6Zm-49.75,0h14a20.82,20.82,0,0,0,11.81,9.88H725A20.76,20.76,0,0,0,736.86,875.6Zm-73.26,0h37.53a20.82,20.82,0,0,0,11.81,9.88H651.75a20.8,20.8,0,0,0,11.85-9.88Z" transform="translate(-244.48 -669.56)"/>
      <path class="cls-9" d="M611.65,862.6H591v6.48h20.66Z" transform="translate(-244.48 -669.56)"/>
      <g>
        <path class="cls-1" d="M637.16,761.58H615.49a8.39,8.39,0,0,0-8,6.34L602,789a4.35,4.35,0,0,0,2.86,5.33h5l5.73-21-2.29-8,23.83,1.28Z" transform="translate(-244.48 -669.56)"/>
        <path class="cls-9" d="M928.82,747.47H652.67a16.7,16.7,0,0,0-15.95,12.68l-24.89,93.62,9.82,29.28,11.33.55,61.24,2.66h212l30.84-8.87a12.94,12.94,0,0,0,9.12-12.5V805.61l-13.62-54.88a4.17,4.17,0,0,0-4-3.26Z" transform="translate(-244.48 -669.56)"/>
        <path class="cls-8" d="M620.86,841.87H730l8.45-33a4.19,4.19,0,0,1,4-3.22H946.4l-13.21-53.72h-282a12.48,12.48,0,0,0-12,9.51L618.7,839.16a2.18,2.18,0,0,0,1.44,2.66h0Z" transform="translate(-244.48 -669.56)"/>
        <path class="cls-10" d="M906.27,886.45l30.84-8.87a13,13,0,0,0,9.12-12.5V850.19H689l23.48-102.4h-60a16.69,16.69,0,0,0-16,12.69l-23.83,89.71h-1.06l.57,1.84-.57,2.06,9.56,28.54,3.88,1.29,71.81,2.67Z" transform="translate(-244.48 -669.56)"/>
        <path class="cls-11" d="M682.59,853.77H656.86a8.18,8.18,0,0,0-6.7,3.54l-5.07,7.31h25.69a8.1,8.1,0,0,0,6.7-3.59Zm-69.26,0h-1.5l3.66,10.85h9.56l-5-7.31A8.23,8.23,0,0,0,613.33,853.77Z" transform="translate(-244.48 -669.56)"/>
        <path class="cls-12" d="M690.82,827.76H622.09l-3.17,11.35a2.19,2.19,0,0,0,1.41,2.67H684a5,5,0,0,0,4.8-4Z" transform="translate(-244.48 -669.56)"/>
        <path class="cls-1" d="M709.46,761.58H687.87a8.34,8.34,0,0,0-8,6.34L674.3,789a4.63,4.63,0,0,0,2.87,5.51,4.05,4.05,0,0,0,1.1,0h3.83l5.73-21-2.25-8,23.84,1.29v-5.19Z" transform="translate(-244.48 -669.56)"/>
        <path class="cls-8" d="M753.83,853.77c-11.25,0-20.43,9.41-20.67,21.14v.51l-1,5.42H664l-14-9.19a8.14,8.14,0,0,0-4.41-1.43H627.91a4.4,4.4,0,0,0-3.83,2.67l-3.35,8.18,2.07,5.42h39.92a20.83,20.83,0,0,0,11.85,9.93H632.36a2.52,2.52,0,0,0-2.42,2.58,2.47,2.47,0,0,0,2.42,2.52H929.75a2.55,2.55,0,0,0,0-5.1h-36.7a20.71,20.71,0,0,0,11.85-9.93h.75l20.62-5.42H908.65l-1-5.42v-.51C907.39,863.41,898.22,854,887,854s-20.38,9.43-20.62,21.14v.51l-1.06,5.42h-90l-1.06-5.42v-.51c-.24-11.71-9.39-21.09-20.62-21.14Zm67.63,32.49H869.3a20.75,20.75,0,0,0,11.81,9.93H809.6a21,21,0,0,0,11.86-9.74Zm-49.75,0h14a20.71,20.71,0,0,0,11.85,9.93H759.86a21,21,0,0,0,11.85-9.93Zm-73.31,0h37.54a20.71,20.71,0,0,0,11.85,9.93H686.55A20.71,20.71,0,0,0,698.4,886.26Z" transform="translate(-244.48 -669.56)"/>
        <path class="cls-9" d="M646.33,873.26H625.66v6.52h20.67Z" transform="translate(-244.48 -669.56)"/>
      </g>
      <g>
        <path class="cls-1" d="M705.76,772.29H684.22a8.33,8.33,0,0,0-8,6.34l-5.55,21.09a4.35,4.35,0,0,0,2.9,5.29,3,3,0,0,0,1.11,0h3.83l5.73-21L682,776l23.79,1.29v-5Z" transform="translate(-244.48 -669.56)"/>
        <path class="cls-9" d="M997.42,758.18H721.22a16.73,16.73,0,0,0-16,12.68l-24.85,93.57,10.09,30.29,8.46-.41L812.07,897h163l30.84-8.91a12.85,12.85,0,0,0,9.12-12.5V816.27l-13.61-54.87a4.18,4.18,0,0,0-4-3.22Z" transform="translate(-244.48 -669.56)"/>
        <path class="cls-8" d="M689.5,852.53H798.68l8.46-33a4.15,4.15,0,0,1,4-3.21H1015l-13.21-53.73h-282a12.53,12.53,0,0,0-12,9.51l-20.53,77.77a2.18,2.18,0,0,0,1.44,2.66h.72Z" transform="translate(-244.48 -669.56)"/>
        <path class="cls-10" d="M975,897l30.84-8.91a12.85,12.85,0,0,0,9.12-12.5V860.71H757.75l23.52-102.39h-60a16.73,16.73,0,0,0-16,12.68L681.4,860.67h-1l.53,1.83-.53,2.07,10.84,32.54Z" transform="translate(-244.48 -669.56)"/>
        <path class="cls-11" d="M751.18,864.43H725.63a8.22,8.22,0,0,0-6.7,3.54l-5.11,7.31h25.73a8.26,8.26,0,0,0,6.7-3.54l5.07-7.31Zm-69.26,0h-1.45l3.61,10.85h9.61l-5-7.26A8.29,8.29,0,0,0,681.92,864.43Z" transform="translate(-244.48 -669.56)"/>
        <path class="cls-12" d="M759.47,838.47H690.74l-3.18,11.3a2.14,2.14,0,0,0,1.34,2.65l.07,0a1.14,1.14,0,0,0,.58,0h63a4.94,4.94,0,0,0,4.8-4l2.12-10.06Z" transform="translate(-244.48 -669.56)"/>
        <path class="cls-1" d="M778.06,772.29H756.47a8.34,8.34,0,0,0-8,6.34l-5.56,21.09a4.31,4.31,0,0,0,2.83,5.28h0a3.38,3.38,0,0,0,1.1,0h3.88l5.72-21-2.24-8,23.79,1.29v-5Z" transform="translate(-244.48 -669.56)"/>
        <path class="cls-8" d="M822.56,864.43c-11.25,0-20.43,9.41-20.67,21.14v.56l-1,5.42H732.59l-14.05-9.47a8.12,8.12,0,0,0-4.41-1.38H696.51a4.15,4.15,0,0,0-3.84,2.62l-3.3,8.23,2,5.42h40a20.77,20.77,0,0,0,11.8,9.88H701a2.53,2.53,0,0,0-2.47,2.58h0A2.52,2.52,0,0,0,701,912H998.35a2.52,2.52,0,0,0,2.46-2.57h0a2.52,2.52,0,0,0-2.46-2.58H961.91A21,21,0,0,0,973.76,897h.75l19.17-5.42H977.55l-1.06-5.42v-.56c-.24-11.71-9.38-21.09-20.62-21.14s-20.42,9.41-20.66,21.14v.56l-1,5.42h-90l-1.06-5.42v-.56c-.24-11.71-9.39-21.09-20.62-21.14ZM890.18,897H938a20.76,20.76,0,0,0,11.85,9.88H878.33A20.8,20.8,0,0,0,890.05,897Zm-49.74,0h14a20.76,20.76,0,0,0,11.85,9.88H828.59A20.76,20.76,0,0,0,840.44,897Zm-73.31,0h37.54a20.76,20.76,0,0,0,11.85,9.88H755.28A20.76,20.76,0,0,0,767.13,897Z" transform="translate(-244.48 -669.56)"/>
        <path class="cls-9" d="M715.06,884H694.44v6.48h20.62Z" transform="translate(-244.48 -669.56)"/>
      </g>
      <g>
        <path class="cls-1" d="M852.56,807.81h17.93a10.27,10.27,0,0,1,10,10.48h0v36.77H843.66V817.28a9,9,0,0,1,8.81-9.19Z" transform="translate(-244.48 -669.56)"/>
        <path class="cls-13" d="M851.37,854.87h-7.49v9.2h7.49Z" transform="translate(-244.48 -669.56)"/>
        <ellipse class="cls-14" cx="605.61" cy="194.5" rx="2.56" ry="2.67"/>
        <ellipse class="cls-14" cx="603.1" cy="194.5" rx="2.56" ry="2.67"/>
        <ellipse class="cls-14" cx="600.59" cy="194.5" rx="2.56" ry="2.67"/>
        <path class="cls-13" d="M851.37,857.49H849v4a1.26,1.26,0,1,0,2.51,0Z" transform="translate(-244.48 -669.56)"/>
        <path class="cls-9" d="M853.4,805.19h14.05l2.95,8.55H850.45Z" transform="translate(-244.48 -669.56)"/>
        <path class="cls-13" d="M855.56,801.43h10v6.38h-10Z" transform="translate(-244.48 -669.56)"/>
        <path class="cls-15" d="M855.56,807.81h10v47.06h-10Z" transform="translate(-244.48 -669.56)"/>
        <path class="cls-1" d="M860,818h2l2.07,25.64-3,2.16-3.22-2.16Z" transform="translate(-244.48 -669.56)"/>
        <path class="cls-16" d="M860,815.86h2.55v2.66H860Z" transform="translate(-244.48 -669.56)"/>
        <ellipse class="cls-17" cx="616.06" cy="138.3" rx="4.98" ry="5.24"/>
        <path class="cls-13" d="M850.58,786.9h15v15.67h-15Z" transform="translate(-244.48 -669.56)"/>
        <path class="cls-1" d="M846.66,790.21h4.09v2.16a2,2,0,0,1-1.93,2.12h-.09a2,2,0,0,1-2-1.89v-2.39Z" transform="translate(-244.48 -669.56)"/>
        <path class="cls-9" d="M848.73,820.13h4.09v2.67h-4.09Z" transform="translate(-244.48 -669.56)"/>
        <path class="cls-13" d="M850.58,792.14h1.23v5.24h-3.74Z" transform="translate(-244.48 -669.56)"/>
        <path class="cls-1" d="M850.58,781.66h9.95a5.14,5.14,0,0,1,5,5.24h-15a2.53,2.53,0,0,1-2.38-2.66v0A2.57,2.57,0,0,1,850.58,781.66Z" transform="translate(-244.48 -669.56)"/>
        <path class="cls-1" d="M858.07,781.66h2.46a5.14,5.14,0,0,1,5,5.24h0v7.86h-2.47l-5-4.59Zm2.51,13.1h5v2.67h-5Z" transform="translate(-244.48 -669.56)"/>
        <path class="cls-17" d="M856.79,786.9h2.51a1.26,1.26,0,0,1,1.23,1.29v5.28a1.26,1.26,0,0,1-1.23,1.29h-2.51a1.26,1.26,0,0,1-1.23-1.29v-5.28A1.26,1.26,0,0,1,856.79,786.9Z" transform="translate(-244.48 -669.56)"/>
        <path class="cls-13" d="M850.58,797.38H853a2.53,2.53,0,0,1,2.52,2.53v2.66h-5Z" transform="translate(-244.48 -669.56)"/>
        <path class="cls-13" d="M850.58,800h12.47v1.38a6.36,6.36,0,0,1-6.22,6.48H855.6a5.13,5.13,0,0,1-5-5.24h0V800Zm12.47-5.19V800h-2.47v-2.61a2.52,2.52,0,0,1,2.47-2.58Z" transform="translate(-244.48 -669.56)"/>
        <path class="cls-17" d="M859.26,792.14h2.51a1.26,1.26,0,0,1,1.23,1.29v2.66a1.26,1.26,0,0,1-1.23,1.29h-2.51a1.26,1.26,0,0,1-1.24-1.29v-2.66A1.27,1.27,0,0,1,859.26,792.14Z" transform="translate(-244.48 -669.56)"/>
        <ellipse class="cls-18" cx="616.06" cy="118.67" rx="3.74" ry="3.91"/>
        <path class="cls-1" d="M850.58,854.87h15l-5,31.39h-10Zm0,31.39h10l-2.51,23.53h-7.49Zm15,0h9.87v23.53h-7.49Z" transform="translate(-244.48 -669.56)"/>
        <path class="cls-1" d="M860.58,854.87h15v31.58h-10Z" transform="translate(-244.48 -669.56)"/>
        <path class="cls-13" d="M873.05,854.87h7.49v9.2h-7.49Z" transform="translate(-244.48 -669.56)"/>
        <ellipse class="cls-17" cx="629.8" cy="194.5" rx="2.56" ry="2.67"/>
        <ellipse class="cls-17" cx="632.27" cy="194.5" rx="2.56" ry="2.67"/>
        <ellipse class="cls-17" cx="634.78" cy="194.5" rx="2.56" ry="2.67"/>
        <path class="cls-1" d="M868.07,907.18h7.49v2.61h-7.49Zm-22.47,2.61h10.88a4.2,4.2,0,0,1,4.1,4.28h0v2.16h-20V915a5.13,5.13,0,0,1,5-5.24Z" transform="translate(-244.48 -669.56)"/>
        <path class="cls-1" d="M868.07,909.79h7.36a2.58,2.58,0,0,1,2.51,2.62v3.82H865.47v-3.82a2.57,2.57,0,0,1,2.51-2.62Zm-17.63-2.61h7.49v1.33a3.75,3.75,0,1,1-7.49,0h0Zm-.83-117h4.1v2.16a2.08,2.08,0,0,1-2,2.12,2,2,0,0,1-2-1.89v-2.39Z" transform="translate(-244.48 -669.56)"/>
        <path class="cls-1" d="M850.89,790.21h12.29v2.67H850.89Z" transform="translate(-244.48 -669.56)"/>
      </g>
    </g>
  </g>
</svg>
